<svg version="1.1" id="_x32_" xmlns="http://www.w3.org/2000/svg" xmlns:xlink="http://www.w3.org/1999/xlink"
     viewBox="0 0 512 512" xml:space="preserve" fill="#ffffff" stroke="#ffffff">
    <g id="SVGRepo_tracerCarrier" stroke-linecap="round" stroke-linejoin="round"></g>
    <g id="SVGRepo_iconCarrier">
        <g>
            <path d="M475.014,278.063c-8.406-9.219-23.547-11.516-60.531-11.516h-67.406L220.467,148.469 c-3.484-3.656-9.031-6.656-12.313-6.656L162.904,142c-3.313,0.016-3.516,4.141-0.453,9.156l72,115.391H126.842l-65.906-80.656 c-2.375-3.156-7-5.75-10.281-5.75H16.295c-3.313,0-4.953,3.375-3.656,7.547l21.203,78.859H13.732 c-16.813,0-18.484,27.641-3.359,39.141c15.125,11.516,147.969,64.5,166.422,64.5h236.016c50.438,0,99.188-23.047,99.188-50.672 C511.998,305.703,483.42,287.266,475.014,278.063z"></path>
        </g>
    </g>
</svg>
