<?xml version="1.0" standalone="no"?>
<!DOCTYPE svg PUBLIC "-//W3C//DTD SVG 1.1//EN" "http://www.w3.org/Graphics/SVG/1.1/DTD/svg11.dtd" >
<svg xmlns="http://www.w3.org/2000/svg" xmlns:xlink="http://www.w3.org/1999/xlink" version="1.1">
<metadata>
Created by FontForge 20170731 at Fri Feb 23 22:06:29 2018
 By Aleksey,,,
Copyright (c) 2018. Netflix, Inc. and its affiliates. All rights reserved. 
</metadata>
<defs>
<font id="." horiz-adv-x="612" >
  <font-face 
    font-family="."
    font-weight="400"
    font-stretch="normal"
    units-per-em="1000"
    panose-1="2 11 6 3 2 2 2 2 2 4"
    ascent="800"
    descent="-200"
    x-height="512"
    cap-height="696"
    bbox="-241 -454 1747 1029"
    underline-thickness="80"
    underline-position="-229"
    unicode-range="U+000D-FFFD"
  />
<missing-glyph horiz-adv-x="500" 
d="M450 0h-400v750h400v-750zM400 50v650h-300v-650h300z" />
    <glyph glyph-name=".notdef" horiz-adv-x="500" 
d="M450 0h-400v750h400v-750zM400 50v650h-300v-650h300z" />
    <glyph glyph-name="glyph1" horiz-adv-x="0" 
 />
    <glyph glyph-name="glyph1" horiz-adv-x="0" 
 />
    <glyph glyph-name="uni000D" unicode="&#xd;" horiz-adv-x="233" 
 />
    <glyph glyph-name="space" unicode=" " horiz-adv-x="233" 
 />
    <glyph glyph-name="exclam" unicode="!" horiz-adv-x="279" 
d="M98 197l-6 499h96l-6 -499h-84zM140 -12q-27 0 -46.5 19t-19.5 47t19.5 47t46.5 19t46.5 -19t19.5 -47t-19.5 -47t-46.5 -19z" />
    <glyph glyph-name="quotedbl" unicode="&#x22;" horiz-adv-x="392" 
d="M66 470l-4 255h88l-4 -255h-80zM246 470l-4 255h88l-4 -255h-80z" />
    <glyph glyph-name="numbersign" unicode="#" 
d="M82 0l32 180h-78v74h91l33 185h-116v74h129l32 180h79l-32 -180h168l32 180h78l-32 -180h78v-74h-91l-33 -185h116v-74h-129l-32 -180h-79l32 180h-168l-32 -180h-78zM205 254h168l34 185h-168z" />
    <glyph glyph-name="dollar" unicode="$" 
d="M272 -108v100q-90 10 -147.5 59t-74.5 128h89q12 -41 45.5 -69t87.5 -37v246l-30 5q-92 16 -138.5 63.5t-46.5 121.5q0 57 28.5 99.5t77.5 67.5t109 30v105h70v-107q79 -9 135 -52.5t74 -122.5h-89q-12 44 -43 66t-77 28v-229l21 -4q94 -17 146.5 -65t52.5 -129
q0 -88 -60 -144t-160 -62v-98h-70zM149 514q0 -27 10 -47t36.5 -35t76.5 -25v218q-56 -6 -89.5 -35t-33.5 -76zM470 192q0 44 -29 71.5t-99 42.5v-235q60 6 94 37.5t34 83.5z" />
    <glyph glyph-name="percent" unicode="%" horiz-adv-x="940" 
d="M235 354q-49 0 -89.5 24t-64.5 64.5t-24 89.5t24 89.5t64.5 64.5t89.5 24t89.5 -24t64.5 -64.5t24 -89.5t-24 -89.5t-64.5 -64.5t-89.5 -24zM186 0l474 696h94l-474 -696h-94zM235 433q41 0 70 28.5t29 70.5t-29 70.5t-70 28.5t-70 -28.5t-29 -70.5t29 -70.5t70 -28.5z
M705 -14q-49 0 -89.5 24t-64.5 64.5t-24 89.5t24 89.5t64.5 64.5t89.5 24t89.5 -24t64.5 -64.5t24 -89.5t-24 -89.5t-64.5 -64.5t-89.5 -24zM705 65q41 0 70 28.5t29 70.5t-29 70.5t-70 28.5t-70 -28.5t-29 -70.5t29 -70.5t70 -28.5z" />
    <glyph glyph-name="ampersand" unicode="&#x26;" horiz-adv-x="734" 
d="M294 -15q-74 0 -125.5 26.5t-79 71.5t-27.5 101q0 68 38 119t104 85q-40 43 -59 79t-19 80q0 46 24.5 84t68 60.5t99.5 22.5q58 0 100.5 -22t66 -59t23.5 -82q0 -63 -44 -106.5t-123 -74.5l163 -166l91 123h103l-137 -182l142 -145h-119l-79 80q-44 -44 -95.5 -69.5
t-115.5 -25.5zM218 544q0 -33 17 -57t55 -64q65 25 96 53t31 69q0 37 -26.5 62.5t-70.5 25.5q-45 0 -73.5 -25.5t-28.5 -63.5zM156 193q0 -51 37 -87.5t108 -36.5q82 0 149 68l-194 198q-48 -25 -74 -60.5t-26 -81.5z" />
    <glyph glyph-name="quotesingle" unicode="'" horiz-adv-x="212" 
d="M66 470l-4 255h88l-4 -255h-80z" />
    <glyph glyph-name="parenleft" unicode="(" horiz-adv-x="305" 
d="M187 -160q-67 104 -96 218t-29 230t29 229.5t96 217.5h90q-66 -112 -94.5 -223.5t-28.5 -223.5t28.5 -224t94.5 -224h-90z" />
    <glyph glyph-name="parenright" unicode=")" horiz-adv-x="305" 
d="M118 -160h-90q66 112 94.5 224t28.5 224t-28.5 223.5t-94.5 223.5h90q68 -104 96.5 -217.5t28.5 -229.5t-28.5 -230t-96.5 -218z" />
    <glyph glyph-name="asterisk" unicode="*" horiz-adv-x="478" 
d="M97 450l91 111l-139 36l24 74l135 -53l-9 145h79l-9 -145l135 53l24 -74l-140 -36l92 -111l-63 -46l-79 121l-78 -121z" />
    <glyph glyph-name="plus" unicode="+" 
d="M266 95v201h-189v78h189v201h81v-201h189v-78h-189v-201h-81z" />
    <glyph glyph-name="comma" unicode="," horiz-adv-x="272" 
d="M31 -171q38 57 60 96t30 71q-25 3 -39.5 19t-14.5 38q0 25 17.5 43t47.5 18q31 0 50 -20t19 -54q0 -44 -22.5 -95.5t-66.5 -115.5h-81z" />
    <glyph glyph-name="hyphen" unicode="-" horiz-adv-x="484" 
d="M82 250v79h320v-79h-320z" />
    <glyph glyph-name="period" unicode="." horiz-adv-x="272" 
d="M136 -12q-27 0 -46.5 19t-19.5 47t19.5 47t46.5 19t46.5 -19t19.5 -47t-19.5 -47t-46.5 -19z" />
    <glyph glyph-name="slash" unicode="/" horiz-adv-x="400" 
d="M12 -160l286 895h90l-286 -895h-90z" />
    <glyph glyph-name="zero" unicode="0" 
d="M306 -15q-81 0 -142 45t-95 126.5t-34 191.5t34 191.5t95 126.5t142 45t142 -45t95 -126.5t34 -191.5t-34 -191.5t-95 -126.5t-142 -45zM306 70q53 0 92.5 34t61.5 96t22 148t-22 148t-61.5 96t-92.5 34t-92.5 -34t-61.5 -96t-22 -148t22 -148t61.5 -96t92.5 -34z" />
    <glyph glyph-name="one" unicode="1" 
d="M304 0v597l-177 -60v86l270 86v-709h-93z" />
    <glyph glyph-name="two" unicode="2" 
d="M57 0v75l278 250q42 37 66 66t34 54.5t10 54.5q0 53 -38.5 89.5t-104.5 36.5q-63 0 -102.5 -32t-49.5 -83h-94q10 58 43 103t85 71t120 26q70 0 123 -27t83 -74.5t30 -108.5q0 -43 -15 -79.5t-47 -73t-81 -80.5l-206 -184h358v-84h-492z" />
    <glyph glyph-name="three" unicode="3" 
d="M307 -15q-107 0 -174 48.5t-87 132.5h95q16 -46 59 -71t106 -25q39 0 73.5 13.5t56.5 42t22 71.5q0 56 -42.5 85.5t-112.5 29.5h-84v84h82q61 0 99.5 30t38.5 83q0 59 -41.5 88t-99.5 29t-97.5 -26t-53.5 -69h-94q21 80 85.5 130t162.5 50q63 0 116 -23.5t84.5 -67.5
t31.5 -107q0 -56 -30.5 -96t-83.5 -58q64 -18 99 -62t35 -105q0 -66 -34 -112.5t-90 -70.5t-122 -24z" />
    <glyph glyph-name="four" unicode="4" 
d="M381 0v172h-352v71l357 453h88v-443h109v-81h-109v-172h-93zM131 253h250v317z" />
    <glyph glyph-name="five" unicode="5" 
d="M315 -15q-95 0 -160 43t-91 120h99q18 -39 57.5 -58.5t88.5 -19.5q42 0 77.5 18.5t57 52t21.5 80.5q0 71 -44 108t-113 37q-42 0 -83.5 -18.5t-69.5 -52.5h-84l39 401h403v-84h-328l-22 -235q29 34 70.5 54t95.5 20q67 0 119.5 -28.5t82 -79.5t29.5 -120
q0 -73 -33.5 -126.5t-89 -82.5t-122.5 -29z" />
    <glyph glyph-name="six" unicode="6" 
d="M326 -15q-81 0 -143.5 39t-97.5 120.5t-35 207.5q0 112 34.5 192t97 123.5t146.5 43.5q89 0 146.5 -41.5t85.5 -118.5h-97q-19 37 -53 56t-81 19q-88 0 -137.5 -69.5t-49.5 -205.5v-11q27 52 77.5 84.5t118.5 32.5q66 0 118.5 -30.5t83.5 -82.5t31 -118q0 -72 -33.5 -126
t-89.5 -84.5t-122 -30.5zM319 70q45 0 81 20t56.5 54t20.5 78q0 43 -20.5 77t-56.5 54t-81 20q-44 0 -79.5 -20t-56.5 -54t-21 -77t21 -77.5t57 -54.5t79 -20z" />
    <glyph glyph-name="seven" unicode="7" 
d="M547 696v-74l-276 -622h-100l276 612h-384v84h484z" />
    <glyph glyph-name="eight" unicode="8" horiz-adv-x="614" 
d="M307 -15q-72 0 -131.5 22.5t-95.5 67.5t-36 111q0 62 40 108.5t106 65.5q-57 19 -89.5 61t-32.5 99q0 56 31.5 99t85.5 67.5t122 24.5t122 -24.5t85.5 -67.5t31.5 -99q0 -57 -32.5 -99t-89.5 -61q66 -19 106 -65.5t40 -108.5q0 -66 -36 -111t-96 -67.5t-131 -22.5z
M307 395q39 0 73 14t54.5 40.5t20.5 64.5q0 52 -43 83.5t-105 31.5t-105 -31.5t-43 -83.5q0 -38 20.5 -64.5t54.5 -40.5t73 -14zM307 69q44 0 82.5 13.5t62.5 40.5t24 70q0 40 -24 68t-62.5 42.5t-82.5 14.5t-82.5 -14.5t-62.5 -42.5t-24 -68q0 -43 24 -70t62.5 -40.5
t82.5 -13.5z" />
    <glyph glyph-name="nine" unicode="9" 
d="M286 711q82 0 144 -38.5t97 -119.5t35 -207q0 -172 -69.5 -266.5t-198.5 -94.5q-86 0 -151 41t-92 119h97q19 -39 58 -57t84 -18q88 0 134.5 69t46.5 206v12q-27 -52 -78 -85t-119 -33q-66 0 -119 30.5t-83.5 83t-30.5 117.5q0 70 33 124.5t88.5 85.5t123.5 31zM294 626
q-45 0 -81 -19.5t-57 -54t-21 -78.5q0 -43 21 -77t57 -54t81 -20q44 0 79 20t56 54t21 77q0 44 -21 78t-56.5 54t-78.5 20z" />
    <glyph glyph-name="colon" unicode=":" horiz-adv-x="272" 
d="M136 -12q-27 0 -46.5 19t-19.5 47t19.5 47t46.5 19t46.5 -19t19.5 -47t-19.5 -47t-46.5 -19zM136 395q-27 0 -46.5 19t-19.5 47t19.5 47t46.5 19t46.5 -19t19.5 -47t-19.5 -47t-46.5 -19z" />
    <glyph glyph-name="semicolon" unicode=";" horiz-adv-x="272" 
d="M31 -171q38 57 60 96t30 71q-25 3 -39.5 19t-14.5 38q0 25 17.5 43t47.5 18q31 0 50 -20t19 -54q0 -44 -22.5 -95.5t-66.5 -115.5h-81zM136 395q-27 0 -46.5 19t-19.5 47t19.5 47t46.5 19t46.5 -19t19.5 -47t-19.5 -47t-46.5 -19z" />
    <glyph glyph-name="less" unicode="&#x3c;" 
d="M532 83l-465 213v78l465 213v-84l-373 -168l373 -168v-84z" />
    <glyph glyph-name="equal" unicode="=" 
d="M77 409v78h458v-78h-458zM77 183v78h458v-78h-458z" />
    <glyph glyph-name="greater" unicode="&#x3e;" 
d="M80 83v84l373 168l-373 168v84l465 -213v-78z" />
    <glyph glyph-name="question" unicode="?" horiz-adv-x="579" 
d="M228 197v42q0 34 8.5 62t31.5 54t67 53q37 23 57 40.5t27 35t7 39.5q0 42 -36.5 72t-99.5 30q-64 0 -104 -29.5t-48 -75.5h-93q9 54 40.5 97t84 68.5t124.5 25.5q70 0 120.5 -25t78.5 -67.5t28 -95.5q0 -52 -28 -92.5t-92 -78.5q-37 -22 -55 -41t-23.5 -37.5t-5.5 -39.5
v-37h-89zM279 -12q-27 0 -46.5 19t-19.5 47t19.5 47t46.5 19t46.5 -19t19.5 -47t-19.5 -47t-46.5 -19z" />
    <glyph glyph-name="at" unicode="@" horiz-adv-x="1061" 
d="M492 -215q-84 0 -159.5 27.5t-134 79.5t-92 127t-33.5 170q0 101 34.5 191t100 159t159.5 108.5t213 39.5q85 0 159.5 -25t131 -74t88.5 -120t32 -163q0 -103 -34.5 -173t-88.5 -106t-113 -36q-45 0 -75.5 23t-38.5 59q-30 -41 -71 -62.5t-88 -21.5q-54 0 -96 25t-66 71
t-24 108q0 76 31 139t84 101.5t118 38.5q51 0 87.5 -23t54.5 -62l10 71h78l-44 -320q-1 -7 -1 -13.5v-14.5q0 -19 14 -31.5t35 -12.5q29 0 62 26t56 79t23 135q0 99 -44 166.5t-119.5 102t-171.5 34.5q-128 0 -219.5 -54.5t-140.5 -149.5t-49 -216q0 -104 45.5 -176.5
t123 -110t174.5 -37.5q55 0 97 8.5t92 27.5v-81q-87 -34 -200 -34zM495 69q50 0 84 29t51.5 74t17.5 93q0 59 -27 92t-80 33q-50 0 -85.5 -27.5t-54.5 -71t-19 -93.5q0 -61 30.5 -95t82.5 -34z" />
    <glyph glyph-name="A" unicode="A" horiz-adv-x="689" 
d="M570 0l-73 187h-309l-72 -187h-98l278 696h96l279 -696h-101zM220 272h244l-122 316z" />
    <glyph glyph-name="B" unicode="B" horiz-adv-x="688" 
d="M90 0v696h283q115 0 177 -49t62 -135q0 -53 -30 -91t-83 -58q70 -19 104 -62.5t34 -104.5q0 -90 -66 -143t-185 -53h-296zM362 611h-177v-210h177q72 0 113 27t41 78q0 105 -154 105zM378 316h-193v-231h193q162 0 162 116q0 55 -42 85t-120 30z" />
    <glyph glyph-name="C" unicode="C" horiz-adv-x="714" 
d="M49 348q0 106 41.5 188t115.5 128.5t169 46.5q123 0 196.5 -61.5t98.5 -166.5h-99q-17 65 -67 103t-129 38q-67 0 -119 -33.5t-81 -95.5t-29 -147q0 -84 29 -146t81 -96t119 -34q79 0 130 37t67 99h98q-24 -101 -98 -162t-197 -61q-95 0 -169 46.5t-115.5 128.5
t-41.5 188z" />
    <glyph glyph-name="D" unicode="D" horiz-adv-x="732" 
d="M90 0v696h251q97 0 174.5 -42.5t122.5 -121t45 -184.5t-45 -184.5t-122.5 -121t-174.5 -42.5h-251zM185 85h150q69 0 126 31t91 89.5t34 142.5t-34 142.5t-91 89.5t-126 31h-150v-526z" />
    <glyph glyph-name="E" unicode="E" horiz-adv-x="641" 
d="M90 0v696h483v-85h-388v-211h377v-85h-377v-230h393v-85h-488z" />
    <glyph glyph-name="F" unicode="F" horiz-adv-x="615" 
d="M90 0v696h470v-85h-375v-228h363v-85h-363v-298h-95z" />
    <glyph glyph-name="G" unicode="G" horiz-adv-x="750" 
d="M387 -15q-101 0 -177 47t-118.5 129t-42.5 187q0 106 43 188t119.5 128.5t174.5 46.5q110 0 188 -51.5t110 -143.5h-100q-22 48 -74 78t-124 30q-70 0 -124 -34t-85 -96t-31 -146t30.5 -146t85 -96t127.5 -34q63 0 111.5 26.5t76 72.5t27.5 105v18h-218v85h313v-87
q0 -88 -39 -157.5t-109 -109.5t-164 -40z" />
    <glyph glyph-name="H" unicode="H" horiz-adv-x="767" 
d="M90 0v696h95v-288h397v288h95v-696h-95v323h-397v-323h-95z" />
    <glyph glyph-name="I" unicode="I" horiz-adv-x="275" 
d="M185 0h-95v696h95v-696z" />
    <glyph glyph-name="J" unicode="J" horiz-adv-x="605" 
d="M430 217v479h95v-480q0 -68 -29 -120t-82.5 -81.5t-128.5 -29.5q-109 0 -177 60t-79 158h95q8 -61 51 -96t110 -35q65 0 105 40t40 105z" />
    <glyph glyph-name="K" unicode="K" horiz-adv-x="660" 
d="M90 0v696h95v-299l325 299h122l-367 -335l384 -361h-130l-334 314v-314h-95z" />
    <glyph glyph-name="L" unicode="L" horiz-adv-x="602" 
d="M562 85v-85h-472v696h95v-611h377z" />
    <glyph glyph-name="M" unicode="M" horiz-adv-x="888" 
d="M183 0h-93v696h104l252 -405l248 405h104v-696h-94v553l-260 -423l-261 421v-551z" />
    <glyph glyph-name="N" unicode="N" horiz-adv-x="765" 
d="M90 0v696h94l397 -546v546h94v-696h-94l-397 546v-546h-94z" />
    <glyph glyph-name="O" unicode="O" horiz-adv-x="786" 
d="M393 -15q-75 0 -138 27t-109 76t-71.5 115t-25.5 145t25.5 145t71.5 115t109 76t138 27t138 -27t109 -76t71.5 -115t25.5 -145t-25.5 -145t-71.5 -115t-109 -76t-138 -27zM393 72q72 0 127.5 35t87.5 97.5t32 143.5t-32 143.5t-87.5 97.5t-127.5 35t-127.5 -35
t-87.5 -97.5t-32 -143.5t32 -143.5t87.5 -97.5t127.5 -35z" />
    <glyph glyph-name="P" unicode="P" horiz-adv-x="659" 
d="M90 0v696h256q134 0 203 -61t69 -161q0 -101 -69 -162t-203 -61h-161v-251h-95zM185 336h148q95 0 141.5 36t46.5 102q0 65 -46.5 101t-141.5 36h-148v-275z" />
    <glyph glyph-name="Q" unicode="Q" horiz-adv-x="786" 
d="M393 -15q-75 0 -138 27t-109 76t-71.5 115t-25.5 145t25.5 145t71.5 115t109 76t138 27t138 -27t109 -76t71.5 -115t25.5 -145q0 -88 -32 -161t-88 -121l108 -137h-101l-73 92q-72 -36 -158 -36zM393 72q55 0 101 21l-112 143h101l77 -98q38 37 59 91t21 119
q0 81 -32 143.5t-87.5 97.5t-127.5 35t-127.5 -35t-87.5 -97.5t-32 -143.5t32 -143.5t87.5 -97.5t127.5 -35z" />
    <glyph glyph-name="R" unicode="R" horiz-adv-x="681" 
d="M90 0v696h262q133 0 201.5 -57t68.5 -158q0 -81 -43.5 -132.5t-110.5 -72.5l185 -276h-113l-173 261h-182v-261h-95zM185 346h156q94 0 139 35.5t45 100.5q0 64 -45 96.5t-139 32.5h-156v-265z" />
    <glyph glyph-name="S" unicode="S" horiz-adv-x="635" 
d="M324 -15q-112 0 -187.5 52t-98.5 146h97q17 -52 66 -81.5t122 -29.5q71 0 119 29.5t48 85.5q0 31 -13 54.5t-46 40t-95 25.5l-83 13q-101 16 -149 60t-48 128q0 62 34.5 107.5t93 70.5t130.5 25q66 0 121.5 -21t92.5 -62.5t49 -105.5h-97q-13 54 -56.5 78t-108.5 24
q-73 0 -117.5 -29.5t-44.5 -81.5q0 -45 31 -70t118 -38l78 -12q106 -17 156.5 -66t50.5 -134q0 -65 -34 -112t-93.5 -71.5t-135.5 -24.5z" />
    <glyph glyph-name="T" unicode="T" horiz-adv-x="669" 
d="M382 0h-95v611h-247v85h589v-85h-247v-611z" />
    <glyph glyph-name="U" unicode="U" horiz-adv-x="742" 
d="M371 -15q-95 0 -160 38.5t-98 108.5t-33 165v399h95v-391q0 -107 47.5 -170t148.5 -63t148.5 63t47.5 170v391h95v-399q0 -95 -33 -165t-98 -108.5t-160 -38.5z" />
    <glyph glyph-name="V" unicode="V" horiz-adv-x="687" 
d="M669 696l-277 -696h-97l-277 696h103l225 -582l223 582h100z" />
    <glyph glyph-name="W" unicode="W" horiz-adv-x="979" 
d="M239 0l-211 696h99l162 -559l156 557h88l162 -559l159 561h97l-210 -696h-91l-161 549l-159 -549h-91z" />
    <glyph glyph-name="X" unicode="X" horiz-adv-x="693" 
d="M20 0l265 363l-239 333h117l185 -262l184 262h113l-240 -333l266 -363h-117l-212 293l-209 -293h-113z" />
    <glyph glyph-name="Y" unicode="Y" horiz-adv-x="644" 
d="M275 0v268l-260 428h110l200 -337l197 337h106l-258 -426v-270h-95z" />
    <glyph glyph-name="Z" unicode="Z" horiz-adv-x="621" 
d="M45 696h525v-81l-409 -530h416v-85h-532v81l409 530h-409v85z" />
    <glyph glyph-name="bracketleft" unicode="[" horiz-adv-x="352" 
d="M94 -160v895h221v-79h-133v-737h133v-79h-221z" />
    <glyph glyph-name="backslash" unicode="\" horiz-adv-x="400" 
d="M388 -160h-90l-286 895h90z" />
    <glyph glyph-name="bracketright" unicode="]" horiz-adv-x="352" 
d="M258 -160h-221v79h133v737h-133v79h221v-895z" />
    <glyph glyph-name="asciicircum" unicode="^" 
d="M73 399l192 352h83l192 -352h-88l-146 274l-145 -274h-88z" />
    <glyph glyph-name="underscore" unicode="_" horiz-adv-x="500" 
d="M0 -189v80h500v-80h-500z" />
    <glyph glyph-name="grave" unicode="`" horiz-adv-x="573" 
d="M287 585l-86 155h96l76 -155h-86z" />
    <glyph glyph-name="a" unicode="a" horiz-adv-x="535" 
d="M213 -14q-79 0 -127 42.5t-48 115.5q0 78 56.5 121.5t160.5 43.5h121v22q0 62 -31.5 88.5t-86.5 26.5q-46 0 -76 -18t-37 -44h-90q13 63 67.5 102.5t136.5 39.5q95 0 150.5 -49t55.5 -153v-324h-84v77q-27 -46 -73 -68.5t-95 -22.5zM233 64q33 0 66 15t55 44.5t22 74.5
v38h-115q-63 0 -98 -22t-35 -66q0 -41 29 -62.5t76 -21.5z" />
    <glyph glyph-name="b" unicode="b" horiz-adv-x="604" 
d="M75 0v725h89v-293q27 44 70 69t98 25q68 0 119.5 -34.5t80.5 -95t29 -140.5t-29 -140.5t-80.5 -95t-119.5 -34.5q-57 0 -100 26t-70 71v-83h-87zM316 68q68 0 111 51.5t43 136.5t-43 136.5t-111 51.5q-69 0 -112.5 -52t-43.5 -136t43.5 -136t112.5 -52z" />
    <glyph glyph-name="c" unicode="c" horiz-adv-x="536" 
d="M287 -14q-73 0 -128 34t-85.5 95t-30.5 141q0 79 30.5 140t85.5 95.5t128 34.5q89 0 144 -48.5t67 -120.5h-93q-7 37 -37 62t-82 25q-67 0 -109.5 -51.5t-42.5 -136.5q0 -86 42.5 -137t109.5 -51q52 0 82.5 23.5t37.5 62.5h92q-8 -48 -35.5 -86t-72 -60t-103.5 -22z" />
    <glyph glyph-name="d" unicode="d" horiz-adv-x="604" 
d="M272 -14q-68 0 -119.5 34.5t-80.5 95t-29 140.5t29 140.5t80.5 95t119.5 34.5q55 0 98 -25t70 -69v293h89v-725h-87v83q-27 -45 -70 -71t-100 -26zM288 68q69 0 112.5 52t43.5 136t-43.5 136t-112.5 52q-68 0 -111 -51.5t-43 -136.5t43 -136.5t111 -51.5z" />
    <glyph glyph-name="e" unicode="e" horiz-adv-x="557" 
d="M290 -14q-76 0 -131.5 33t-85.5 94t-30 144q0 77 29.5 138t84 96t130.5 35q73 0 123 -32.5t76 -90t26 -134.5v-42h-377q7 -78 47 -119.5t109 -41.5q45 0 76.5 15.5t41.5 40.5h92q-18 -62 -75 -99t-136 -37zM286 446q-63 0 -101.5 -38.5t-47.5 -106.5h285q-3 65 -36.5 105
t-99.5 40z" />
    <glyph glyph-name="f" unicode="f" horiz-adv-x="336" 
d="M17 512h91v46q0 79 42.5 123t119.5 44h39v-80h-25q-42 0 -64.5 -24.5t-22.5 -68.5v-40h112v-80h-112v-432h-89v432h-91v80z" />
    <glyph glyph-name="g" unicode="g" horiz-adv-x="604" 
d="M272 -3q-68 0 -119.5 34t-80.5 93.5t-29 136.5t29 137t80.5 94t119.5 34q57 0 100 -25.5t70 -69.5v81h87v-497q0 -111 -61 -172.5t-170 -61.5q-93 0 -154 41t-79 105h96q16 -28 49 -46t86 -18q70 0 107 36t37 111v80q-27 -43 -70 -68t-98 -25zM288 79q46 0 81 23.5
t55 64.5t20 95t-20 95t-55 64t-81 23q-45 0 -80 -23t-54.5 -64t-19.5 -95t19.5 -95t54.5 -64.5t80 -23.5z" />
    <glyph glyph-name="h" unicode="h" horiz-adv-x="575" 
d="M75 0v725h89v-280q27 39 68.5 60t90.5 21q57 0 97.5 -27t62.5 -74t22 -108v-317h-89v300q0 67 -30 105.5t-88 38.5q-36 0 -66.5 -16.5t-49 -48t-18.5 -76.5v-303h-89z" />
    <glyph glyph-name="i" unicode="i" horiz-adv-x="239" 
d="M120 586q-26 0 -44 18t-18 44t18 44t44 18t44 -18t18 -44t-18 -44t-44 -18zM75 0v512h89v-512h-89z" />
    <glyph glyph-name="j" unicode="j" horiz-adv-x="239" 
d="M120 586q-26 0 -44 18t-18 44t18 44t44 18t44 -18t18 -44t-18 -44t-44 -18zM-28 -205v80h27q38 0 57 25t19 68v544h89v-553q0 -78 -38 -121t-111 -43h-43z" />
    <glyph glyph-name="k" unicode="k" horiz-adv-x="532" 
d="M75 0v725h89v-427l225 214h113l-255 -242l277 -270h-117l-243 241v-241h-89z" />
    <glyph glyph-name="l" unicode="l" horiz-adv-x="239" 
d="M75 0v725h89v-725h-89z" />
    <glyph glyph-name="m" unicode="m" horiz-adv-x="861" 
d="M75 0v512h87v-63q51 77 146 77q50 0 87.5 -24.5t58.5 -69.5q27 46 70.5 70t94.5 24q78 0 125 -55t47 -150v-321h-89v309q0 63 -28 99t-77 36t-84 -36t-35 -99v-309h-89v309q0 63 -28.5 99t-76.5 36q-50 0 -85 -36t-35 -99v-309h-89z" />
    <glyph glyph-name="n" unicode="n" horiz-adv-x="575" 
d="M164 303v-303h-89v512h87v-69q27 40 69 61.5t92 21.5q57 0 97.5 -27t62.5 -74t22 -108v-317h-89v300q0 67 -30 105.5t-88 38.5q-36 0 -66.5 -16.5t-49 -48t-18.5 -76.5z" />
    <glyph glyph-name="o" unicode="o" horiz-adv-x="580" 
d="M290 -14q-72 0 -128 34t-87.5 95t-31.5 141t31.5 141t87.5 95t128 34t128 -34t87.5 -95t31.5 -141t-31.5 -141t-87.5 -95t-128 -34zM290 68q69 0 112.5 51t43.5 137t-43.5 137t-112.5 51t-112.5 -51t-43.5 -137t43.5 -137t112.5 -51z" />
    <glyph glyph-name="p" unicode="p" horiz-adv-x="604" 
d="M75 -205v717h87v-83q27 45 70 71t100 26q68 0 119.5 -34.5t80.5 -95t29 -140.5t-29 -140.5t-80.5 -95t-119.5 -34.5q-55 0 -98 25t-70 69v-285h-89zM316 68q68 0 111 51.5t43 136.5t-43 136.5t-111 51.5q-69 0 -112.5 -52t-43.5 -136t43.5 -136t112.5 -52z" />
    <glyph glyph-name="q" unicode="q" horiz-adv-x="604" 
d="M272 -14q-68 0 -119.5 34.5t-80.5 95t-29 140.5t29 140.5t80.5 95t119.5 34.5q57 0 100 -26t70 -71v83h87v-717h-89v285q-27 -44 -70 -69t-98 -25zM288 68q69 0 112.5 52t43.5 136t-43.5 136t-112.5 52q-68 0 -111 -51.5t-43 -136.5t43 -136.5t111 -51.5z" />
    <glyph glyph-name="r" unicode="r" horiz-adv-x="355" 
d="M164 259v-259h-89v512h87v-91q24 45 63 69.5t87 24.5h16v-86h-18q-39 0 -72.5 -19t-53.5 -57t-20 -94z" />
    <glyph glyph-name="s" unicode="s" horiz-adv-x="493" 
d="M256 -15q-90 0 -148 42.5t-70 107.5h90q8 -29 41.5 -50t84.5 -21q50 0 80 20.5t30 56.5q0 29 -21 47.5t-72 25.5l-78 10q-145 18 -145 142q0 46 25.5 82.5t70 57t101.5 20.5q83 0 135 -40t66 -102h-89q-10 31 -38.5 47t-71.5 16q-49 0 -78.5 -21.5t-29.5 -56.5
q0 -29 21 -44t69 -21l78 -10q73 -9 110.5 -50t37.5 -100q0 -48 -26 -84t-71.5 -55.5t-101.5 -19.5z" />
    <glyph glyph-name="t" unicode="t" horiz-adv-x="342" 
d="M259 -4q-73 0 -112 40.5t-39 118.5v277h-91v80h91v163q44 3 89 17v-180h112v-80h-112v-269q0 -42 20.5 -64.5t57.5 -22.5h34v-80h-50z" />
    <glyph glyph-name="u" unicode="u" horiz-adv-x="571" 
d="M407 207v305h89v-512h-87v68q-25 -39 -64 -60.5t-87 -21.5q-87 0 -137.5 58t-50.5 152v316h89v-305q0 -62 32.5 -100.5t88.5 -38.5q53 0 90 37t37 102z" />
    <glyph glyph-name="v" unicode="v" horiz-adv-x="522" 
d="M307 0h-92l-202 512h101l149 -408l149 408h97z" />
    <glyph glyph-name="w" unicode="w" horiz-adv-x="760" 
d="M183 0l-165 512h92l118 -388l111 386h81l115 -387l116 389h91l-166 -512h-82l-114 383l-115 -383h-82z" />
    <glyph glyph-name="x" unicode="x" horiz-adv-x="525" 
d="M11 0l194 268l-175 244h110l127 -183l124 183h104l-175 -247l194 -265h-110l-145 203l-144 -203h-104z" />
    <glyph glyph-name="y" unicode="y" horiz-adv-x="522" 
d="M131 -205l85 205l-203 512h101l150 -407l148 407h97l-283 -717h-95z" />
    <glyph glyph-name="z" unicode="z" horiz-adv-x="500" 
d="M40 0v77l303 355h-303v80h415v-77l-302 -355h309v-80h-422z" />
    <glyph glyph-name="braceleft" unicode="{" horiz-adv-x="390" 
d="M293 -160q-73 0 -116 35.5t-43 120.5v149q0 51 -18.5 75.5t-60.5 24.5h-21v85h21q42 0 60.5 24.5t18.5 75.5v149q0 85 43 120.5t116 35.5h60v-79h-43q-40 0 -64 -19t-24 -73v-141q0 -62 -19.5 -91.5t-62.5 -43.5q43 -14 62.5 -44t19.5 -92v-141q0 -54 24 -73t64 -19h43
v-79h-60z" />
    <glyph glyph-name="bar" unicode="|" horiz-adv-x="317" 
d="M115 -119v850h87v-850h-87z" />
    <glyph glyph-name="braceright" unicode="}" horiz-adv-x="390" 
d="M97 -160h-60v79h43q40 0 64 19t24 73v141q0 62 19.5 92t62.5 44q-43 14 -62.5 43.5t-19.5 91.5v141q0 54 -24 73t-64 19h-43v79h60q73 0 116 -35.5t43 -120.5v-149q0 -51 18.5 -75.5t60.5 -24.5h21v-85h-21q-42 0 -60.5 -24.5t-18.5 -75.5v-149q0 -85 -43 -120.5
t-116 -35.5z" />
    <glyph glyph-name="asciitilde" unicode="~" 
d="M435 249q-36 0 -69.5 15.5t-78.5 52.5q-36 29 -59 41t-45 12q-30 0 -44.5 -18.5t-14.5 -51.5v-40h-81v45q0 67 36.5 106.5t97.5 39.5q36 0 69.5 -15.5t78.5 -52.5q36 -29 59 -41t45 -12q30 0 44.5 18.5t14.5 51.5v40h81v-45q0 -67 -36.5 -106.5t-97.5 -39.5z" />
    <glyph glyph-name="uni00A0" unicode="&#xa0;" horiz-adv-x="233" 
 />
    <glyph glyph-name="exclamdown" unicode="&#xa1;" horiz-adv-x="279" 
d="M140 394q-27 0 -46.5 19t-19.5 47t19.5 47t46.5 19t46.5 -19t19.5 -47t-19.5 -47t-46.5 -19zM92 -182l6 499h84l6 -499h-96z" />
    <glyph glyph-name="cent" unicode="&#xa2;" 
d="M283 -13v90q-62 10 -108.5 47t-72.5 94.5t-26 130.5t26 130.5t72.5 94.5t108.5 47v88h68v-86q79 -8 129 -55.5t60 -114.5h-89q-7 37 -32 60t-68 29v-386q86 11 101 88h88q-10 -67 -59.5 -114.5t-129.5 -54.5v-88h-68zM166 349q0 -75 32 -125t85 -65v380q-53 -15 -85 -65
t-32 -125z" />
    <glyph glyph-name="sterling" unicode="&#xa3;" 
d="M57 0v73q56 55 78 106.5t22 106.5q0 8 -1 16h-100v81h79q-15 42 -22 70.5t-7 67.5q0 53 26.5 96.5t75.5 68.5t116 25q84 0 139 -41.5t80 -112.5h-96q-33 70 -119 70q-63 0 -96 -31.5t-33 -78.5q0 -27 7.5 -57.5t24.5 -76.5h231v-81h-215v-13q0 -55 -16.5 -105.5
t-59.5 -99.5h385v-84h-499z" />
    <glyph glyph-name="currency" unicode="&#xa4;" horiz-adv-x="616" 
d="M91 79l-54 55l94 94q-19 26 -29 56.5t-10 64.5q0 33 10 64t29 57l-94 94l54 55l94 -94q26 18 57.5 28t65.5 10t65.5 -10t57.5 -28l94 94l54 -55l-94 -94q19 -26 29 -56.5t10 -64.5q0 -33 -10 -64t-29 -57l94 -94l-53 -55l-95 94q-26 -18 -57.5 -28t-65.5 -10t-65.5 10
t-57.5 28zM308 217q38 0 68 17.5t47.5 47.5t17.5 67t-17.5 67t-47.5 47.5t-68 17.5t-68 -17.5t-47.5 -47.5t-17.5 -67t17.5 -67t47.5 -47.5t68 -17.5z" />
    <glyph glyph-name="yen" unicode="&#xa5;" 
d="M260 0v131h-170v71h170v73h-170v71h133l-201 350h103l184 -339l182 339h99l-199 -350h133v-71h-171v-73h171v-71h-171v-131h-93z" />
    <glyph glyph-name="brokenbar" unicode="&#xa6;" horiz-adv-x="317" 
d="M115 731h86v-350h-86v350zM201 -119h-86v350h86v-350z" />
    <glyph glyph-name="section" unicode="&#xa7;" horiz-adv-x="551" 
d="M279 -76q-85 0 -137 42t-63 109h87q6 -30 34.5 -51.5t77.5 -21.5t74.5 20.5t25.5 56.5q0 35 -21 54t-65 27l-83 15q-148 27 -148 142q0 48 26.5 84.5t68.5 57.5q-32 22 -47 52.5t-15 67.5q0 45 24 80.5t66 56.5t96 21q81 0 130.5 -42.5t60.5 -107.5h-85q-7 29 -34 50.5
t-71 21.5q-45 0 -72.5 -20.5t-27.5 -56.5q0 -35 21.5 -55.5t60.5 -26.5l75 -12q71 -11 111 -52.5t40 -101.5q0 -47 -24 -80t-63 -53q33 -20 48 -51t15 -67q0 -45 -23 -81t-64.5 -57t-98.5 -21zM322 235q32 8 56 28.5t24 57.5q0 40 -22.5 61.5t-65.5 28.5l-87 15
q-32 -9 -55.5 -34.5t-23.5 -59.5q0 -35 20 -54.5t70 -27.5z" />
    <glyph glyph-name="dieresis" unicode="&#xa8;" horiz-adv-x="573" 
d="M379 603q-25 0 -41.5 16.5t-16.5 40.5t16.5 40.5t41.5 16.5q24 0 41 -16.5t17 -40.5t-17 -40.5t-41 -16.5zM195 603q-24 0 -41 16.5t-17 40.5t17 40.5t41 16.5q25 0 41.5 -16.5t16.5 -40.5t-16.5 -40.5t-41.5 -16.5z" />
    <glyph glyph-name="copyright" unicode="&#xa9;" horiz-adv-x="809" 
d="M404 -15q-75 0 -139 26.5t-112 75.5t-74.5 115t-26.5 146t26.5 146t74.5 115t112 75.5t139 26.5t139 -26.5t112 -75.5t74.5 -115t26.5 -146t-26.5 -146t-74.5 -115t-112 -75.5t-139 -26.5zM404 46q81 0 146 39t103.5 107t38.5 156t-38.5 156t-103.5 107t-146 39
t-146.5 -39t-103.5 -107t-38 -156t38 -156t103.5 -107t146.5 -39zM410 134q-58 0 -102 27t-68.5 75.5t-24.5 111.5q0 62 24.5 110t68.5 75.5t102 27.5q70 0 115 -39t53 -97h-80q-6 29 -28.5 47t-60.5 18q-51 0 -83 -39t-32 -103q0 -66 32 -104.5t83 -38.5q38 0 61.5 17.5
t28.5 46.5h79q-8 -57 -52.5 -96t-115.5 -39z" />
    <glyph glyph-name="ordfeminine" unicode="&#xaa;" horiz-adv-x="448" 
d="M180 304q-63 0 -101.5 34t-38.5 93q0 62 45.5 99t128.5 37h92v13q0 49 -23.5 69.5t-65.5 20.5q-35 0 -58.5 -13t-30.5 -34h-75q11 51 55 82.5t110 31.5q76 0 120 -39t44 -123v-259h-69v57q-22 -35 -58 -52t-75 -17zM198 370q32 0 65 18.5t43 57.5v58h-88q-50 0 -74.5 -18
t-24.5 -50q0 -31 20.5 -48.5t58.5 -17.5z" />
    <glyph glyph-name="guillemotleft" unicode="&#xab;" horiz-adv-x="525" 
d="M185 46l-134 207l134 207h89l-131 -207l131 -207h-89zM381 46l-134 207l134 207h89l-131 -207l131 -207h-89z" />
    <glyph glyph-name="logicalnot" unicode="&#xac;" 
d="M451 198v176h-377v78h458v-254h-81z" />
    <glyph glyph-name="uni00AD" unicode="&#xad;" horiz-adv-x="484" 
d="M82 250v79h320v-79h-320z" />
    <glyph glyph-name="registered" unicode="&#xae;" horiz-adv-x="516" 
d="M258 265q-62 0 -111.5 29t-78 79.5t-28.5 114.5t28.5 114.5t78 79.5t111.5 29t111.5 -29t78 -79.5t28.5 -114.5t-28.5 -114.5t-78 -79.5t-111.5 -29zM258 316q48 0 85 22t58.5 60.5t21.5 89.5t-21.5 89.5t-58.5 60.5t-85 22t-85 -22t-58.5 -60.5t-21.5 -89.5t21.5 -89.5
t58.5 -60.5t85 -22zM174 385v220h94q40 0 62 -21t22 -54q0 -44 -40 -64l54 -81h-60l-45 72h-34v-72h-53zM227 500h31q42 0 42 30t-42 30h-31v-60z" />
    <glyph glyph-name="macron" unicode="&#xaf;" horiz-adv-x="573" 
d="M138 702h300v-75h-300v75z" />
    <glyph glyph-name="degree" unicode="&#xb0;" horiz-adv-x="398" 
d="M199 433q-41 0 -74 19.5t-52 52.5t-19 74t19 74t52 52.5t74 19.5t74 -19.5t52 -52.5t19 -74t-19 -74t-52 -52.5t-74 -19.5zM199 493q35 0 58.5 25t23.5 61t-23.5 61t-58.5 25t-58.5 -25t-23.5 -61t23.5 -61t58.5 -25z" />
    <glyph glyph-name="plusminus" unicode="&#xb1;" 
d="M77 0v78h458v-78h-458zM266 157v201h-189v78h189v201h81v-201h189v-78h-189v-201h-81z" />
    <glyph glyph-name="uni00B2" unicode="&#xb2;" horiz-adv-x="400" 
d="M49 400v61l164 136q33 28 45 46t12 38q0 24 -19 39.5t-53 15.5q-32 0 -52.5 -14.5t-25.5 -38.5h-74q8 54 50 88t104 34q64 0 105.5 -34t41.5 -88q0 -39 -21.5 -68.5t-66.5 -65.5l-103 -83h195v-66h-302z" />
    <glyph glyph-name="uni00B3" unicode="&#xb3;" horiz-adv-x="400" 
d="M203 391q-69 0 -110.5 29.5t-52.5 82.5h77q7 -23 28.5 -35t53.5 -12q31 0 54.5 14.5t23.5 44.5q0 27 -21 41.5t-58 14.5h-48v61h46q33 0 52.5 14t19.5 39q0 29 -21 42t-51 13q-29 0 -49.5 -12t-27.5 -33h-75q13 50 53.5 80t101.5 30q59 0 101.5 -30.5t42.5 -83.5
q0 -64 -66 -86q37 -11 57 -36t20 -58q0 -37 -20.5 -64t-55 -41.5t-75.5 -14.5z" />
    <glyph glyph-name="acute" unicode="&#xb4;" horiz-adv-x="573" 
d="M287 585h-86l76 155h96z" />
    <glyph glyph-name="mu" unicode="&#xb5;" horiz-adv-x="597" 
d="M75 -205v717h89v-305q0 -62 32.5 -100.5t88.5 -38.5q53 0 90 37t37 102v305h89v-365q0 -71 59 -71h11v-80h-27q-94 0 -114 82q-19 -41 -55 -66.5t-88 -25.5q-44 0 -77 19t-51 52v-262h-84z" />
    <glyph glyph-name="paragraph" unicode="&#xb6;" horiz-adv-x="686" 
d="M333 -140v392h-18q-133 0 -203.5 61.5t-70.5 162.5t70.5 160.5t203.5 59.5h271v-836h-82v758h-89v-758h-82z" />
    <glyph glyph-name="periodcentered" unicode="&#xb7;" horiz-adv-x="272" 
d="M136 300q-27 0 -46.5 19t-19.5 47t19.5 47t46.5 19t46.5 -19t19.5 -47t-19.5 -47t-46.5 -19z" />
    <glyph glyph-name="cedilla" unicode="&#xb8;" horiz-adv-x="573" 
d="M196 -240v62h48q28 0 43.5 8.5t15.5 27.5q0 35 -54 35h-40l44 134h63l-30 -79q41 -1 67.5 -26t26.5 -66q0 -45 -31.5 -70.5t-85.5 -25.5h-67z" />
    <glyph glyph-name="uni00B9" unicode="&#xb9;" horiz-adv-x="400" 
d="M190 400v316l-102 -30v70l176 48v-404h-74z" />
    <glyph glyph-name="ordmasculine" unicode="&#xba;" horiz-adv-x="484" 
d="M242 303q-58 0 -103 28t-70 76.5t-25 112.5t25 112.5t70 76.5t103 28t103 -28t70 -76.5t25 -112.5t-25 -112.5t-70 -76.5t-103 -28zM242 372q53 0 87 40.5t34 107.5t-34 107.5t-87 40.5t-87 -40.5t-34 -107.5t34 -107.5t87 -40.5z" />
    <glyph glyph-name="guillemotright" unicode="&#xbb;" horiz-adv-x="525" 
d="M55 46l131 207l-131 207h89l134 -207l-134 -207h-89zM251 46l131 207l-131 207h89l134 -207l-134 -207h-89z" />
    <glyph glyph-name="onequarter" unicode="&#xbc;" horiz-adv-x="940" 
d="M190 320v316l-102 -30v70l176 48v-404h-74zM215 0l454 696h88l-454 -696h-88zM778 0v90h-206v57l205 250h72v-245h62v-62h-62v-90h-71zM648 152h130v159z" />
    <glyph glyph-name="onehalf" unicode="&#xbd;" horiz-adv-x="940" 
d="M190 320v316l-102 -30v70l176 48v-404h-74zM192 0l454 696h88l-454 -696h-88zM589 0v61l164 136q33 28 45 46t12 38q0 24 -19 39.5t-53 15.5q-32 0 -52.5 -14.5t-25.5 -38.5h-74q8 54 50 88t104 34q64 0 105.5 -34t41.5 -88q0 -39 -21.5 -68.5t-66.5 -65.5l-103 -83h195
v-66h-302z" />
    <glyph glyph-name="threequarters" unicode="&#xbe;" horiz-adv-x="940" 
d="M203 311q-69 0 -110.5 29.5t-52.5 82.5h77q7 -23 28.5 -35t53.5 -12q31 0 54.5 14.5t23.5 44.5q0 27 -21 41.5t-58 14.5h-48v61h46q33 0 52.5 14t19.5 39q0 29 -21 42t-51 13q-29 0 -49.5 -12t-27.5 -33h-75q13 50 53.5 80t101.5 30q59 0 101.5 -30.5t42.5 -83.5
q0 -64 -66 -86q37 -11 57 -36t20 -58q0 -37 -20.5 -64t-55 -41.5t-75.5 -14.5zM229 0l454 696h88l-454 -696h-88zM778 0v90h-206v57l205 250h72v-245h62v-62h-62v-90h-71zM648 152h130v159z" />
    <glyph glyph-name="questiondown" unicode="&#xbf;" horiz-adv-x="549" 
d="M299 394q-27 0 -46.5 19t-19.5 47t19.5 47t46.5 19t46.5 -19t19.5 -47t-19.5 -47t-46.5 -19zM284 -197q-70 0 -120.5 25t-78.5 67.5t-28 95.5q0 52 28 92.5t92 78.5q37 22 55 41t23.5 37.5t5.5 39.5v37h89v-42q0 -34 -8.5 -62t-31.5 -54t-67 -53q-37 -23 -57 -40.5
t-27 -35t-7 -39.5q0 -42 36.5 -72t99.5 -30q64 0 104 29.5t48 75.5h93q-9 -54 -40.5 -97t-84 -68.5t-124.5 -25.5z" />
    <glyph glyph-name="Agrave" unicode="&#xc0;" horiz-adv-x="689" 
d="M570 0l-73 187h-309l-72 -187h-98l278 696h96l279 -696h-101zM220 272h244l-122 316zM306 770l-99 147h99l88 -147h-88z" />
    <glyph glyph-name="Aacute" unicode="&#xc1;" horiz-adv-x="689" 
d="M570 0l-73 187h-309l-72 -187h-98l278 696h96l279 -696h-101zM220 272h244l-122 316zM382 770h-88l88 147h99z" />
    <glyph glyph-name="Acircumflex" unicode="&#xc2;" horiz-adv-x="689" 
d="M570 0l-73 187h-309l-72 -187h-98l278 696h96l279 -696h-101zM220 272h244l-122 316zM168 770l124 147h104l124 -147h-94l-82 89l-82 -89h-94z" />
    <glyph glyph-name="Atilde" unicode="&#xc3;" horiz-adv-x="689" 
d="M570 0l-73 187h-309l-72 -187h-98l278 696h96l279 -696h-101zM220 272h244l-122 316zM421 769q-19 0 -40.5 6t-48.5 24q-20 13 -32 19t-24 6q-34 0 -34 -34v-19h-72v33q0 44 27 70.5t70 26.5q19 0 40.5 -6t48.5 -24q20 -13 32 -19t24 -6q34 0 34 33v20h72v-33
q0 -44 -27 -70.5t-70 -26.5z" />
    <glyph glyph-name="Adieresis" unicode="&#xc4;" horiz-adv-x="689" 
d="M570 0l-73 187h-309l-72 -187h-98l278 696h96l279 -696h-101zM220 272h244l-122 316zM448 787q-25 0 -41.5 16.5t-16.5 40.5t16.5 40.5t41.5 16.5q24 0 41 -16.5t17 -40.5t-17 -40.5t-41 -16.5zM240 787q-24 0 -41 16.5t-17 40.5t17 40.5t41 16.5q25 0 41.5 -16.5
t16.5 -40.5t-16.5 -40.5t-41.5 -16.5z" />
    <glyph glyph-name="Aring" unicode="&#xc5;" horiz-adv-x="689" 
d="M570 0l-73 187h-309l-72 -187h-98l278 696h96l279 -696h-101zM220 272h244l-122 316zM344 637q-34 0 -61 16t-43 43t-16 59t16 59t43 43t61 16t61 -16t43 -43t16 -59t-16 -59t-43 -43t-61 -16zM344 697q25 0 41 16.5t16 41.5t-16 41.5t-41 16.5t-41 -16.5t-16 -41.5
t16 -41.5t41 -16.5z" />
    <glyph glyph-name="AE" unicode="&#xc6;" horiz-adv-x="1060" 
d="M113 0h-106l459 696h526v-85h-388v-211h377v-85h-377v-230h393v-85h-488v187h-276zM287 272h222v346z" />
    <glyph glyph-name="Ccedilla" unicode="&#xc7;" horiz-adv-x="714" 
d="M49 348q0 106 41.5 188t115.5 128.5t169 46.5q123 0 196.5 -61.5t98.5 -166.5h-99q-17 65 -67 103t-129 38q-67 0 -119 -33.5t-81 -95.5t-29 -147q0 -84 29 -146t81 -96t119 -34q79 0 130 37t67 99h98q-24 -101 -98 -162t-197 -61q-95 0 -169 46.5t-115.5 128.5
t-41.5 188zM296 -240v62h48q28 0 43.5 8.5t15.5 27.5q0 35 -53 35h-41l43 126h62l-28 -71q41 -1 67.5 -26t26.5 -66q0 -45 -31.5 -70.5t-85.5 -25.5h-67z" />
    <glyph glyph-name="Egrave" unicode="&#xc8;" horiz-adv-x="641" 
d="M90 0v696h483v-85h-388v-211h377v-85h-377v-230h393v-85h-488zM293 770l-99 147h99l88 -147h-88z" />
    <glyph glyph-name="Eacute" unicode="&#xc9;" horiz-adv-x="641" 
d="M90 0v696h483v-85h-388v-211h377v-85h-377v-230h393v-85h-488zM369 770h-88l88 147h99z" />
    <glyph glyph-name="Ecircumflex" unicode="&#xca;" horiz-adv-x="641" 
d="M90 0v696h483v-85h-388v-211h377v-85h-377v-230h393v-85h-488zM155 770l124 147h104l124 -147h-94l-82 89l-82 -89h-94z" />
    <glyph glyph-name="Edieresis" unicode="&#xcb;" horiz-adv-x="641" 
d="M90 0v696h483v-85h-388v-211h377v-85h-377v-230h393v-85h-488zM435 787q-25 0 -41.5 16.5t-16.5 40.5t16.5 40.5t41.5 16.5q24 0 41 -16.5t17 -40.5t-17 -40.5t-41 -16.5zM227 787q-24 0 -41 16.5t-17 40.5t17 40.5t41 16.5q25 0 41.5 -16.5t16.5 -40.5t-16.5 -40.5
t-41.5 -16.5z" />
    <glyph glyph-name="Igrave" unicode="&#xcc;" horiz-adv-x="275" 
d="M185 0h-95v696h95v-696zM99 770l-99 147h99l88 -147h-88z" />
    <glyph glyph-name="Iacute" unicode="&#xcd;" horiz-adv-x="275" 
d="M185 0h-95v696h95v-696zM175 770h-88l88 147h99z" />
    <glyph glyph-name="Icircumflex" unicode="&#xce;" horiz-adv-x="275" 
d="M185 0h-95v696h95v-696zM-39 770l124 147h104l124 -147h-94l-82 89l-82 -89h-94z" />
    <glyph glyph-name="Idieresis" unicode="&#xcf;" horiz-adv-x="275" 
d="M185 0h-95v696h95v-696zM241 787q-25 0 -41.5 16.5t-16.5 40.5t16.5 40.5t41.5 16.5q24 0 41 -16.5t17 -40.5t-17 -40.5t-41 -16.5zM33 787q-24 0 -41 16.5t-17 40.5t17 40.5t41 16.5q25 0 41.5 -16.5t16.5 -40.5t-16.5 -40.5t-41.5 -16.5z" />
    <glyph glyph-name="Eth" unicode="&#xd0;" horiz-adv-x="758" 
d="M116 0v326h-95v79h95v291h251q97 0 174.5 -42.5t122.5 -121t45 -184.5t-45 -184.5t-122.5 -121t-174.5 -42.5h-251zM211 85h150q69 0 126 31t91 89.5t34 142.5t-34 142.5t-91 89.5t-126 31h-150v-206h164v-79h-164v-241z" />
    <glyph glyph-name="Ntilde" unicode="&#xd1;" horiz-adv-x="765" 
d="M90 0v696h94l397 -546v546h94v-696h-94l-397 546v-546h-94zM459 769q-19 0 -40.5 6t-48.5 24q-20 13 -32 19t-24 6q-34 0 -34 -34v-19h-72v33q0 44 27 70.5t70 26.5q19 0 40.5 -6t48.5 -24q20 -13 32 -19t24 -6q34 0 34 33v20h72v-33q0 -44 -27 -70.5t-70 -26.5z" />
    <glyph glyph-name="Ograve" unicode="&#xd2;" horiz-adv-x="786" 
d="M393 -15q-75 0 -138 27t-109 76t-71.5 115t-25.5 145t25.5 145t71.5 115t109 76t138 27t138 -27t109 -76t71.5 -115t25.5 -145t-25.5 -145t-71.5 -115t-109 -76t-138 -27zM393 72q72 0 127.5 35t87.5 97.5t32 143.5t-32 143.5t-87.5 97.5t-127.5 35t-127.5 -35
t-87.5 -97.5t-32 -143.5t32 -143.5t87.5 -97.5t127.5 -35zM355 770l-99 147h99l88 -147h-88z" />
    <glyph glyph-name="Oacute" unicode="&#xd3;" horiz-adv-x="786" 
d="M393 -15q-75 0 -138 27t-109 76t-71.5 115t-25.5 145t25.5 145t71.5 115t109 76t138 27t138 -27t109 -76t71.5 -115t25.5 -145t-25.5 -145t-71.5 -115t-109 -76t-138 -27zM393 72q72 0 127.5 35t87.5 97.5t32 143.5t-32 143.5t-87.5 97.5t-127.5 35t-127.5 -35
t-87.5 -97.5t-32 -143.5t32 -143.5t87.5 -97.5t127.5 -35zM431 770h-88l88 147h99z" />
    <glyph glyph-name="Ocircumflex" unicode="&#xd4;" horiz-adv-x="786" 
d="M393 -15q-75 0 -138 27t-109 76t-71.5 115t-25.5 145t25.5 145t71.5 115t109 76t138 27t138 -27t109 -76t71.5 -115t25.5 -145t-25.5 -145t-71.5 -115t-109 -76t-138 -27zM393 72q72 0 127.5 35t87.5 97.5t32 143.5t-32 143.5t-87.5 97.5t-127.5 35t-127.5 -35
t-87.5 -97.5t-32 -143.5t32 -143.5t87.5 -97.5t127.5 -35zM217 770l124 147h104l124 -147h-94l-82 89l-82 -89h-94z" />
    <glyph glyph-name="Otilde" unicode="&#xd5;" horiz-adv-x="786" 
d="M393 -15q-75 0 -138 27t-109 76t-71.5 115t-25.5 145t25.5 145t71.5 115t109 76t138 27t138 -27t109 -76t71.5 -115t25.5 -145t-25.5 -145t-71.5 -115t-109 -76t-138 -27zM393 72q72 0 127.5 35t87.5 97.5t32 143.5t-32 143.5t-87.5 97.5t-127.5 35t-127.5 -35
t-87.5 -97.5t-32 -143.5t32 -143.5t87.5 -97.5t127.5 -35zM470 769q-19 0 -40.5 6t-48.5 24q-20 13 -32 19t-24 6q-34 0 -34 -34v-19h-72v33q0 44 27 70.5t70 26.5q19 0 40.5 -6t48.5 -24q20 -13 32 -19t24 -6q34 0 34 33v20h72v-33q0 -44 -27 -70.5t-70 -26.5z" />
    <glyph glyph-name="Odieresis" unicode="&#xd6;" horiz-adv-x="786" 
d="M393 -15q-75 0 -138 27t-109 76t-71.5 115t-25.5 145t25.5 145t71.5 115t109 76t138 27t138 -27t109 -76t71.5 -115t25.5 -145t-25.5 -145t-71.5 -115t-109 -76t-138 -27zM393 72q72 0 127.5 35t87.5 97.5t32 143.5t-32 143.5t-87.5 97.5t-127.5 35t-127.5 -35
t-87.5 -97.5t-32 -143.5t32 -143.5t87.5 -97.5t127.5 -35zM497 787q-25 0 -41.5 16.5t-16.5 40.5t16.5 40.5t41.5 16.5q24 0 41 -16.5t17 -40.5t-17 -40.5t-41 -16.5zM289 787q-24 0 -41 16.5t-17 40.5t17 40.5t41 16.5q25 0 41.5 -16.5t16.5 -40.5t-16.5 -40.5t-41.5 -16.5
z" />
    <glyph glyph-name="multiply" unicode="&#xd7;" 
d="M145 117l-55 54l162 162l-162 162l55 54l161 -161l162 161l55 -54l-162 -162l162 -162l-55 -54l-162 161z" />
    <glyph glyph-name="Oslash" unicode="&#xd8;" horiz-adv-x="786" 
d="M82 -48l80 119q-53 49 -83 120t-30 157q0 79 25.5 145t71.5 115t109 76t138 27q47 0 90 -11t80 -31l50 75h91l-80 -119q53 -49 83 -120t30 -157q0 -79 -25.5 -145t-71.5 -115t-109 -76t-138 -27q-47 0 -90 11t-80 31l-50 -75h-91zM146 348q0 -60 18 -110.5t51 -87.5
l297 444q-53 30 -119 30q-72 0 -127.5 -35t-87.5 -97.5t-32 -143.5zM393 72q72 0 127.5 35t87.5 97.5t32 143.5q0 60 -18 110.5t-51 87.5l-297 -444q53 -30 119 -30z" />
    <glyph glyph-name="Ugrave" unicode="&#xd9;" horiz-adv-x="742" 
d="M371 -15q-95 0 -160 38.5t-98 108.5t-33 165v399h95v-391q0 -107 47.5 -170t148.5 -63t148.5 63t47.5 170v391h95v-399q0 -95 -33 -165t-98 -108.5t-160 -38.5zM333 770l-99 147h99l88 -147h-88z" />
    <glyph glyph-name="Uacute" unicode="&#xda;" horiz-adv-x="742" 
d="M371 -15q-95 0 -160 38.5t-98 108.5t-33 165v399h95v-391q0 -107 47.5 -170t148.5 -63t148.5 63t47.5 170v391h95v-399q0 -95 -33 -165t-98 -108.5t-160 -38.5zM409 770h-88l88 147h99z" />
    <glyph glyph-name="Ucircumflex" unicode="&#xdb;" horiz-adv-x="742" 
d="M371 -15q-95 0 -160 38.5t-98 108.5t-33 165v399h95v-391q0 -107 47.5 -170t148.5 -63t148.5 63t47.5 170v391h95v-399q0 -95 -33 -165t-98 -108.5t-160 -38.5zM195 770l124 147h104l124 -147h-94l-82 89l-82 -89h-94z" />
    <glyph glyph-name="Udieresis" unicode="&#xdc;" horiz-adv-x="742" 
d="M371 -15q-95 0 -160 38.5t-98 108.5t-33 165v399h95v-391q0 -107 47.5 -170t148.5 -63t148.5 63t47.5 170v391h95v-399q0 -95 -33 -165t-98 -108.5t-160 -38.5zM475 787q-25 0 -41.5 16.5t-16.5 40.5t16.5 40.5t41.5 16.5q24 0 41 -16.5t17 -40.5t-17 -40.5t-41 -16.5z
M267 787q-24 0 -41 16.5t-17 40.5t17 40.5t41 16.5q25 0 41.5 -16.5t16.5 -40.5t-16.5 -40.5t-41.5 -16.5z" />
    <glyph glyph-name="Yacute" unicode="&#xdd;" horiz-adv-x="644" 
d="M275 0v268l-260 428h110l200 -337l197 337h106l-258 -426v-270h-95zM359 770h-88l88 147h99z" />
    <glyph glyph-name="Thorn" unicode="&#xde;" horiz-adv-x="659" 
d="M90 0v696h95v-123h161q134 0 203 -60.5t69 -161.5t-69 -162t-203 -61h-161v-128h-95zM333 488h-148v-275h148q95 0 141.5 36t46.5 102q0 65 -46.5 101t-141.5 36z" />
    <glyph glyph-name="germandbls" unicode="&#xdf;" horiz-adv-x="619" 
d="M75 0v475q0 120 65 185t172 65q66 0 114 -24t74.5 -66.5t26.5 -98.5q0 -55 -28 -93.5t-78 -57.5q69 -17 107.5 -65t38.5 -118q0 -62 -28.5 -107.5t-79.5 -70t-119 -24.5h-91v80h83q64 0 104 33.5t40 97.5q0 61 -42 93.5t-112 32.5h-57v80h37q56 0 95 28.5t39 87.5
q0 53 -34 81.5t-90 28.5q-66 0 -107 -41.5t-41 -130.5v-471h-89z" />
    <glyph glyph-name="agrave" unicode="&#xe0;" horiz-adv-x="535" 
d="M213 -14q-79 0 -127 42.5t-48 115.5q0 78 56.5 121.5t160.5 43.5h121v22q0 62 -31.5 88.5t-86.5 26.5q-46 0 -76 -18t-37 -44h-90q13 63 67.5 102.5t136.5 39.5q95 0 150.5 -49t55.5 -153v-324h-84v77q-27 -46 -73 -68.5t-95 -22.5zM233 64q33 0 66 15t55 44.5t22 74.5
v38h-115q-63 0 -98 -22t-35 -66q0 -41 29 -62.5t76 -21.5zM230 585l-86 155h96l76 -155h-86z" />
    <glyph glyph-name="aacute" unicode="&#xe1;" horiz-adv-x="535" 
d="M213 -14q-79 0 -127 42.5t-48 115.5q0 78 56.5 121.5t160.5 43.5h121v22q0 62 -31.5 88.5t-86.5 26.5q-46 0 -76 -18t-37 -44h-90q13 63 67.5 102.5t136.5 39.5q95 0 150.5 -49t55.5 -153v-324h-84v77q-27 -46 -73 -68.5t-95 -22.5zM233 64q33 0 66 15t55 44.5t22 74.5
v38h-115q-63 0 -98 -22t-35 -66q0 -41 29 -62.5t76 -21.5zM304 585h-86l76 155h96z" />
    <glyph glyph-name="acircumflex" unicode="&#xe2;" horiz-adv-x="535" 
d="M213 -14q-79 0 -127 42.5t-48 115.5q0 78 56.5 121.5t160.5 43.5h121v22q0 62 -31.5 88.5t-86.5 26.5q-46 0 -76 -18t-37 -44h-90q13 63 67.5 102.5t136.5 39.5q95 0 150.5 -49t55.5 -153v-324h-84v77q-27 -46 -73 -68.5t-95 -22.5zM233 64q33 0 66 15t55 44.5t22 74.5
v38h-115q-63 0 -98 -22t-35 -66q0 -41 29 -62.5t76 -21.5zM97 585l120 155h100l120 -155h-90l-80 96l-80 -96h-90z" />
    <glyph glyph-name="atilde" unicode="&#xe3;" horiz-adv-x="535" 
d="M213 -14q-79 0 -127 42.5t-48 115.5q0 78 56.5 121.5t160.5 43.5h121v22q0 62 -31.5 88.5t-86.5 26.5q-46 0 -76 -18t-37 -44h-90q13 63 67.5 102.5t136.5 39.5q95 0 150.5 -49t55.5 -153v-324h-84v77q-27 -46 -73 -68.5t-95 -22.5zM233 64q33 0 66 15t55 44.5t22 74.5
v38h-115q-63 0 -98 -22t-35 -66q0 -41 29 -62.5t76 -21.5zM342 587q-21 0 -42 7.5t-50 26.5q-19 13 -29.5 17.5t-20.5 4.5q-31 0 -31 -34v-20h-70v33q0 44 25.5 70t66.5 26q21 0 42.5 -7t49.5 -27q20 -14 30 -18t20 -4q31 0 31 34v20h70v-33q0 -43 -25.5 -69.5t-66.5 -26.5z
" />
    <glyph glyph-name="adieresis" unicode="&#xe4;" horiz-adv-x="535" 
d="M213 -14q-79 0 -127 42.5t-48 115.5q0 78 56.5 121.5t160.5 43.5h121v22q0 62 -31.5 88.5t-86.5 26.5q-46 0 -76 -18t-37 -44h-90q13 63 67.5 102.5t136.5 39.5q95 0 150.5 -49t55.5 -153v-324h-84v77q-27 -46 -73 -68.5t-95 -22.5zM233 64q33 0 66 15t55 44.5t22 74.5
v38h-115q-63 0 -98 -22t-35 -66q0 -41 29 -62.5t76 -21.5zM359 603q-25 0 -41.5 16.5t-16.5 40.5t16.5 40.5t41.5 16.5q24 0 41 -16.5t17 -40.5t-17 -40.5t-41 -16.5zM175 603q-24 0 -41 16.5t-17 40.5t17 40.5t41 16.5q25 0 41.5 -16.5t16.5 -40.5t-16.5 -40.5t-41.5 -16.5
z" />
    <glyph glyph-name="aring" unicode="&#xe5;" horiz-adv-x="535" 
d="M213 -14q-79 0 -127 42.5t-48 115.5q0 78 56.5 121.5t160.5 43.5h121v22q0 62 -31.5 88.5t-86.5 26.5q-46 0 -76 -18t-37 -44h-90q13 63 67.5 102.5t136.5 39.5q95 0 150.5 -49t55.5 -153v-324h-84v77q-27 -46 -73 -68.5t-95 -22.5zM233 64q33 0 66 15t55 44.5t22 74.5
v38h-115q-63 0 -98 -22t-35 -66q0 -41 29 -62.5t76 -21.5zM267 567q-34 0 -61 16t-43 43t-16 59t16 59t43 43t61 16t61 -16t43 -43t16 -59t-16 -59t-43 -43t-61 -16zM267 627q25 0 41 16.5t16 41.5t-16 41.5t-41 16.5t-41 -16.5t-16 -41.5t16 -41.5t41 -16.5z" />
    <glyph glyph-name="ae" unicode="&#xe6;" horiz-adv-x="891" 
d="M219 -14q-82 0 -131.5 42.5t-49.5 115.5q0 77 55.5 119.5t158.5 42.5h124v25q0 62 -31.5 88.5t-86.5 26.5q-46 0 -76 -18t-37 -44h-90q13 63 67.5 102.5t136.5 39.5q63 0 108.5 -23.5t69.5 -76.5q31 53 80 76.5t105 23.5q72 0 122 -32.5t76 -90t26 -133.5v-36h-377
q5 -82 45 -125t110 -43q46 0 77.5 15.5t41.5 40.5h92q-18 -62 -75 -99t-136 -37q-72 0 -123.5 30t-81.5 86q-28 -57 -82.5 -86.5t-117.5 -29.5zM620 446q-62 0 -100 -37.5t-49 -102.5h285q-4 63 -38 101.5t-98 38.5zM233 64q36 0 68.5 14t53.5 43.5t21 75.5v37h-116
q-62 0 -97 -21t-35 -65q0 -41 29 -62.5t76 -21.5z" />
    <glyph glyph-name="ccedilla" unicode="&#xe7;" horiz-adv-x="536" 
d="M287 -14q-73 0 -128 34t-85.5 95t-30.5 141q0 79 30.5 140t85.5 95.5t128 34.5q89 0 144 -48.5t67 -120.5h-93q-7 37 -37 62t-82 25q-67 0 -109.5 -51.5t-42.5 -136.5q0 -86 42.5 -137t109.5 -51q52 0 82.5 23.5t37.5 62.5h92q-8 -48 -35.5 -86t-72 -60t-103.5 -22z
M205 -240v62h48q28 0 43.5 8.5t15.5 27.5q0 35 -54 35h-40l44 134h63l-30 -79q41 -1 67.5 -26t26.5 -66q0 -45 -31.5 -70.5t-85.5 -25.5h-67z" />
    <glyph glyph-name="egrave" unicode="&#xe8;" horiz-adv-x="557" 
d="M290 -14q-76 0 -131.5 33t-85.5 94t-30 144q0 77 29.5 138t84 96t130.5 35q73 0 123 -32.5t76 -90t26 -134.5v-42h-377q7 -78 47 -119.5t109 -41.5q45 0 76.5 15.5t41.5 40.5h92q-18 -62 -75 -99t-136 -37zM286 446q-63 0 -101.5 -38.5t-47.5 -106.5h285q-3 65 -36.5 105
t-99.5 40zM241 585l-86 155h96l76 -155h-86z" />
    <glyph glyph-name="eacute" unicode="&#xe9;" horiz-adv-x="557" 
d="M290 -14q-76 0 -131.5 33t-85.5 94t-30 144q0 77 29.5 138t84 96t130.5 35q73 0 123 -32.5t76 -90t26 -134.5v-42h-377q7 -78 47 -119.5t109 -41.5q45 0 76.5 15.5t41.5 40.5h92q-18 -62 -75 -99t-136 -37zM286 446q-63 0 -101.5 -38.5t-47.5 -106.5h285q-3 65 -36.5 105
t-99.5 40zM315 585h-86l76 155h96z" />
    <glyph glyph-name="ecircumflex" unicode="&#xea;" horiz-adv-x="557" 
d="M290 -14q-76 0 -131.5 33t-85.5 94t-30 144q0 77 29.5 138t84 96t130.5 35q73 0 123 -32.5t76 -90t26 -134.5v-42h-377q7 -78 47 -119.5t109 -41.5q45 0 76.5 15.5t41.5 40.5h92q-18 -62 -75 -99t-136 -37zM286 446q-63 0 -101.5 -38.5t-47.5 -106.5h285q-3 65 -36.5 105
t-99.5 40zM108 585l120 155h100l120 -155h-90l-80 96l-80 -96h-90z" />
    <glyph glyph-name="edieresis" unicode="&#xeb;" horiz-adv-x="557" 
d="M290 -14q-76 0 -131.5 33t-85.5 94t-30 144q0 77 29.5 138t84 96t130.5 35q73 0 123 -32.5t76 -90t26 -134.5v-42h-377q7 -78 47 -119.5t109 -41.5q45 0 76.5 15.5t41.5 40.5h92q-18 -62 -75 -99t-136 -37zM286 446q-63 0 -101.5 -38.5t-47.5 -106.5h285q-3 65 -36.5 105
t-99.5 40zM370 603q-25 0 -41.5 16.5t-16.5 40.5t16.5 40.5t41.5 16.5q24 0 41 -16.5t17 -40.5t-17 -40.5t-41 -16.5zM186 603q-24 0 -41 16.5t-17 40.5t17 40.5t41 16.5q25 0 41.5 -16.5t16.5 -40.5t-16.5 -40.5t-41.5 -16.5z" />
    <glyph glyph-name="igrave" unicode="&#xec;" horiz-adv-x="239" 
d="M75 0v512h89v-512h-89zM83 585l-86 155h96l76 -155h-86z" />
    <glyph glyph-name="iacute" unicode="&#xed;" horiz-adv-x="239" 
d="M75 0v512h89v-512h-89zM157 585h-86l76 155h96z" />
    <glyph glyph-name="icircumflex" unicode="&#xee;" horiz-adv-x="239" 
d="M75 0v512h89v-512h-89zM-35 585l105 155h100l105 -155h-90l-65 90l-65 -90h-90z" />
    <glyph glyph-name="idieresis" unicode="&#xef;" horiz-adv-x="239" 
d="M75 0v512h89v-512h-89zM36 602q-25 0 -41.5 16.5t-16.5 41.5q0 24 16.5 40.5t41.5 16.5q24 0 41 -16.5t17 -40.5q0 -25 -17 -41.5t-41 -16.5zM204 602q-24 0 -41 16.5t-17 41.5q0 24 17 40.5t41 16.5q25 0 41.5 -16.5t16.5 -40.5q0 -25 -16.5 -41.5t-41.5 -16.5z" />
    <glyph glyph-name="eth" unicode="&#xf0;" horiz-adv-x="583" 
d="M290 -15q-72 0 -128 33t-87.5 91.5t-31.5 133.5q0 78 31 136t84.5 90t118.5 32q49 0 91 -22.5t71 -62.5q-12 48 -33 90t-57 82l-147 -47v69l94 30q-47 42 -116 85h123q43 -28 76 -58l141 45v-69l-90 -29q58 -71 81.5 -158t23.5 -193q0 -87 -31.5 -149.5t-86.5 -95.5
t-127 -33zM290 67q68 0 111 48.5t43 127.5q0 53 -21 93t-56 62t-77 22q-69 0 -112.5 -49t-43.5 -128t43.5 -127.5t112.5 -48.5z" />
    <glyph glyph-name="ntilde" unicode="&#xf1;" horiz-adv-x="575" 
d="M164 303v-303h-89v512h87v-69q27 40 69 61.5t92 21.5q57 0 97.5 -27t62.5 -74t22 -108v-317h-89v300q0 67 -30 105.5t-88 38.5q-36 0 -66.5 -16.5t-49 -48t-18.5 -76.5zM366 587q-21 0 -42 7.5t-50 26.5q-19 13 -29.5 17.5t-20.5 4.5q-31 0 -31 -34v-20h-70v33
q0 44 25.5 70t66.5 26q21 0 42.5 -7t49.5 -27q20 -14 30 -18t20 -4q31 0 31 34v20h70v-33q0 -43 -25.5 -69.5t-66.5 -26.5z" />
    <glyph glyph-name="ograve" unicode="&#xf2;" horiz-adv-x="580" 
d="M290 -14q-72 0 -128 34t-87.5 95t-31.5 141t31.5 141t87.5 95t128 34t128 -34t87.5 -95t31.5 -141t-31.5 -141t-87.5 -95t-128 -34zM290 68q69 0 112.5 51t43.5 137t-43.5 137t-112.5 51t-112.5 -51t-43.5 -137t43.5 -137t112.5 -51zM253 585l-86 155h96l76 -155h-86z
" />
    <glyph glyph-name="oacute" unicode="&#xf3;" horiz-adv-x="580" 
d="M290 -14q-72 0 -128 34t-87.5 95t-31.5 141t31.5 141t87.5 95t128 34t128 -34t87.5 -95t31.5 -141t-31.5 -141t-87.5 -95t-128 -34zM290 68q69 0 112.5 51t43.5 137t-43.5 137t-112.5 51t-112.5 -51t-43.5 -137t43.5 -137t112.5 -51zM327 585h-86l76 155h96z" />
    <glyph glyph-name="ocircumflex" unicode="&#xf4;" horiz-adv-x="580" 
d="M290 -14q-72 0 -128 34t-87.5 95t-31.5 141t31.5 141t87.5 95t128 34t128 -34t87.5 -95t31.5 -141t-31.5 -141t-87.5 -95t-128 -34zM290 68q69 0 112.5 51t43.5 137t-43.5 137t-112.5 51t-112.5 -51t-43.5 -137t43.5 -137t112.5 -51zM120 585l120 155h100l120 -155h-90
l-80 96l-80 -96h-90z" />
    <glyph glyph-name="otilde" unicode="&#xf5;" horiz-adv-x="580" 
d="M290 -14q-72 0 -128 34t-87.5 95t-31.5 141t31.5 141t87.5 95t128 34t128 -34t87.5 -95t31.5 -141t-31.5 -141t-87.5 -95t-128 -34zM290 68q69 0 112.5 51t43.5 137t-43.5 137t-112.5 51t-112.5 -51t-43.5 -137t43.5 -137t112.5 -51zM365 587q-21 0 -42 7.5t-50 26.5
q-19 13 -29.5 17.5t-20.5 4.5q-31 0 -31 -34v-20h-70v33q0 44 25.5 70t66.5 26q21 0 42.5 -7t49.5 -27q20 -14 30 -18t20 -4q31 0 31 34v20h70v-33q0 -43 -25.5 -69.5t-66.5 -26.5z" />
    <glyph glyph-name="odieresis" unicode="&#xf6;" horiz-adv-x="580" 
d="M290 -14q-72 0 -128 34t-87.5 95t-31.5 141t31.5 141t87.5 95t128 34t128 -34t87.5 -95t31.5 -141t-31.5 -141t-87.5 -95t-128 -34zM290 68q69 0 112.5 51t43.5 137t-43.5 137t-112.5 51t-112.5 -51t-43.5 -137t43.5 -137t112.5 -51zM382 603q-25 0 -41.5 16.5
t-16.5 40.5t16.5 40.5t41.5 16.5q24 0 41 -16.5t17 -40.5t-17 -40.5t-41 -16.5zM198 603q-24 0 -41 16.5t-17 40.5t17 40.5t41 16.5q25 0 41.5 -16.5t16.5 -40.5t-16.5 -40.5t-41.5 -16.5z" />
    <glyph glyph-name="divide" unicode="&#xf7;" 
d="M306 467q-24 0 -40 16.5t-16 39.5t16 39t40 16t40 -16t16 -39t-16 -39.5t-40 -16.5zM77 295v78h458v-78h-458zM306 90q-24 0 -40 16.5t-16 39.5q0 22 16 38.5t40 16.5t40 -16.5t16 -38.5q0 -23 -16 -39.5t-40 -16.5z" />
    <glyph glyph-name="oslash" unicode="&#xf8;" horiz-adv-x="580" 
d="M55 -48l65 101q-37 36 -57 88t-20 115q0 80 31.5 141t87 95t128.5 34q62 0 114 -26l38 60h83l-65 -101q37 -36 57 -88t20 -115q0 -80 -31.5 -141t-87.5 -95t-128 -34q-62 0 -114 26l-38 -60h-83zM133 256q0 -75 35 -126l191 299q-32 16 -69 16q-69 0 -113 -51.5
t-44 -137.5zM290 67q69 0 113 51.5t44 137.5q0 75 -35 126l-191 -299q32 -16 69 -16z" />
    <glyph glyph-name="ugrave" unicode="&#xf9;" horiz-adv-x="571" 
d="M407 207v305h89v-512h-87v68q-25 -39 -64 -60.5t-87 -21.5q-87 0 -137.5 58t-50.5 152v316h89v-305q0 -62 32.5 -100.5t88.5 -38.5q53 0 90 37t37 102zM247 585l-86 155h96l76 -155h-86z" />
    <glyph glyph-name="uacute" unicode="&#xfa;" horiz-adv-x="571" 
d="M407 207v305h89v-512h-87v68q-25 -39 -64 -60.5t-87 -21.5q-87 0 -137.5 58t-50.5 152v316h89v-305q0 -62 32.5 -100.5t88.5 -38.5q53 0 90 37t37 102zM321 585h-86l76 155h96z" />
    <glyph glyph-name="ucircumflex" unicode="&#xfb;" horiz-adv-x="571" 
d="M407 207v305h89v-512h-87v68q-25 -39 -64 -60.5t-87 -21.5q-87 0 -137.5 58t-50.5 152v316h89v-305q0 -62 32.5 -100.5t88.5 -38.5q53 0 90 37t37 102zM114 585l120 155h100l120 -155h-90l-80 96l-80 -96h-90z" />
    <glyph glyph-name="udieresis" unicode="&#xfc;" horiz-adv-x="571" 
d="M407 207v305h89v-512h-87v68q-25 -39 -64 -60.5t-87 -21.5q-87 0 -137.5 58t-50.5 152v316h89v-305q0 -62 32.5 -100.5t88.5 -38.5q53 0 90 37t37 102zM376 603q-25 0 -41.5 16.5t-16.5 40.5t16.5 40.5t41.5 16.5q24 0 41 -16.5t17 -40.5t-17 -40.5t-41 -16.5zM192 603
q-24 0 -41 16.5t-17 40.5t17 40.5t41 16.5q25 0 41.5 -16.5t16.5 -40.5t-16.5 -40.5t-41.5 -16.5z" />
    <glyph glyph-name="yacute" unicode="&#xfd;" horiz-adv-x="522" 
d="M131 -205l85 205l-203 512h101l150 -407l148 407h97l-283 -717h-95zM300 585h-86l76 155h96z" />
    <glyph glyph-name="thorn" unicode="&#xfe;" horiz-adv-x="604" 
d="M75 -205v930h89v-293q27 44 70 69t98 25q68 0 119.5 -34.5t80.5 -95t29 -140.5t-29 -140.5t-80.5 -95t-119.5 -34.5q-55 0 -98 25t-70 69v-285h-89zM316 68q68 0 111 51.5t43 136.5t-43 136.5t-111 51.5q-69 0 -112.5 -52t-43.5 -136t43.5 -136t112.5 -52z" />
    <glyph glyph-name="ydieresis" unicode="&#xff;" horiz-adv-x="522" 
d="M131 -205l85 205l-203 512h101l150 -407l148 407h97l-283 -717h-95zM355 603q-25 0 -41.5 16.5t-16.5 40.5t16.5 40.5t41.5 16.5q24 0 41 -16.5t17 -40.5t-17 -40.5t-41 -16.5zM171 603q-24 0 -41 16.5t-17 40.5t17 40.5t41 16.5q25 0 41.5 -16.5t16.5 -40.5t-16.5 -40.5
t-41.5 -16.5z" />
    <glyph glyph-name="Amacron" unicode="&#x100;" horiz-adv-x="689" 
d="M570 0l-73 187h-309l-72 -187h-98l278 696h96l279 -696h-101zM220 272h244l-122 316zM188 885h312v-76h-312v76z" />
    <glyph glyph-name="amacron" unicode="&#x101;" horiz-adv-x="535" 
d="M213 -14q-79 0 -127 42.5t-48 115.5q0 78 56.5 121.5t160.5 43.5h121v22q0 62 -31.5 88.5t-86.5 26.5q-46 0 -76 -18t-37 -44h-90q13 63 67.5 102.5t136.5 39.5q95 0 150.5 -49t55.5 -153v-324h-84v77q-27 -46 -73 -68.5t-95 -22.5zM233 64q33 0 66 15t55 44.5t22 74.5
v38h-115q-63 0 -98 -22t-35 -66q0 -41 29 -62.5t76 -21.5zM117 702h300v-75h-300v75z" />
    <glyph glyph-name="Abreve" unicode="&#x102;" horiz-adv-x="689" 
d="M570 0l-73 187h-309l-72 -187h-98l278 696h96l279 -696h-101zM220 272h244l-122 316zM344 766q-69 0 -116.5 40.5t-51.5 108.5h81q4 -35 27.5 -56.5t59.5 -21.5t59.5 21.5t27.5 56.5h81q-4 -68 -51.5 -108.5t-116.5 -40.5z" />
    <glyph glyph-name="abreve" unicode="&#x103;" horiz-adv-x="535" 
d="M213 -14q-79 0 -127 42.5t-48 115.5q0 78 56.5 121.5t160.5 43.5h121v22q0 62 -31.5 88.5t-86.5 26.5q-46 0 -76 -18t-37 -44h-90q13 63 67.5 102.5t136.5 39.5q95 0 150.5 -49t55.5 -153v-324h-84v77q-27 -46 -73 -68.5t-95 -22.5zM233 64q33 0 66 15t55 44.5t22 74.5
v38h-115q-63 0 -98 -22t-35 -66q0 -41 29 -62.5t76 -21.5zM267 582q-68 0 -113 41.5t-50 114.5h80q4 -40 26 -63t57 -23t57 23t26 63h80q-5 -73 -50 -114.5t-113 -41.5z" />
    <glyph glyph-name="Aogonek" unicode="&#x104;" horiz-adv-x="689" 
d="M570 0l-73 187h-309l-72 -187h-98l278 696h96l279 -696h-101zM220 272h244l-122 316zM627 -240q-61 0 -96.5 30t-35.5 78q0 95 127 155l40 -23q-50 -32 -68.5 -60t-18.5 -56t19.5 -43t49.5 -15h32v-66h-49z" />
    <glyph glyph-name="aogonek" unicode="&#x105;" horiz-adv-x="535" 
d="M213 -14q-79 0 -127 42.5t-48 115.5q0 78 56.5 121.5t160.5 43.5h121v22q0 62 -31.5 88.5t-86.5 26.5q-46 0 -76 -18t-37 -44h-90q13 63 67.5 102.5t136.5 39.5q95 0 150.5 -49t55.5 -153v-324h-84v77q-27 -46 -73 -68.5t-95 -22.5zM233 64q33 0 66 15t55 44.5t22 74.5
v38h-115q-63 0 -98 -22t-35 -66q0 -41 29 -62.5t76 -21.5zM429 -240q-61 0 -96.5 30t-35.5 78q0 95 127 155l40 -23q-50 -32 -68.5 -60t-18.5 -56t19.5 -43t49.5 -15h32v-66h-49z" />
    <glyph glyph-name="Cacute" unicode="&#x106;" horiz-adv-x="714" 
d="M49 348q0 106 41.5 188t115.5 128.5t169 46.5q123 0 196.5 -61.5t98.5 -166.5h-99q-17 65 -67 103t-129 38q-67 0 -119 -33.5t-81 -95.5t-29 -147q0 -84 29 -146t81 -96t119 -34q79 0 130 37t67 99h98q-24 -101 -98 -162t-197 -61q-95 0 -169 46.5t-115.5 128.5
t-41.5 188zM413 770h-88l88 147h99z" />
    <glyph glyph-name="cacute" unicode="&#x107;" horiz-adv-x="536" 
d="M287 -14q-73 0 -128 34t-85.5 95t-30.5 141q0 79 30.5 140t85.5 95.5t128 34.5q89 0 144 -48.5t67 -120.5h-93q-7 37 -37 62t-82 25q-67 0 -109.5 -51.5t-42.5 -136.5q0 -86 42.5 -137t109.5 -51q52 0 82.5 23.5t37.5 62.5h92q-8 -48 -35.5 -86t-72 -60t-103.5 -22z
M324 585h-86l76 155h96z" />
    <glyph glyph-name="Ccircumflex" unicode="&#x108;" horiz-adv-x="714" 
d="M49 348q0 106 41.5 188t115.5 128.5t169 46.5q123 0 196.5 -61.5t98.5 -166.5h-99q-17 65 -67 103t-129 38q-67 0 -119 -33.5t-81 -95.5t-29 -147q0 -84 29 -146t81 -96t119 -34q79 0 130 37t67 99h98q-24 -101 -98 -162t-197 -61q-95 0 -169 46.5t-115.5 128.5
t-41.5 188zM199 770l124 147h104l124 -147h-94l-82 89l-82 -89h-94z" />
    <glyph glyph-name="ccircumflex" unicode="&#x109;" horiz-adv-x="536" 
d="M287 -14q-73 0 -128 34t-85.5 95t-30.5 141q0 79 30.5 140t85.5 95.5t128 34.5q89 0 144 -48.5t67 -120.5h-93q-7 37 -37 62t-82 25q-67 0 -109.5 -51.5t-42.5 -136.5q0 -86 42.5 -137t109.5 -51q52 0 82.5 23.5t37.5 62.5h92q-8 -48 -35.5 -86t-72 -60t-103.5 -22z
M117 585l120 155h100l120 -155h-90l-80 96l-80 -96h-90z" />
    <glyph glyph-name="Cdotaccent" unicode="&#x10a;" horiz-adv-x="714" 
d="M49 348q0 106 41.5 188t115.5 128.5t169 46.5q123 0 196.5 -61.5t98.5 -166.5h-99q-17 65 -67 103t-129 38q-67 0 -119 -33.5t-81 -95.5t-29 -147q0 -84 29 -146t81 -96t119 -34q79 0 130 37t67 99h98q-24 -101 -98 -162t-197 -61q-95 0 -169 46.5t-115.5 128.5
t-41.5 188zM375 781q-26 0 -43.5 17.5t-17.5 43.5t17.5 43.5t43.5 17.5t43.5 -17.5t17.5 -43.5t-17.5 -43.5t-43.5 -17.5z" />
    <glyph glyph-name="cdotaccent" unicode="&#x10b;" horiz-adv-x="536" 
d="M287 -14q-73 0 -128 34t-85.5 95t-30.5 141q0 79 30.5 140t85.5 95.5t128 34.5q89 0 144 -48.5t67 -120.5h-93q-7 37 -37 62t-82 25q-67 0 -109.5 -51.5t-42.5 -136.5q0 -86 42.5 -137t109.5 -51q52 0 82.5 23.5t37.5 62.5h92q-8 -48 -35.5 -86t-72 -60t-103.5 -22z
M287 600q-26 0 -43.5 18t-17.5 43t17.5 43t43.5 18t43.5 -18t17.5 -43t-17.5 -43t-43.5 -18z" />
    <glyph glyph-name="Ccaron" unicode="&#x10c;" horiz-adv-x="714" 
d="M49 348q0 106 41.5 188t115.5 128.5t169 46.5q123 0 196.5 -61.5t98.5 -166.5h-99q-17 65 -67 103t-129 38q-67 0 -119 -33.5t-81 -95.5t-29 -147q0 -84 29 -146t81 -96t119 -34q79 0 130 37t67 99h98q-24 -101 -98 -162t-197 -61q-95 0 -169 46.5t-115.5 128.5
t-41.5 188zM323 770l-124 147h94l82 -89l82 89h94l-124 -147h-104z" />
    <glyph glyph-name="ccaron" unicode="&#x10d;" horiz-adv-x="536" 
d="M287 -14q-73 0 -128 34t-85.5 95t-30.5 141q0 79 30.5 140t85.5 95.5t128 34.5q89 0 144 -48.5t67 -120.5h-93q-7 37 -37 62t-82 25q-67 0 -109.5 -51.5t-42.5 -136.5q0 -86 42.5 -137t109.5 -51q52 0 82.5 23.5t37.5 62.5h92q-8 -48 -35.5 -86t-72 -60t-103.5 -22z
M237 585l-120 155h90l80 -96l80 96h90l-120 -155h-100z" />
    <glyph glyph-name="Dcaron" unicode="&#x10e;" horiz-adv-x="732" 
d="M90 0v696h251q97 0 174.5 -42.5t122.5 -121t45 -184.5t-45 -184.5t-122.5 -121t-174.5 -42.5h-251zM185 85h150q69 0 126 31t91 89.5t34 142.5t-34 142.5t-91 89.5t-126 31h-150v-526zM301 770l-124 147h94l82 -89l82 89h94l-124 -147h-104z" />
    <glyph glyph-name="dcaron" unicode="&#x10f;" horiz-adv-x="687" 
d="M272 -14q-68 0 -119.5 34.5t-80.5 95t-29 140.5t29 140.5t80.5 95t119.5 34.5q55 0 98 -25t70 -69v293h89v-725h-87v83q-27 -45 -70 -71t-100 -26zM288 68q69 0 112.5 52t43.5 136t-43.5 136t-112.5 52q-68 0 -111 -51.5t-43 -136.5t43 -136.5t111 -51.5zM602 500l6 225
h87l-23 -225h-70z" />
    <glyph glyph-name="Dcroat" unicode="&#x110;" horiz-adv-x="758" 
d="M116 0v326h-95v79h95v291h251q97 0 174.5 -42.5t122.5 -121t45 -184.5t-45 -184.5t-122.5 -121t-174.5 -42.5h-251zM211 85h150q69 0 126 31t91 89.5t34 142.5t-34 142.5t-91 89.5t-126 31h-150v-206h164v-79h-164v-241z" />
    <glyph glyph-name="dcroat" unicode="&#x111;" horiz-adv-x="614" 
d="M272 -14q-66 0 -117.5 33.5t-81.5 92t-30 134.5t30 135t81.5 92.5t117.5 33.5q55 0 97.5 -24.5t70.5 -67.5v158h-152v69h152v83h89v-83h77v-69h-77v-573h-87v80q-27 -43 -70.5 -68.5t-99.5 -25.5zM289 68q44 0 79.5 23t56 63t20.5 92q0 53 -20.5 93.5t-56 63t-79.5 22.5
t-79 -22.5t-55.5 -62.5t-20.5 -94q0 -52 20.5 -92.5t55.5 -63t79 -22.5z" />
    <glyph glyph-name="Emacron" unicode="&#x112;" horiz-adv-x="641" 
d="M90 0v696h483v-85h-388v-211h377v-85h-377v-230h393v-85h-488zM175 885h312v-76h-312v76z" />
    <glyph glyph-name="emacron" unicode="&#x113;" horiz-adv-x="557" 
d="M290 -14q-76 0 -131.5 33t-85.5 94t-30 144q0 77 29.5 138t84 96t130.5 35q73 0 123 -32.5t76 -90t26 -134.5v-42h-377q7 -78 47 -119.5t109 -41.5q45 0 76.5 15.5t41.5 40.5h92q-18 -62 -75 -99t-136 -37zM286 446q-63 0 -101.5 -38.5t-47.5 -106.5h285q-3 65 -36.5 105
t-99.5 40zM128 702h300v-75h-300v75z" />
    <glyph glyph-name="Ebreve" unicode="&#x114;" horiz-adv-x="641" 
d="M90 0v696h483v-85h-388v-211h377v-85h-377v-230h393v-85h-488zM331 766q-69 0 -116.5 40.5t-51.5 108.5h81q4 -35 27.5 -56.5t59.5 -21.5t59.5 21.5t27.5 56.5h81q-4 -68 -51.5 -108.5t-116.5 -40.5z" />
    <glyph glyph-name="ebreve" unicode="&#x115;" horiz-adv-x="557" 
d="M290 -14q-76 0 -131.5 33t-85.5 94t-30 144q0 77 29.5 138t84 96t130.5 35q73 0 123 -32.5t76 -90t26 -134.5v-42h-377q7 -78 47 -119.5t109 -41.5q45 0 76.5 15.5t41.5 40.5h92q-18 -62 -75 -99t-136 -37zM286 446q-63 0 -101.5 -38.5t-47.5 -106.5h285q-3 65 -36.5 105
t-99.5 40zM278 582q-68 0 -113 41.5t-50 114.5h80q4 -40 26 -63t57 -23t57 23t26 63h80q-5 -73 -50 -114.5t-113 -41.5z" />
    <glyph glyph-name="Edotaccent" unicode="&#x116;" horiz-adv-x="641" 
d="M90 0v696h483v-85h-388v-211h377v-85h-377v-230h393v-85h-488zM331 781q-26 0 -43.5 17.5t-17.5 43.5t17.5 43.5t43.5 17.5t43.5 -17.5t17.5 -43.5t-17.5 -43.5t-43.5 -17.5z" />
    <glyph glyph-name="edotaccent" unicode="&#x117;" horiz-adv-x="557" 
d="M290 -14q-76 0 -131.5 33t-85.5 94t-30 144q0 77 29.5 138t84 96t130.5 35q73 0 123 -32.5t76 -90t26 -134.5v-42h-377q7 -78 47 -119.5t109 -41.5q45 0 76.5 15.5t41.5 40.5h92q-18 -62 -75 -99t-136 -37zM286 446q-63 0 -101.5 -38.5t-47.5 -106.5h285q-3 65 -36.5 105
t-99.5 40zM278 600q-26 0 -43.5 18t-17.5 43t17.5 43t43.5 18t43.5 -18t17.5 -43t-17.5 -43t-43.5 -18z" />
    <glyph glyph-name="Eogonek" unicode="&#x118;" horiz-adv-x="641" 
d="M90 0v696h483v-85h-388v-211h377v-85h-377v-230h393v-85h-488zM533 -240q-61 0 -96.5 30t-35.5 78q0 95 127 155l40 -23q-50 -32 -68.5 -60t-18.5 -56t19.5 -43t49.5 -15h32v-66h-49z" />
    <glyph glyph-name="eogonek" unicode="&#x119;" horiz-adv-x="557" 
d="M290 -14q-76 0 -131.5 33t-85.5 94t-30 144q0 77 29.5 138t84 96t130.5 35q73 0 123 -32.5t76 -90t26 -134.5v-42h-377q7 -78 47 -119.5t109 -41.5q45 0 76.5 15.5t41.5 40.5h92q-18 -62 -75 -99t-136 -37zM286 446q-63 0 -101.5 -38.5t-47.5 -106.5h285q-3 65 -36.5 105
t-99.5 40zM366 -240q-61 0 -96.5 29t-35.5 79q0 30 14 58.5t49.5 59t98.5 66.5l38 -23q-53 -36 -79 -61.5t-34 -45t-8 -38.5q0 -29 20 -43.5t50 -14.5h32v-66h-49z" />
    <glyph glyph-name="Ecaron" unicode="&#x11a;" horiz-adv-x="641" 
d="M90 0v696h483v-85h-388v-211h377v-85h-377v-230h393v-85h-488zM279 770l-124 147h94l82 -89l82 89h94l-124 -147h-104z" />
    <glyph glyph-name="ecaron" unicode="&#x11b;" horiz-adv-x="557" 
d="M290 -14q-76 0 -131.5 33t-85.5 94t-30 144q0 77 29.5 138t84 96t130.5 35q73 0 123 -32.5t76 -90t26 -134.5v-42h-377q7 -78 47 -119.5t109 -41.5q45 0 76.5 15.5t41.5 40.5h92q-18 -62 -75 -99t-136 -37zM286 446q-63 0 -101.5 -38.5t-47.5 -106.5h285q-3 65 -36.5 105
t-99.5 40zM228 585l-120 155h90l80 -96l80 96h90l-120 -155h-100z" />
    <glyph glyph-name="Gcircumflex" unicode="&#x11c;" horiz-adv-x="750" 
d="M387 -15q-101 0 -177 47t-118.5 129t-42.5 187q0 106 43 188t119.5 128.5t174.5 46.5q110 0 188 -51.5t110 -143.5h-100q-22 48 -74 78t-124 30q-70 0 -124 -34t-85 -96t-31 -146t30.5 -146t85 -96t127.5 -34q63 0 111.5 26.5t76 72.5t27.5 105v18h-218v85h313v-87
q0 -88 -39 -157.5t-109 -109.5t-164 -40zM207 770l124 147h104l124 -147h-94l-82 89l-82 -89h-94z" />
    <glyph glyph-name="gcircumflex" unicode="&#x11d;" horiz-adv-x="604" 
d="M272 -3q-68 0 -119.5 34t-80.5 93.5t-29 136.5t29 137t80.5 94t119.5 34q57 0 100 -25.5t70 -69.5v81h87v-497q0 -111 -61 -172.5t-170 -61.5q-93 0 -154 41t-79 105h96q16 -28 49 -46t86 -18q70 0 107 36t37 111v80q-27 -43 -70 -68t-98 -25zM288 79q46 0 81 23.5
t55 64.5t20 95t-20 95t-55 64t-81 23q-45 0 -80 -23t-54.5 -64t-19.5 -95t19.5 -95t54.5 -64.5t80 -23.5zM124 585l120 155h100l120 -155h-90l-80 96l-80 -96h-90z" />
    <glyph glyph-name="Gbreve" unicode="&#x11e;" horiz-adv-x="750" 
d="M387 -15q-101 0 -177 47t-118.5 129t-42.5 187q0 106 43 188t119.5 128.5t174.5 46.5q110 0 188 -51.5t110 -143.5h-100q-22 48 -74 78t-124 30q-70 0 -124 -34t-85 -96t-31 -146t30.5 -146t85 -96t127.5 -34q63 0 111.5 26.5t76 72.5t27.5 105v18h-218v85h313v-87
q0 -88 -39 -157.5t-109 -109.5t-164 -40zM383 766q-69 0 -116.5 40.5t-51.5 108.5h81q4 -35 27.5 -56.5t59.5 -21.5t59.5 21.5t27.5 56.5h81q-4 -68 -51.5 -108.5t-116.5 -40.5z" />
    <glyph glyph-name="gbreve" unicode="&#x11f;" horiz-adv-x="604" 
d="M272 -3q-68 0 -119.5 34t-80.5 93.5t-29 136.5t29 137t80.5 94t119.5 34q57 0 100 -25.5t70 -69.5v81h87v-497q0 -111 -61 -172.5t-170 -61.5q-93 0 -154 41t-79 105h96q16 -28 49 -46t86 -18q70 0 107 36t37 111v80q-27 -43 -70 -68t-98 -25zM288 79q46 0 81 23.5
t55 64.5t20 95t-20 95t-55 64t-81 23q-45 0 -80 -23t-54.5 -64t-19.5 -95t19.5 -95t54.5 -64.5t80 -23.5zM294 582q-68 0 -113 41.5t-50 114.5h80q4 -40 26 -63t57 -23t57 23t26 63h80q-5 -73 -50 -114.5t-113 -41.5z" />
    <glyph glyph-name="Gdotaccent" unicode="&#x120;" horiz-adv-x="750" 
d="M387 -15q-101 0 -177 47t-118.5 129t-42.5 187q0 106 43 188t119.5 128.5t174.5 46.5q110 0 188 -51.5t110 -143.5h-100q-22 48 -74 78t-124 30q-70 0 -124 -34t-85 -96t-31 -146t30.5 -146t85 -96t127.5 -34q63 0 111.5 26.5t76 72.5t27.5 105v18h-218v85h313v-87
q0 -88 -39 -157.5t-109 -109.5t-164 -40zM383 781q-26 0 -43.5 17.5t-17.5 43.5t17.5 43.5t43.5 17.5t43.5 -17.5t17.5 -43.5t-17.5 -43.5t-43.5 -17.5z" />
    <glyph glyph-name="gdotaccent" unicode="&#x121;" horiz-adv-x="604" 
d="M272 -3q-68 0 -119.5 34t-80.5 93.5t-29 136.5t29 137t80.5 94t119.5 34q57 0 100 -25.5t70 -69.5v81h87v-497q0 -111 -61 -172.5t-170 -61.5q-93 0 -154 41t-79 105h96q16 -28 49 -46t86 -18q70 0 107 36t37 111v80q-27 -43 -70 -68t-98 -25zM288 79q46 0 81 23.5
t55 64.5t20 95t-20 95t-55 64t-81 23q-45 0 -80 -23t-54.5 -64t-19.5 -95t19.5 -95t54.5 -64.5t80 -23.5zM294 600q-26 0 -43.5 18t-17.5 43t17.5 43t43.5 18t43.5 -18t17.5 -43t-17.5 -43t-43.5 -18z" />
    <glyph glyph-name="uni0122" unicode="&#x122;" horiz-adv-x="750" 
d="M387 -15q-101 0 -177 47t-118.5 129t-42.5 187q0 106 43 188t119.5 128.5t174.5 46.5q110 0 188 -51.5t110 -143.5h-100q-22 48 -74 78t-124 30q-70 0 -124 -34t-85 -96t-31 -146t30.5 -146t85 -96t127.5 -34q63 0 111.5 26.5t76 72.5t27.5 105v18h-218v85h313v-87
q0 -88 -39 -157.5t-109 -109.5t-164 -40zM324 -255q22 32 33.5 52.5t20.5 46.5q-24 2 -38 16t-14 35q0 23 16 38.5t43 15.5q30 0 47.5 -18.5t17.5 -46.5q0 -30 -13 -62.5t-44 -76.5h-69z" />
    <glyph glyph-name="uni0123" unicode="&#x123;" horiz-adv-x="604" 
d="M272 -3q-68 0 -119.5 34t-80.5 93.5t-29 136.5t29 137t80.5 94t119.5 34q57 0 100 -25.5t70 -69.5v81h87v-497q0 -111 -61 -172.5t-170 -61.5q-93 0 -154 41t-79 105h96q16 -28 49 -46t86 -18q70 0 107 36t37 111v80q-27 -43 -70 -68t-98 -25zM288 79q46 0 81 23.5
t55 64.5t20 95t-20 95t-55 64t-81 23q-45 0 -80 -23t-54.5 -64t-19.5 -95t19.5 -95t54.5 -64.5t80 -23.5zM296 571q-31 0 -48 18t-17 46q0 31 14.5 68t47.5 83h70q-24 -33 -37 -57.5t-23 -52.5q24 -2 38 -16t14 -36t-16 -37.5t-43 -15.5z" />
    <glyph glyph-name="Hcircumflex" unicode="&#x124;" horiz-adv-x="767" 
d="M90 0v696h95v-288h397v288h95v-696h-95v323h-397v-323h-95zM208 770l124 147h104l124 -147h-94l-82 89l-82 -89h-94z" />
    <glyph glyph-name="hcircumflex" unicode="&#x125;" horiz-adv-x="575" 
d="M75 0v725h89v-280q27 39 68.5 60t90.5 21q57 0 97.5 -27t62.5 -74t22 -108v-317h-89v300q0 67 -30 105.5t-88 38.5q-36 0 -66.5 -16.5t-49 -48t-18.5 -76.5v-303h-89zM-56 770l124 147h104l124 -147h-94l-82 89l-82 -89h-94z" />
    <glyph glyph-name="Hbar" unicode="&#x126;" horiz-adv-x="807" 
d="M110 0v510h-80v76h80v110h95v-110h397v110h95v-110h80v-76h-80v-510h-95v312h-397v-312h-95zM205 397h397v113h-397v-113z" />
    <glyph glyph-name="hbar" unicode="&#x127;" horiz-adv-x="585" 
d="M85 0v572h-77v71h77v82h89v-82h152v-71h-152v-146q27 39 68.5 60t90.5 21q57 0 97.5 -27t62.5 -74t22 -108v-298h-89v281q0 67 -30 105.5t-88 38.5q-36 0 -66.5 -16.5t-49 -48t-18.5 -76.5v-284h-89z" />
    <glyph glyph-name="Itilde" unicode="&#x128;" horiz-adv-x="275" 
d="M185 0h-95v696h95v-696zM214 769q-19 0 -40.5 6t-48.5 24q-20 13 -32 19t-24 6q-34 0 -34 -34v-19h-72v33q0 44 27 70.5t70 26.5q19 0 40.5 -6t48.5 -24q20 -13 32 -19t24 -6q34 0 34 33v20h72v-33q0 -44 -27 -70.5t-70 -26.5z" />
    <glyph glyph-name="itilde" unicode="&#x129;" horiz-adv-x="239" 
d="M75 0v512h89v-512h-89zM186 587q-21 0 -38 6.5t-44 27.5q-16 12 -24.5 17t-18.5 5q-23 0 -23 -29v-25h-71v33q0 44 23.5 70t63.5 26q21 0 38 -6.5t44 -27.5q16 -12 24.5 -17t18.5 -5q23 0 23 29v25h71v-33q0 -43 -23.5 -69.5t-63.5 -26.5z" />
    <glyph glyph-name="Imacron" unicode="&#x12a;" horiz-adv-x="275" 
d="M185 0h-95v696h95v-696zM-19 885h312v-76h-312v76z" />
    <glyph glyph-name="imacron" unicode="&#x12b;" horiz-adv-x="239" 
d="M75 0v512h89v-512h-89zM-30 702h300v-75h-300v75z" />
    <glyph glyph-name="Ibreve" unicode="&#x12c;" horiz-adv-x="275" 
d="M185 0h-95v696h95v-696zM137 766q-69 0 -116.5 40.5t-51.5 108.5h81q4 -35 27.5 -56.5t59.5 -21.5t59.5 21.5t27.5 56.5h81q-4 -68 -51.5 -108.5t-116.5 -40.5z" />
    <glyph glyph-name="ibreve" unicode="&#x12d;" horiz-adv-x="239" 
d="M75 0v512h89v-512h-89zM120 582q-68 0 -109.5 41.5t-44.5 114.5h81q4 -40 21.5 -63t51.5 -23t51.5 23t21.5 63h81q-3 -73 -44.5 -114.5t-109.5 -41.5z" />
    <glyph glyph-name="Iogonek" unicode="&#x12e;" horiz-adv-x="275" 
d="M185 0h-95v696h95v-696zM145 -240q-61 0 -96.5 30t-35.5 78q0 95 127 155l40 -23q-50 -32 -68.5 -60t-18.5 -56t19.5 -43t49.5 -15h32v-66h-49z" />
    <glyph glyph-name="iogonek" unicode="&#x12f;" horiz-adv-x="239" 
d="M120 586q-26 0 -44 18t-18 44t18 44t44 18t44 -18t18 -44t-18 -44t-44 -18zM75 0v512h89v-512h-89zM126 -240q-61 0 -96.5 30t-35.5 78q0 95 127 155l40 -23q-50 -32 -68.5 -60t-18.5 -56t19.5 -43t49.5 -15h32v-66h-49z" />
    <glyph glyph-name="Idotaccent" unicode="&#x130;" horiz-adv-x="275" 
d="M185 0h-95v696h95v-696zM137 781q-26 0 -43.5 17.5t-17.5 43.5t17.5 43.5t43.5 17.5t43.5 -17.5t17.5 -43.5t-17.5 -43.5t-43.5 -17.5z" />
    <glyph glyph-name="dotlessi" unicode="&#x131;" horiz-adv-x="239" 
d="M75 0v512h89v-512h-89z" />
    <glyph glyph-name="IJ" unicode="&#x132;" horiz-adv-x="711" 
d="M356 -15q-74 0 -133.5 27.5t-97 77.5t-45.5 120h99q9 -62 55 -100t122 -38q51 0 91.5 19.5t64.5 61t24 108.5v435h95v-440q0 -90 -37.5 -150.5t-99.5 -90.5t-138 -30zM81 328v368h95v-368h-95z" />
    <glyph glyph-name="ij" unicode="&#x133;" horiz-adv-x="478" 
d="M120 586q-26 0 -44 18t-18 44t18 44t44 18t44 -18t18 -44t-18 -44t-44 -18zM75 0v512h89v-512h-89zM359 586q-26 0 -44 18t-18 44t18 44t44 18t44 -18t18 -44t-18 -44t-44 -18zM211 -205v80h27q38 0 57 25t19 68v544h89v-553q0 -78 -38 -121t-111 -43h-43z" />
    <glyph glyph-name="Jcircumflex" unicode="&#x134;" horiz-adv-x="605" 
d="M430 217v479h95v-480q0 -68 -29 -120t-82.5 -81.5t-128.5 -29.5q-109 0 -177 60t-79 158h95q8 -61 51 -96t110 -35q65 0 105 40t40 105zM302 770l124 147h104l124 -147h-94l-82 89l-82 -89h-94z" />
    <glyph glyph-name="jcircumflex" unicode="&#x135;" horiz-adv-x="239" 
d="M-28 -205v80h27q38 0 57 25t19 68v544h89v-553q0 -78 -38 -121t-111 -43h-43zM-35 585l105 155h100l105 -155h-90l-65 90l-65 -90h-90z" />
    <glyph glyph-name="uni0136" unicode="&#x136;" horiz-adv-x="660" 
d="M90 0v696h95v-299l325 299h122l-367 -335l384 -361h-130l-334 314v-314h-95zM288 -255q22 32 33.5 52.5t20.5 46.5q-24 2 -38 16t-14 35q0 23 16 38.5t43 15.5q30 0 47.5 -18.5t17.5 -46.5q0 -30 -13 -62.5t-44 -76.5h-69z" />
    <glyph glyph-name="uni0137" unicode="&#x137;" horiz-adv-x="532" 
d="M75 0v725h89v-427l225 214h113l-255 -242l277 -270h-117l-243 241v-241h-89zM218 -255q22 32 33.5 52.5t20.5 46.5q-24 2 -38 16t-14 35q0 23 16 38.5t43 15.5q30 0 47.5 -18.5t17.5 -46.5q0 -30 -13 -62.5t-44 -76.5h-69z" />
    <glyph glyph-name="kgreenlandic" unicode="&#x138;" horiz-adv-x="532" 
d="M75 0v512h89v-224l225 224h113l-255 -251l277 -261h-117l-243 231v-231h-89z" />
    <glyph glyph-name="Lacute" unicode="&#x139;" horiz-adv-x="602" 
d="M562 85v-85h-472v696h95v-611h377zM175 770h-88l88 147h99z" />
    <glyph glyph-name="lacute" unicode="&#x13a;" horiz-adv-x="239" 
d="M75 0v725h89v-725h-89zM158 780h-88l88 147h99z" />
    <glyph glyph-name="uni013B" unicode="&#x13b;" horiz-adv-x="602" 
d="M562 85v-85h-472v696h95v-611h377zM266 -255q22 32 33.5 52.5t20.5 46.5q-24 2 -38 16t-14 35q0 23 16 38.5t43 15.5q30 0 47.5 -18.5t17.5 -46.5q0 -30 -13 -62.5t-44 -76.5h-69z" />
    <glyph glyph-name="uni013C" unicode="&#x13c;" horiz-adv-x="239" 
d="M75 0v725h89v-725h-89zM57 -255q22 32 33.5 52.5t20.5 46.5q-24 2 -38 16t-14 35q0 23 16 38.5t43 15.5q30 0 47.5 -18.5t17.5 -46.5q0 -30 -13 -62.5t-44 -76.5h-69z" />
    <glyph glyph-name="Lcaron" unicode="&#x13d;" horiz-adv-x="602" 
d="M562 85v-85h-472v696h95v-611h377zM292 471l6 225h87l-23 -225h-70z" />
    <glyph glyph-name="lcaron" unicode="&#x13e;" horiz-adv-x="322" 
d="M75 0v725h89v-725h-89zM237 500l6 225h87l-23 -225h-70z" />
    <glyph glyph-name="Ldot" unicode="&#x13f;" horiz-adv-x="602" 
d="M562 85v-85h-472v696h95v-611h377zM428 300q-27 0 -46.5 19t-19.5 47t19.5 47t46.5 19t46.5 -19t19.5 -47t-19.5 -47t-46.5 -19z" />
    <glyph glyph-name="ldot" unicode="&#x140;" horiz-adv-x="389" 
d="M75 0v725h89v-725h-89zM310 300q-27 0 -46.5 19t-19.5 47t19.5 47t46.5 19t46.5 -19t19.5 -47t-19.5 -47t-46.5 -19z" />
    <glyph glyph-name="Lslash" unicode="&#x141;" horiz-adv-x="626" 
d="M114 0v301l-96 -53v87l96 53v308h95v-256l175 96v-87l-175 -96v-268h377v-85h-472z" />
    <glyph glyph-name="lslash" unicode="&#x142;" horiz-adv-x="277" 
d="M94 0v317l-87 -56v81l87 56v327h89v-271l87 56v-81l-87 -56v-373h-89z" />
    <glyph glyph-name="Nacute" unicode="&#x143;" horiz-adv-x="765" 
d="M90 0v696h94l397 -546v546h94v-696h-94l-397 546v-546h-94zM420 770h-88l88 147h99z" />
    <glyph glyph-name="nacute" unicode="&#x144;" horiz-adv-x="575" 
d="M164 303v-303h-89v512h87v-69q27 40 69 61.5t92 21.5q57 0 97.5 -27t62.5 -74t22 -108v-317h-89v300q0 67 -30 105.5t-88 38.5q-36 0 -66.5 -16.5t-49 -48t-18.5 -76.5zM328 585h-86l76 155h96z" />
    <glyph glyph-name="uni0145" unicode="&#x145;" horiz-adv-x="765" 
d="M90 0v696h94l397 -546v546h94v-696h-94l-397 546v-546h-94zM319 -255q22 32 33.5 52.5t20.5 46.5q-24 2 -38 16t-14 35q0 23 16 38.5t43 15.5q30 0 47.5 -18.5t17.5 -46.5q0 -30 -13 -62.5t-44 -76.5h-69z" />
    <glyph glyph-name="uni0146" unicode="&#x146;" horiz-adv-x="575" 
d="M164 303v-303h-89v512h87v-69q27 40 69 61.5t92 21.5q57 0 97.5 -27t62.5 -74t22 -108v-317h-89v300q0 67 -30 105.5t-88 38.5q-36 0 -66.5 -16.5t-49 -48t-18.5 -76.5zM228 -255q22 32 33.5 52.5t20.5 46.5q-24 2 -38 16t-14 35q0 23 16 38.5t43 15.5q30 0 47.5 -18.5
t17.5 -46.5q0 -30 -13 -62.5t-44 -76.5h-69z" />
    <glyph glyph-name="Ncaron" unicode="&#x147;" horiz-adv-x="765" 
d="M90 0v696h94l397 -546v546h94v-696h-94l-397 546v-546h-94zM330 770l-124 147h94l82 -89l82 89h94l-124 -147h-104z" />
    <glyph glyph-name="ncaron" unicode="&#x148;" horiz-adv-x="575" 
d="M164 303v-303h-89v512h87v-69q27 40 69 61.5t92 21.5q57 0 97.5 -27t62.5 -74t22 -108v-317h-89v300q0 67 -30 105.5t-88 38.5q-36 0 -66.5 -16.5t-49 -48t-18.5 -76.5zM241 585l-120 155h90l80 -96l80 96h90l-120 -155h-100z" />
    <glyph glyph-name="napostrophe" unicode="&#x149;" horiz-adv-x="727" 
d="M44 460q35 53 52 85t24 61q-25 3 -40 18.5t-15 38.5q0 24 17.5 42.5t46.5 18.5q31 0 50 -20.5t19 -54.5q0 -41 -17 -84t-58 -105h-79zM316 303v-303h-89v512h87v-69q27 40 69 61.5t92 21.5q57 0 97.5 -27t62.5 -74t22 -108v-317h-89v300q0 67 -30 105.5t-88 38.5
q-36 0 -66.5 -16.5t-49 -48t-18.5 -76.5z" />
    <glyph glyph-name="Eng" unicode="&#x14a;" horiz-adv-x="755" 
d="M90 0v696h92v-115q36 62 96.5 96t134.5 34q84 0 142.5 -39t89 -106.5t30.5 -150.5v-256q0 -80 -40 -121.5t-112 -41.5h-52v80h33q38 0 57 23t19 62v239q0 104 -47.5 164t-140.5 60q-57 0 -104 -25.5t-75 -75t-28 -121.5v-402h-95z" />
    <glyph glyph-name="eng" unicode="&#x14b;" horiz-adv-x="575" 
d="M312 -205v80h27q39 0 58 25t19 68v332q0 67 -30 105.5t-88 38.5q-36 0 -66.5 -16.5t-49 -48t-18.5 -76.5v-303h-89v512h87v-69q27 40 69 61.5t92 21.5q57 0 97.5 -27t62.5 -74t22 -108v-358q0 -78 -38.5 -121t-111.5 -43h-43z" />
    <glyph glyph-name="Omacron" unicode="&#x14c;" horiz-adv-x="786" 
d="M393 -15q-75 0 -138 27t-109 76t-71.5 115t-25.5 145t25.5 145t71.5 115t109 76t138 27t138 -27t109 -76t71.5 -115t25.5 -145t-25.5 -145t-71.5 -115t-109 -76t-138 -27zM393 72q72 0 127.5 35t87.5 97.5t32 143.5t-32 143.5t-87.5 97.5t-127.5 35t-127.5 -35
t-87.5 -97.5t-32 -143.5t32 -143.5t87.5 -97.5t127.5 -35zM237 885h312v-76h-312v76z" />
    <glyph glyph-name="omacron" unicode="&#x14d;" horiz-adv-x="580" 
d="M290 -14q-72 0 -128 34t-87.5 95t-31.5 141t31.5 141t87.5 95t128 34t128 -34t87.5 -95t31.5 -141t-31.5 -141t-87.5 -95t-128 -34zM290 68q69 0 112.5 51t43.5 137t-43.5 137t-112.5 51t-112.5 -51t-43.5 -137t43.5 -137t112.5 -51zM140 702h300v-75h-300v75z" />
    <glyph glyph-name="Obreve" unicode="&#x14e;" horiz-adv-x="786" 
d="M393 -15q-75 0 -138 27t-109 76t-71.5 115t-25.5 145t25.5 145t71.5 115t109 76t138 27t138 -27t109 -76t71.5 -115t25.5 -145t-25.5 -145t-71.5 -115t-109 -76t-138 -27zM393 72q72 0 127.5 35t87.5 97.5t32 143.5t-32 143.5t-87.5 97.5t-127.5 35t-127.5 -35
t-87.5 -97.5t-32 -143.5t32 -143.5t87.5 -97.5t127.5 -35zM393 766q-69 0 -116.5 40.5t-51.5 108.5h81q4 -35 27.5 -56.5t59.5 -21.5t59.5 21.5t27.5 56.5h81q-4 -68 -51.5 -108.5t-116.5 -40.5z" />
    <glyph glyph-name="obreve" unicode="&#x14f;" horiz-adv-x="580" 
d="M290 -14q-72 0 -128 34t-87.5 95t-31.5 141t31.5 141t87.5 95t128 34t128 -34t87.5 -95t31.5 -141t-31.5 -141t-87.5 -95t-128 -34zM290 68q69 0 112.5 51t43.5 137t-43.5 137t-112.5 51t-112.5 -51t-43.5 -137t43.5 -137t112.5 -51zM290 582q-68 0 -113 41.5t-50 114.5
h80q4 -40 26 -63t57 -23t57 23t26 63h80q-5 -73 -50 -114.5t-113 -41.5z" />
    <glyph glyph-name="Ohungarumlaut" unicode="&#x150;" horiz-adv-x="786" 
d="M393 -15q-75 0 -138 27t-109 76t-71.5 115t-25.5 145t25.5 145t71.5 115t109 76t138 27t138 -27t109 -76t71.5 -115t25.5 -145t-25.5 -145t-71.5 -115t-109 -76t-138 -27zM393 72q72 0 127.5 35t87.5 97.5t32 143.5t-32 143.5t-87.5 97.5t-127.5 35t-127.5 -35
t-87.5 -97.5t-32 -143.5t32 -143.5t87.5 -97.5t127.5 -35zM352 770h-84l87 147h95zM519 770h-84l97 147h95z" />
    <glyph glyph-name="ohungarumlaut" unicode="&#x151;" horiz-adv-x="580" 
d="M290 -14q-72 0 -128 34t-87.5 95t-31.5 141t31.5 141t87.5 95t128 34t128 -34t87.5 -95t31.5 -141t-31.5 -141t-87.5 -95t-128 -34zM290 68q69 0 112.5 51t43.5 137t-43.5 137t-112.5 51t-112.5 -51t-43.5 -137t43.5 -137t112.5 -51zM332 585l85 155h92l-95 -155h-82z
M167 585l75 155h92l-85 -155h-82z" />
    <glyph glyph-name="OE" unicode="&#x152;" horiz-adv-x="1188" 
d="M383 -15q-72 0 -132.5 27t-106 76t-70.5 115t-25 145t25 145t70.5 115t106 76t132.5 27q90 0 151.5 -36.5t102.5 -97.5v119h483v-85h-388v-211h377v-85h-377v-230h393v-85h-488v119q-41 -61 -102.5 -97.5t-151.5 -36.5zM392 72q72 0 128 35t88 97.5t32 143.5t-32 143.5
t-88 97.5t-128 35t-127.5 -35t-87 -97.5t-31.5 -143.5t31.5 -143.5t87 -97.5t127.5 -35z" />
    <glyph glyph-name="oe" unicode="&#x153;" horiz-adv-x="959" 
d="M290 -14q-72 0 -128 34t-87.5 95t-31.5 141t31.5 141t87.5 95t128 34q66 0 117 -32.5t81 -85.5q28 55 80 86.5t121 31.5q73 0 123 -32.5t76 -90t26 -134.5v-42h-377q7 -79 47 -120t108 -41q46 0 77.5 15.5t41.5 40.5h92q-18 -62 -75.5 -99t-136.5 -37q-70 0 -122 31
t-82 89q-29 -56 -80.5 -88t-116.5 -32zM688 446q-63 0 -101.5 -39t-47.5 -107h285q-2 65 -36 105.5t-100 40.5zM290 68q68 0 111.5 51t43.5 137t-43.5 137t-111.5 51q-69 0 -112.5 -51t-43.5 -137t43.5 -137t112.5 -51z" />
    <glyph glyph-name="Racute" unicode="&#x154;" horiz-adv-x="681" 
d="M90 0v696h262q133 0 201.5 -57t68.5 -158q0 -81 -43.5 -132.5t-110.5 -72.5l185 -276h-113l-173 261h-182v-261h-95zM185 346h156q94 0 139 35.5t45 100.5q0 64 -45 96.5t-139 32.5h-156v-265zM375 770h-88l88 147h99z" />
    <glyph glyph-name="racute" unicode="&#x155;" horiz-adv-x="355" 
d="M164 259v-259h-89v512h87v-91q24 45 63 69.5t87 24.5h16v-86h-18q-39 0 -72.5 -19t-53.5 -57t-20 -94zM239 585h-86l76 155h96z" />
    <glyph glyph-name="uni0156" unicode="&#x156;" horiz-adv-x="681" 
d="M90 0v696h262q133 0 201.5 -57t68.5 -158q0 -81 -43.5 -132.5t-110.5 -72.5l185 -276h-113l-173 261h-182v-261h-95zM185 346h156q94 0 139 35.5t45 100.5q0 64 -45 96.5t-139 32.5h-156v-265zM294 -255q22 32 33.5 52.5t20.5 46.5q-24 2 -38 16t-14 35q0 23 16 38.5
t43 15.5q30 0 47.5 -18.5t17.5 -46.5q0 -30 -13 -62.5t-44 -76.5h-69z" />
    <glyph glyph-name="uni0157" unicode="&#x157;" horiz-adv-x="355" 
d="M164 259v-259h-89v512h87v-91q24 45 63 69.5t87 24.5h16v-86h-18q-39 0 -72.5 -19t-53.5 -57t-20 -94zM57 -255q22 32 33.5 52.5t20.5 46.5q-24 2 -38 16t-14 35q0 23 16 38.5t43 15.5q30 0 47.5 -18.5t17.5 -46.5q0 -30 -13 -62.5t-44 -76.5h-69z" />
    <glyph glyph-name="Rcaron" unicode="&#x158;" horiz-adv-x="681" 
d="M90 0v696h262q133 0 201.5 -57t68.5 -158q0 -81 -43.5 -132.5t-110.5 -72.5l185 -276h-113l-173 261h-182v-261h-95zM185 346h156q94 0 139 35.5t45 100.5q0 64 -45 96.5t-139 32.5h-156v-265zM285 770l-124 147h94l82 -89l82 89h94l-124 -147h-104z" />
    <glyph glyph-name="rcaron" unicode="&#x159;" horiz-adv-x="355" 
d="M164 259v-259h-89v512h87v-91q24 45 63 69.5t87 24.5h16v-86h-18q-39 0 -72.5 -19t-53.5 -57t-20 -94zM152 585l-120 155h90l80 -96l80 96h90l-120 -155h-100z" />
    <glyph glyph-name="Sacute" unicode="&#x15a;" horiz-adv-x="635" 
d="M324 -15q-112 0 -187.5 52t-98.5 146h97q17 -52 66 -81.5t122 -29.5q71 0 119 29.5t48 85.5q0 31 -13 54.5t-46 40t-95 25.5l-83 13q-101 16 -149 60t-48 128q0 62 34.5 107.5t93 70.5t130.5 25q66 0 121.5 -21t92.5 -62.5t49 -105.5h-97q-13 54 -56.5 78t-108.5 24
q-73 0 -117.5 -29.5t-44.5 -81.5q0 -45 31 -70t118 -38l78 -12q106 -17 156.5 -66t50.5 -134q0 -65 -34 -112t-93.5 -71.5t-135.5 -24.5zM352 770h-88l88 147h99z" />
    <glyph glyph-name="sacute" unicode="&#x15b;" horiz-adv-x="493" 
d="M256 -15q-90 0 -148 42.5t-70 107.5h90q8 -29 41.5 -50t84.5 -21q50 0 80 20.5t30 56.5q0 29 -21 47.5t-72 25.5l-78 10q-145 18 -145 142q0 46 25.5 82.5t70 57t101.5 20.5q83 0 135 -40t66 -102h-89q-10 31 -38.5 47t-71.5 16q-49 0 -78.5 -21.5t-29.5 -56.5
q0 -29 21 -44t69 -21l78 -10q73 -9 110.5 -50t37.5 -100q0 -48 -26 -84t-71.5 -55.5t-101.5 -19.5zM282 585h-86l76 155h96z" />
    <glyph glyph-name="Scircumflex" unicode="&#x15c;" horiz-adv-x="635" 
d="M324 -15q-112 0 -187.5 52t-98.5 146h97q17 -52 66 -81.5t122 -29.5q71 0 119 29.5t48 85.5q0 31 -13 54.5t-46 40t-95 25.5l-83 13q-101 16 -149 60t-48 128q0 62 34.5 107.5t93 70.5t130.5 25q66 0 121.5 -21t92.5 -62.5t49 -105.5h-97q-13 54 -56.5 78t-108.5 24
q-73 0 -117.5 -29.5t-44.5 -81.5q0 -45 31 -70t118 -38l78 -12q106 -17 156.5 -66t50.5 -134q0 -65 -34 -112t-93.5 -71.5t-135.5 -24.5zM138 770l124 147h104l124 -147h-94l-82 89l-82 -89h-94z" />
    <glyph glyph-name="scircumflex" unicode="&#x15d;" horiz-adv-x="493" 
d="M256 -15q-90 0 -148 42.5t-70 107.5h90q8 -29 41.5 -50t84.5 -21q50 0 80 20.5t30 56.5q0 29 -21 47.5t-72 25.5l-78 10q-145 18 -145 142q0 46 25.5 82.5t70 57t101.5 20.5q83 0 135 -40t66 -102h-89q-10 31 -38.5 47t-71.5 16q-49 0 -78.5 -21.5t-29.5 -56.5
q0 -29 21 -44t69 -21l78 -10q73 -9 110.5 -50t37.5 -100q0 -48 -26 -84t-71.5 -55.5t-101.5 -19.5zM75 585l120 155h100l120 -155h-90l-80 96l-80 -96h-90z" />
    <glyph glyph-name="Scedilla" unicode="&#x15e;" horiz-adv-x="635" 
d="M324 -15q-112 0 -187.5 52t-98.5 146h97q17 -52 66 -81.5t122 -29.5q71 0 119 29.5t48 85.5q0 31 -13 54.5t-46 40t-95 25.5l-83 13q-101 16 -149 60t-48 128q0 62 34.5 107.5t93 70.5t130.5 25q66 0 121.5 -21t92.5 -62.5t49 -105.5h-97q-13 54 -56.5 78t-108.5 24
q-73 0 -117.5 -29.5t-44.5 -81.5q0 -45 31 -70t118 -38l78 -12q106 -17 156.5 -66t50.5 -134q0 -65 -34 -112t-93.5 -71.5t-135.5 -24.5zM245 -240v62h48q28 0 43.5 8.5t15.5 27.5q0 35 -53 35h-41l43 126h62l-28 -71q41 -1 67.5 -26t26.5 -66q0 -45 -31.5 -70.5
t-85.5 -25.5h-67z" />
    <glyph glyph-name="scedilla" unicode="&#x15f;" horiz-adv-x="493" 
d="M256 -15q-90 0 -148 42.5t-70 107.5h90q8 -29 41.5 -50t84.5 -21q50 0 80 20.5t30 56.5q0 29 -21 47.5t-72 25.5l-78 10q-145 18 -145 142q0 46 25.5 82.5t70 57t101.5 20.5q83 0 135 -40t66 -102h-89q-10 31 -38.5 47t-71.5 16q-49 0 -78.5 -21.5t-29.5 -56.5
q0 -29 21 -44t69 -21l78 -10q73 -9 110.5 -50t37.5 -100q0 -48 -26 -84t-71.5 -55.5t-101.5 -19.5zM177 -240v62h48q28 0 43.5 8.5t15.5 27.5q0 35 -54 35h-40l44 134h63l-30 -79q41 -1 67.5 -26t26.5 -66q0 -45 -31.5 -70.5t-85.5 -25.5h-67z" />
    <glyph glyph-name="Scaron" unicode="&#x160;" horiz-adv-x="635" 
d="M324 -15q-112 0 -187.5 52t-98.5 146h97q17 -52 66 -81.5t122 -29.5q71 0 119 29.5t48 85.5q0 31 -13 54.5t-46 40t-95 25.5l-83 13q-101 16 -149 60t-48 128q0 62 34.5 107.5t93 70.5t130.5 25q66 0 121.5 -21t92.5 -62.5t49 -105.5h-97q-13 54 -56.5 78t-108.5 24
q-73 0 -117.5 -29.5t-44.5 -81.5q0 -45 31 -70t118 -38l78 -12q106 -17 156.5 -66t50.5 -134q0 -65 -34 -112t-93.5 -71.5t-135.5 -24.5zM262 770l-124 147h94l82 -89l82 89h94l-124 -147h-104z" />
    <glyph glyph-name="scaron" unicode="&#x161;" horiz-adv-x="493" 
d="M256 -15q-90 0 -148 42.5t-70 107.5h90q8 -29 41.5 -50t84.5 -21q50 0 80 20.5t30 56.5q0 29 -21 47.5t-72 25.5l-78 10q-145 18 -145 142q0 46 25.5 82.5t70 57t101.5 20.5q83 0 135 -40t66 -102h-89q-10 31 -38.5 47t-71.5 16q-49 0 -78.5 -21.5t-29.5 -56.5
q0 -29 21 -44t69 -21l78 -10q73 -9 110.5 -50t37.5 -100q0 -48 -26 -84t-71.5 -55.5t-101.5 -19.5zM195 585l-120 155h90l80 -96l80 96h90l-120 -155h-100z" />
    <glyph glyph-name="uni0162" unicode="&#x162;" horiz-adv-x="669" 
d="M382 0h-95v611h-247v85h589v-85h-247v-611zM255 -240v62h48q28 0 43.5 8.5t15.5 27.5q0 35 -53 35h-41l43 126h62l-28 -71q41 -1 67.5 -26t26.5 -66q0 -45 -31.5 -70.5t-85.5 -25.5h-67z" />
    <glyph glyph-name="uni0163" unicode="&#x163;" horiz-adv-x="342" 
d="M259 -4q-73 0 -112 40.5t-39 118.5v277h-91v80h91v163q44 3 89 17v-180h112v-80h-112v-269q0 -42 20.5 -64.5t57.5 -22.5h34v-80h-50zM127 -240v62h48q28 0 43.5 8.5t15.5 27.5q0 35 -54 35h-40l44 134h63l-30 -79q41 -1 67.5 -26t26.5 -66q0 -45 -31.5 -70.5
t-85.5 -25.5h-67z" />
    <glyph glyph-name="Tcaron" unicode="&#x164;" horiz-adv-x="669" 
d="M382 0h-95v611h-247v85h589v-85h-247v-611zM282 770l-124 147h94l82 -89l82 89h94l-124 -147h-104z" />
    <glyph glyph-name="tcaron" unicode="&#x165;" horiz-adv-x="366" 
d="M259 -4q-73 0 -112 40.5t-39 118.5v277h-91v80h91v163q44 3 89 17v-180h112v-80h-112v-269q0 -42 20.5 -64.5t57.5 -22.5h34v-80h-50zM267 574l6 151h87l-23 -151h-70z" />
    <glyph glyph-name="Tbar" unicode="&#x166;" horiz-adv-x="669" 
d="M287 0v286h-166v80h166v245h-247v85h589v-85h-247v-245h166v-80h-166v-286h-95z" />
    <glyph glyph-name="tbar" unicode="&#x167;" horiz-adv-x="342" 
d="M17 241v77h91v114h-91v80h91v163q44 3 89 17v-180h112v-80h-112v-114h112v-77h-112v-78q0 -42 20.5 -64.5t57.5 -22.5h34v-80h-50q-73 0 -112 40.5t-39 118.5v86h-91z" />
    <glyph glyph-name="Utilde" unicode="&#x168;" horiz-adv-x="742" 
d="M371 -15q-95 0 -160 38.5t-98 108.5t-33 165v399h95v-391q0 -107 47.5 -170t148.5 -63t148.5 63t47.5 170v391h95v-399q0 -95 -33 -165t-98 -108.5t-160 -38.5zM448 769q-19 0 -40.5 6t-48.5 24q-20 13 -32 19t-24 6q-34 0 -34 -34v-19h-72v33q0 44 27 70.5t70 26.5
q19 0 40.5 -6t48.5 -24q20 -13 32 -19t24 -6q34 0 34 33v20h72v-33q0 -44 -27 -70.5t-70 -26.5z" />
    <glyph glyph-name="utilde" unicode="&#x169;" horiz-adv-x="571" 
d="M407 207v305h89v-512h-87v68q-25 -39 -64 -60.5t-87 -21.5q-87 0 -137.5 58t-50.5 152v316h89v-305q0 -62 32.5 -100.5t88.5 -38.5q53 0 90 37t37 102zM359 587q-21 0 -42 7.5t-50 26.5q-19 13 -29.5 17.5t-20.5 4.5q-31 0 -31 -34v-20h-70v33q0 44 25.5 70t66.5 26
q21 0 42.5 -7t49.5 -27q20 -14 30 -18t20 -4q31 0 31 34v20h70v-33q0 -43 -25.5 -69.5t-66.5 -26.5z" />
    <glyph glyph-name="Umacron" unicode="&#x16a;" horiz-adv-x="742" 
d="M371 -15q-95 0 -160 38.5t-98 108.5t-33 165v399h95v-391q0 -107 47.5 -170t148.5 -63t148.5 63t47.5 170v391h95v-399q0 -95 -33 -165t-98 -108.5t-160 -38.5zM215 885h312v-76h-312v76z" />
    <glyph glyph-name="umacron" unicode="&#x16b;" horiz-adv-x="571" 
d="M407 207v305h89v-512h-87v68q-25 -39 -64 -60.5t-87 -21.5q-87 0 -137.5 58t-50.5 152v316h89v-305q0 -62 32.5 -100.5t88.5 -38.5q53 0 90 37t37 102zM134 702h300v-75h-300v75z" />
    <glyph glyph-name="Ubreve" unicode="&#x16c;" horiz-adv-x="742" 
d="M371 -15q-95 0 -160 38.5t-98 108.5t-33 165v399h95v-391q0 -107 47.5 -170t148.5 -63t148.5 63t47.5 170v391h95v-399q0 -95 -33 -165t-98 -108.5t-160 -38.5zM371 766q-69 0 -116.5 40.5t-51.5 108.5h81q4 -35 27.5 -56.5t59.5 -21.5t59.5 21.5t27.5 56.5h81
q-4 -68 -51.5 -108.5t-116.5 -40.5z" />
    <glyph glyph-name="ubreve" unicode="&#x16d;" horiz-adv-x="571" 
d="M407 207v305h89v-512h-87v68q-25 -39 -64 -60.5t-87 -21.5q-87 0 -137.5 58t-50.5 152v316h89v-305q0 -62 32.5 -100.5t88.5 -38.5q53 0 90 37t37 102zM284 582q-68 0 -113 41.5t-50 114.5h80q4 -40 26 -63t57 -23t57 23t26 63h80q-5 -73 -50 -114.5t-113 -41.5z" />
    <glyph glyph-name="Uring" unicode="&#x16e;" horiz-adv-x="742" 
d="M371 -15q-95 0 -160 38.5t-98 108.5t-33 165v399h95v-391q0 -107 47.5 -170t148.5 -63t148.5 63t47.5 170v391h95v-399q0 -95 -33 -165t-98 -108.5t-160 -38.5zM371 747q-34 0 -61 16t-43 43t-16 59t16 59t43 43t61 16t61 -16t43 -43t16 -59t-16 -59t-43 -43t-61 -16z
M371 807q25 0 41 16.5t16 41.5t-16 41.5t-41 16.5t-41 -16.5t-16 -41.5t16 -41.5t41 -16.5z" />
    <glyph glyph-name="uring" unicode="&#x16f;" horiz-adv-x="571" 
d="M407 207v305h89v-512h-87v68q-25 -39 -64 -60.5t-87 -21.5q-87 0 -137.5 58t-50.5 152v316h89v-305q0 -62 32.5 -100.5t88.5 -38.5q53 0 90 37t37 102zM284 567q-34 0 -61 16t-43 43t-16 59t16 59t43 43t61 16t61 -16t43 -43t16 -59t-16 -59t-43 -43t-61 -16zM284 627
q25 0 41 16.5t16 41.5t-16 41.5t-41 16.5t-41 -16.5t-16 -41.5t16 -41.5t41 -16.5z" />
    <glyph glyph-name="Uhungarumlaut" unicode="&#x170;" horiz-adv-x="742" 
d="M371 -15q-95 0 -160 38.5t-98 108.5t-33 165v399h95v-391q0 -107 47.5 -170t148.5 -63t148.5 63t47.5 170v391h95v-399q0 -95 -33 -165t-98 -108.5t-160 -38.5zM330 770h-84l87 147h95zM497 770h-84l97 147h95z" />
    <glyph glyph-name="uhungarumlaut" unicode="&#x171;" horiz-adv-x="571" 
d="M407 207v305h89v-512h-87v68q-25 -39 -64 -60.5t-87 -21.5q-87 0 -137.5 58t-50.5 152v316h89v-305q0 -62 32.5 -100.5t88.5 -38.5q53 0 90 37t37 102zM326 585l85 155h92l-95 -155h-82zM161 585l75 155h92l-85 -155h-82z" />
    <glyph glyph-name="Uogonek" unicode="&#x172;" horiz-adv-x="742" 
d="M371 -15q-95 0 -160 38.5t-98 108.5t-33 165v399h95v-391q0 -107 47.5 -170t148.5 -63t148.5 63t47.5 170v391h95v-399q0 -95 -33 -165t-98 -108.5t-160 -38.5zM470 -240q-61 0 -96.5 29t-35.5 79q0 30 14 58.5t49.5 59t98.5 66.5l38 -23q-53 -36 -79 -61.5t-34 -45
t-8 -38.5q0 -29 20 -43.5t50 -14.5h32v-66h-49z" />
    <glyph glyph-name="uogonek" unicode="&#x173;" horiz-adv-x="571" 
d="M407 207v305h89v-512h-87v68q-25 -39 -64 -60.5t-87 -21.5q-87 0 -137.5 58t-50.5 152v316h89v-305q0 -62 32.5 -100.5t88.5 -38.5q53 0 90 37t37 102zM459 -240q-61 0 -96.5 30t-35.5 78q0 95 127 155l40 -23q-50 -32 -68.5 -60t-18.5 -56t19.5 -43t49.5 -15h32v-66h-49
z" />
    <glyph glyph-name="Wcircumflex" unicode="&#x174;" horiz-adv-x="979" 
d="M239 0l-211 696h99l162 -559l156 557h88l162 -559l159 561h97l-210 -696h-91l-161 549l-159 -549h-91zM314 770l124 147h104l124 -147h-94l-82 89l-82 -89h-94z" />
    <glyph glyph-name="wcircumflex" unicode="&#x175;" horiz-adv-x="760" 
d="M183 0l-165 512h92l118 -388l111 386h81l115 -387l116 389h91l-166 -512h-82l-114 383l-115 -383h-82zM209 585l120 155h100l120 -155h-90l-80 96l-80 -96h-90z" />
    <glyph glyph-name="Ycircumflex" unicode="&#x176;" horiz-adv-x="644" 
d="M275 0v268l-260 428h110l200 -337l197 337h106l-258 -426v-270h-95zM145 770l124 147h104l124 -147h-94l-82 89l-82 -89h-94z" />
    <glyph glyph-name="ycircumflex" unicode="&#x177;" horiz-adv-x="522" 
d="M131 -205l85 205l-203 512h101l150 -407l148 407h97l-283 -717h-95zM93 585l120 155h100l120 -155h-90l-80 96l-80 -96h-90z" />
    <glyph glyph-name="Ydieresis" unicode="&#x178;" horiz-adv-x="644" 
d="M275 0v268l-260 428h110l200 -337l197 337h106l-258 -426v-270h-95zM425 787q-25 0 -41.5 16.5t-16.5 40.5t16.5 40.5t41.5 16.5q24 0 41 -16.5t17 -40.5t-17 -40.5t-41 -16.5zM217 787q-24 0 -41 16.5t-17 40.5t17 40.5t41 16.5q25 0 41.5 -16.5t16.5 -40.5t-16.5 -40.5
t-41.5 -16.5z" />
    <glyph glyph-name="Zacute" unicode="&#x179;" horiz-adv-x="621" 
d="M45 696h525v-81l-409 -530h416v-85h-532v81l409 530h-409v85zM346 770h-88l88 147h99z" />
    <glyph glyph-name="zacute" unicode="&#x17a;" horiz-adv-x="500" 
d="M40 0v77l303 355h-303v80h415v-77l-302 -355h309v-80h-422zM286 585h-86l76 155h96z" />
    <glyph glyph-name="Zdotaccent" unicode="&#x17b;" horiz-adv-x="621" 
d="M45 696h525v-81l-409 -530h416v-85h-532v81l409 530h-409v85zM308 781q-26 0 -43.5 17.5t-17.5 43.5t17.5 43.5t43.5 17.5t43.5 -17.5t17.5 -43.5t-17.5 -43.5t-43.5 -17.5z" />
    <glyph glyph-name="zdotaccent" unicode="&#x17c;" horiz-adv-x="500" 
d="M40 0v77l303 355h-303v80h415v-77l-302 -355h309v-80h-422zM249 600q-26 0 -43.5 18t-17.5 43t17.5 43t43.5 18t43.5 -18t17.5 -43t-17.5 -43t-43.5 -18z" />
    <glyph glyph-name="Zcaron" unicode="&#x17d;" horiz-adv-x="621" 
d="M45 696h525v-81l-409 -530h416v-85h-532v81l409 530h-409v85zM256 770l-124 147h94l82 -89l82 89h94l-124 -147h-104z" />
    <glyph glyph-name="zcaron" unicode="&#x17e;" horiz-adv-x="500" 
d="M40 0v77l303 355h-303v80h415v-77l-302 -355h309v-80h-422zM199 585l-120 155h90l80 -96l80 96h90l-120 -155h-100z" />
    <glyph glyph-name="longs" unicode="&#x17f;" horiz-adv-x="272" 
d="M275 725v-79h-24q-43 0 -65 -25.5t-22 -69.5v-551h-89v557q0 80 42 124t119 44h39z" />
    <glyph glyph-name="uni0181" unicode="&#x181;" horiz-adv-x="886" 
d="M288 0v611h-6q-80 0 -115 -41.5t-35 -138.5v-24h-90v29q0 135 62 197.5t181 62.5h286q115 0 177 -49t62 -135q0 -52 -30 -91t-83 -58q70 -19 104 -62.5t34 -104.5q0 -90 -66 -143t-185 -53h-296zM560 611h-177v-210h177q72 0 113 27t41 78q0 105 -154 105zM576 316h-193
v-231h193q162 0 162 116q0 55 -42 85t-120 30z" />
    <glyph glyph-name="uni0186" unicode="&#x186;" horiz-adv-x="715" 
d="M339 -15q-122 0 -196.5 61t-98.5 162h98q16 -62 67 -99t131 -37q67 0 118.5 34t81 96t29.5 146q0 85 -28.5 147t-79.5 95.5t-118 33.5q-80 0 -130.5 -37.5t-69.5 -103.5h-99q27 105 102 166.5t198 61.5q96 0 168.5 -46.5t113 -128.5t40.5 -188t-42 -188t-116 -128.5
t-169 -46.5z" />
    <glyph glyph-name="uni018A" unicode="&#x18a;" horiz-adv-x="930" 
d="M288 0v611h-6q-80 0 -115 -41.5t-35 -138.5v-24h-90v29q0 135 62 197.5t181 62.5h254q97 0 174.5 -42.5t122.5 -121t45 -184.5t-45 -184.5t-122.5 -121t-174.5 -42.5h-251zM383 85h150q69 0 126 31t91 89.5t34 142.5t-34 142.5t-91 89.5t-126 31h-150v-526z" />
    <glyph glyph-name="uni018E" unicode="&#x18e;" horiz-adv-x="641" 
d="M551 0h-488v85h393v230h-377v85h377v211h-388v85h483v-696z" />
    <glyph glyph-name="uni018F" unicode="&#x18f;" horiz-adv-x="728" 
d="M679 346q0 -110 -38.5 -191t-110.5 -125.5t-172 -44.5q-94 0 -163 44t-106.5 123t-37.5 184v47h531q-9 117 -70 179t-155 62q-71 0 -120 -29.5t-71 -72.5h-99q21 54 61.5 97t99 67.5t130.5 24.5q96 0 168 -44t112.5 -125.5t40.5 -195.5zM357 72q96 0 154 60t70 166h-434
q2 -66 28.5 -117t72.5 -80t109 -29z" />
    <glyph glyph-name="uni0190" unicode="&#x190;" horiz-adv-x="623" 
d="M311 -15q-68 0 -125.5 24t-92 70.5t-34.5 111.5q0 62 36.5 106t101.5 62q-54 18 -85 58.5t-31 96.5q0 62 31.5 106t85.5 67.5t120 23.5q100 0 165.5 -50.5t86.5 -129.5h-94q-16 43 -56 68t-99 25t-101 -28t-42 -87q0 -54 38 -83t102 -29h82v-85h-85q-73 0 -116 -29.5
t-43 -85.5q0 -43 22 -70.5t58 -41t77 -13.5q64 0 108.5 24t60.5 70h95q-21 -85 -89 -133t-177 -48z" />
    <glyph glyph-name="florin" unicode="&#x192;" horiz-adv-x="357" 
d="M17 -205v80h25q43 0 65 25.5t22 68.5v463h-91v80h91v46q0 79 42.5 123t119.5 44h39v-80h-25q-42 0 -64.5 -24.5t-22.5 -68.5v-40h112v-80h-112v-470q0 -79 -42 -123t-120 -44h-39z" />
    <glyph glyph-name="uni0194" unicode="&#x194;" horiz-adv-x="702" 
d="M352 -15q-69 0 -101.5 36t-32.5 85q0 34 14 62.5t38 64.5l26 38l-278 425h110l225 -354l226 354h105l-278 -423l27 -40q24 -36 38 -64.5t14 -62.5q0 -49 -32 -85t-101 -36zM297 109q0 -25 15.5 -40t39.5 -15t39 15t15 40q0 21 -9.5 40t-30.5 50l-14 21l-14 -21
q-21 -31 -31 -50t-10 -40z" />
    <glyph glyph-name="uni0198" unicode="&#x198;" horiz-adv-x="747" 
d="M90 0v696h95v-301l168 202q48 58 95 86t112 28q75 0 113.5 -42.5t38.5 -119.5v-55h-93v49q0 41 -17.5 64t-51.5 23q-32 0 -59.5 -17.5t-64.5 -60.5l-162 -190l385 -362h-130l-334 314v-314h-95z" />
    <glyph glyph-name="uni0199" unicode="&#x199;" horiz-adv-x="532" 
d="M75 0v532q0 99 49.5 146t141.5 47h67v-74h-59q-53 0 -81.5 -30t-28.5 -93v-230l225 214h113l-255 -242l277 -270h-117l-243 241v-241h-89z" />
    <glyph glyph-name="uni019D" unicode="&#x19d;" horiz-adv-x="807" 
d="M23 -4v80h33q38 0 57 23t19 62v535h92v-114q36 61 96 95t132 34q82 0 140 -39t88.5 -106.5t30.5 -150.5v-415h-95v400q0 104 -47 164t-138 60q-55 0 -101.5 -25.5t-74.5 -75t-28 -121.5v-243q0 -80 -40 -121.5t-112 -41.5h-52z" />
    <glyph glyph-name="uni019F" unicode="&#x19f;" horiz-adv-x="786" 
d="M393 -15q-75 0 -138 27t-109 76t-71.5 115t-25.5 145t25.5 145t71.5 115t109 76t138 27t138 -27t109 -76t71.5 -115t25.5 -145t-25.5 -145t-71.5 -115t-109 -76t-138 -27zM393 624q-66 0 -118 -29.5t-85 -82t-42 -122.5h490q-9 70 -42 122.5t-85 82t-118 29.5zM393 72
q65 0 117.5 29.5t85.5 82t41 121.5h-488q8 -69 41 -121.5t85.5 -82t117.5 -29.5z" />
    <glyph glyph-name="Ohorn" unicode="&#x1a0;" horiz-adv-x="795" 
d="M737 348q0 -79 -25.5 -145t-71.5 -115t-109 -76t-138 -27t-138 27t-109 76t-71.5 115t-25.5 145t25.5 145t71.5 115t109 76t138 27q30 0 58 -5t54 -12q13 -3 29 -5.5t29 -2.5h6q88 0 88 87v38h85v-45q0 -61 -28.5 -99t-84.5 -48q50 -48 79 -117.5t29 -153.5zM146 348
q0 -81 32 -143.5t87.5 -97.5t127.5 -35t127.5 35t87.5 97.5t32 143.5t-32 143.5t-87.5 97.5t-127.5 35t-127.5 -35t-87.5 -97.5t-32 -143.5z" />
    <glyph glyph-name="ohorn" unicode="&#x1a1;" horiz-adv-x="593" 
d="M537 256q0 -80 -31.5 -141t-87.5 -95t-128 -34t-128 34t-87.5 95t-31.5 141t31.5 141t87.5 95t128 34q25 0 48.5 -5t45.5 -12q9 -3 18 -5t19 -2q37 0 53.5 21.5t16.5 58.5v38h80v-45q0 -113 -94 -135q29 -35 44.5 -82t15.5 -102zM134 256q0 -86 43.5 -137t112.5 -51
t112.5 51t43.5 137t-43.5 137t-112.5 51t-112.5 -51t-43.5 -137z" />
    <glyph glyph-name="Uhorn" unicode="&#x1af;" horiz-adv-x="765" 
d="M662 297q0 -95 -33 -165t-98 -108.5t-160 -38.5t-160 38.5t-98 108.5t-33 165v399h95v-391q0 -107 47.5 -170t148.5 -63t148.5 63t47.5 170v391h72q78 0 78 87v38h85v-45q0 -70 -35.5 -109.5t-104.5 -44.5v-325z" />
    <glyph glyph-name="uhorn" unicode="&#x1b0;" horiz-adv-x="590" 
d="M258 -14q-87 0 -137.5 57.5t-50.5 150.5v318h89v-307q0 -61 32.5 -99t88.5 -38q53 0 90 36.5t37 100.5v307h59q71 0 71 80v38h80v-45q0 -129 -121 -141v-444h-87v67q-25 -38 -64 -59.5t-87 -21.5z" />
    <glyph glyph-name="uni01B3" unicode="&#x1b3;" horiz-adv-x="850" 
d="M275 0v268l-260 428h109l201 -338l121 211q41 73 91.5 107.5t120.5 34.5q77 0 117 -43.5t40 -122.5v-51h-93v45q0 44 -17 67.5t-56 23.5q-38 0 -65.5 -24t-52.5 -66l-161 -270v-270h-95z" />
    <glyph glyph-name="uni01B4" unicode="&#x1b4;" horiz-adv-x="718" 
d="M131 -205l85 205l-203 512h101l150 -408l95 263q30 83 75.5 121t113.5 38t104.5 -39.5t36.5 -110.5v-40h-88v29q0 80 -61 80q-29 0 -50.5 -18.5t-41.5 -68.5l-222 -563h-95z" />
    <glyph glyph-name="uni01CD" unicode="&#x1cd;" horiz-adv-x="689" 
d="M570 0l-73 187h-309l-72 -187h-98l278 696h96l279 -696h-101zM220 272h244l-122 316zM292 770l-124 147h94l82 -89l82 89h94l-124 -147h-104z" />
    <glyph glyph-name="uni01CE" unicode="&#x1ce;" horiz-adv-x="535" 
d="M213 -14q-79 0 -127 42.5t-48 115.5q0 78 56.5 121.5t160.5 43.5h121v22q0 62 -31.5 88.5t-86.5 26.5q-46 0 -76 -18t-37 -44h-90q13 63 67.5 102.5t136.5 39.5q95 0 150.5 -49t55.5 -153v-324h-84v77q-27 -46 -73 -68.5t-95 -22.5zM233 64q33 0 66 15t55 44.5t22 74.5
v38h-115q-63 0 -98 -22t-35 -66q0 -41 29 -62.5t76 -21.5zM217 585l-120 155h90l80 -96l80 96h90l-120 -155h-100z" />
    <glyph glyph-name="uni01CF" unicode="&#x1cf;" horiz-adv-x="275" 
d="M185 0h-95v696h95v-696zM85 770l-124 147h94l82 -89l82 89h94l-124 -147h-104z" />
    <glyph glyph-name="uni01D0" unicode="&#x1d0;" horiz-adv-x="239" 
d="M75 0v512h89v-512h-89zM70 585l-105 155h90l65 -90l65 90h90l-105 -155h-100z" />
    <glyph glyph-name="uni01D1" unicode="&#x1d1;" horiz-adv-x="786" 
d="M393 -15q-75 0 -138 27t-109 76t-71.5 115t-25.5 145t25.5 145t71.5 115t109 76t138 27t138 -27t109 -76t71.5 -115t25.5 -145t-25.5 -145t-71.5 -115t-109 -76t-138 -27zM393 72q72 0 127.5 35t87.5 97.5t32 143.5t-32 143.5t-87.5 97.5t-127.5 35t-127.5 -35
t-87.5 -97.5t-32 -143.5t32 -143.5t87.5 -97.5t127.5 -35zM341 770l-124 147h94l82 -89l82 89h94l-124 -147h-104z" />
    <glyph glyph-name="uni01D2" unicode="&#x1d2;" horiz-adv-x="580" 
d="M290 -14q-72 0 -128 34t-87.5 95t-31.5 141t31.5 141t87.5 95t128 34t128 -34t87.5 -95t31.5 -141t-31.5 -141t-87.5 -95t-128 -34zM290 68q69 0 112.5 51t43.5 137t-43.5 137t-112.5 51t-112.5 -51t-43.5 -137t43.5 -137t112.5 -51zM240 585l-120 155h90l80 -96l80 96
h90l-120 -155h-100z" />
    <glyph glyph-name="uni01D3" unicode="&#x1d3;" horiz-adv-x="742" 
d="M371 -15q-95 0 -160 38.5t-98 108.5t-33 165v399h95v-391q0 -107 47.5 -170t148.5 -63t148.5 63t47.5 170v391h95v-399q0 -95 -33 -165t-98 -108.5t-160 -38.5zM319 770l-124 147h94l82 -89l82 89h94l-124 -147h-104z" />
    <glyph glyph-name="uni01D4" unicode="&#x1d4;" horiz-adv-x="571" 
d="M407 207v305h89v-512h-87v68q-25 -39 -64 -60.5t-87 -21.5q-87 0 -137.5 58t-50.5 152v316h89v-305q0 -62 32.5 -100.5t88.5 -38.5q53 0 90 37t37 102zM234 585l-120 155h90l80 -96l80 96h90l-120 -155h-100z" />
    <glyph glyph-name="uni01D5" unicode="&#x1d5;" horiz-adv-x="742" 
d="M371 -15q-95 0 -160 38.5t-98 108.5t-33 165v399h95v-391q0 -107 47.5 -170t148.5 -63t148.5 63t47.5 170v391h95v-399q0 -95 -33 -165t-98 -108.5t-160 -38.5zM526 830q0 -22 -16.5 -38t-39.5 -16t-39 16t-16 38q0 23 16 39.5t39 16.5t39.5 -16.5t16.5 -39.5zM327 830
q0 -22 -16.5 -38t-39.5 -16t-39 16t-16 38q0 23 16 39.5t39 16.5t39.5 -16.5t16.5 -39.5zM216 1004h310v-69h-310v69z" />
    <glyph glyph-name="uni01D6" unicode="&#x1d6;" horiz-adv-x="571" 
d="M407 207v305h89v-512h-87v68q-25 -39 -64 -60.5t-87 -21.5q-87 0 -137.5 58t-50.5 152v316h89v-305q0 -62 32.5 -100.5t88.5 -38.5q53 0 90 37t37 102zM379 605q-23 0 -39 15.5t-16 38.5t16 38.5t39 15.5t38.5 -15.5t15.5 -38.5t-15.5 -38.5t-38.5 -15.5zM189 605
q-23 0 -38.5 15.5t-15.5 38.5t15.5 38.5t38.5 15.5t39 -15.5t16 -38.5t-16 -38.5t-39 -15.5zM134 853h300v-68h-300v68z" />
    <glyph glyph-name="uni01D7" unicode="&#x1d7;" horiz-adv-x="742" 
d="M371 -15q-95 0 -160 38.5t-98 108.5t-33 165v399h95v-391q0 -107 47.5 -170t148.5 -63t148.5 63t47.5 170v391h95v-399q0 -95 -33 -165t-98 -108.5t-160 -38.5zM526 830q0 -22 -16.5 -38t-39.5 -16t-39 16t-16 38q0 23 16 39.5t39 16.5t39.5 -16.5t16.5 -39.5zM327 830
q0 -22 -16.5 -38t-39.5 -16t-39 16t-16 38q0 23 16 39.5t39 16.5t39.5 -16.5t16.5 -39.5zM407 894h-82l79 129h93z" />
    <glyph glyph-name="uni01D8" unicode="&#x1d8;" horiz-adv-x="571" 
d="M407 207v305h89v-512h-87v68q-25 -39 -64 -60.5t-87 -21.5q-87 0 -137.5 58t-50.5 152v316h89v-305q0 -62 32.5 -100.5t88.5 -38.5q53 0 90 37t37 102zM379 605q-23 0 -39 15.5t-16 38.5t16 38.5t39 15.5t38.5 -15.5t15.5 -38.5t-15.5 -38.5t-38.5 -15.5zM189 605
q-23 0 -38.5 15.5t-15.5 38.5t15.5 38.5t38.5 15.5t39 -15.5t16 -38.5t-16 -38.5t-39 -15.5zM319 740h-79l75 154h90z" />
    <glyph glyph-name="uni01D9" unicode="&#x1d9;" horiz-adv-x="742" 
d="M371 -15q-95 0 -160 38.5t-98 108.5t-33 165v399h95v-391q0 -107 47.5 -170t148.5 -63t148.5 63t47.5 170v391h95v-399q0 -95 -33 -165t-98 -108.5t-160 -38.5zM526 830q0 -22 -16.5 -38t-39.5 -16t-39 16t-16 38q0 23 16 39.5t39 16.5t39.5 -16.5t16.5 -39.5zM327 830
q0 -22 -16.5 -38t-39.5 -16t-39 16t-16 38q0 23 16 39.5t39 16.5t39.5 -16.5t16.5 -39.5zM201 1022h88l82 -80l82 80h88l-120 -128h-100z" />
    <glyph glyph-name="uni01DA" unicode="&#x1da;" horiz-adv-x="571" 
d="M407 207v305h89v-512h-87v68q-25 -39 -64 -60.5t-87 -21.5q-87 0 -137.5 58t-50.5 152v316h89v-305q0 -62 32.5 -100.5t88.5 -38.5q53 0 90 37t37 102zM379 605q-23 0 -39 15.5t-16 38.5t16 38.5t39 15.5t38.5 -15.5t15.5 -38.5t-15.5 -38.5t-38.5 -15.5zM189 605
q-23 0 -38.5 15.5t-15.5 38.5t15.5 38.5t38.5 15.5t39 -15.5t16 -38.5t-16 -38.5t-39 -15.5zM235 744l-114 145h84l79 -95l79 95h84l-114 -145h-98z" />
    <glyph glyph-name="uni01DB" unicode="&#x1db;" horiz-adv-x="742" 
d="M371 -15q-95 0 -160 38.5t-98 108.5t-33 165v399h95v-391q0 -107 47.5 -170t148.5 -63t148.5 63t47.5 170v391h95v-399q0 -95 -33 -165t-98 -108.5t-160 -38.5zM526 830q0 -22 -16.5 -38t-39.5 -16t-39 16t-16 38q0 23 16 39.5t39 16.5t39.5 -16.5t16.5 -39.5zM327 830
q0 -22 -16.5 -38t-39.5 -16t-39 16t-16 38q0 23 16 39.5t39 16.5t39.5 -16.5t16.5 -39.5zM332 894l-90 129h93l79 -129h-82z" />
    <glyph glyph-name="uni01DC" unicode="&#x1dc;" horiz-adv-x="571" 
d="M407 207v305h89v-512h-87v68q-25 -39 -64 -60.5t-87 -21.5q-87 0 -137.5 58t-50.5 152v316h89v-305q0 -62 32.5 -100.5t88.5 -38.5q53 0 90 37t37 102zM379 605q-23 0 -39 15.5t-16 38.5t16 38.5t39 15.5t38.5 -15.5t15.5 -38.5t-15.5 -38.5t-38.5 -15.5zM189 605
q-23 0 -38.5 15.5t-15.5 38.5t15.5 38.5t38.5 15.5t39 -15.5t16 -38.5t-16 -38.5t-39 -15.5zM248 740l-85 154h90l75 -154h-80z" />
    <glyph glyph-name="uni01DD" unicode="&#x1dd;" horiz-adv-x="557" 
d="M267 526q77 0 132 -33t85 -94t30 -144q0 -77 -29.5 -138t-84 -96t-130.5 -35q-72 0 -122.5 32.5t-76.5 90t-26 134.5v42h377q-7 78 -47 119.5t-109 41.5q-45 0 -76.5 -15.5t-41.5 -40.5h-92q18 62 75 99t136 37zM271 66q63 0 101.5 38.5t47.5 106.5h-285q3 -65 36.5 -105
t99.5 -40z" />
    <glyph glyph-name="uni01F8" unicode="&#x1f8;" horiz-adv-x="765" 
d="M90 0v696h94l397 -546v546h94v-696h-94l-397 546v-546h-94zM344 770l-99 147h99l88 -147h-88z" />
    <glyph glyph-name="uni01F9" unicode="&#x1f9;" horiz-adv-x="575" 
d="M164 303v-303h-89v512h87v-69q27 40 69 61.5t92 21.5q57 0 97.5 -27t62.5 -74t22 -108v-317h-89v300q0 67 -30 105.5t-88 38.5q-36 0 -66.5 -16.5t-49 -48t-18.5 -76.5zM254 585l-86 155h96l76 -155h-86z" />
    <glyph glyph-name="Aringacute" unicode="&#x1fa;" horiz-adv-x="689" 
d="M298 902l69 127h95l-79 -127h-85zM18 0l262 655q-26 16 -41 42.5t-15 57.5q0 32 16 59t43 43t61 16t61 -16t43 -43t16 -59q0 -31 -15 -57.5t-41 -42.5l263 -655h-101l-73 187h-311l-72 -187h-96zM344 697q25 0 41 16.5t16 41.5t-16 41.5t-41 16.5t-41 -16.5t-16 -41.5
t16 -41.5t41 -16.5zM218 272h246l-123 319z" />
    <glyph glyph-name="aringacute" unicode="&#x1fb;" horiz-adv-x="535" 
d="M213 -14q-79 0 -127 42.5t-48 115.5q0 78 56.5 121.5t160.5 43.5h121v22q0 62 -31.5 88.5t-86.5 26.5q-46 0 -76 -18t-37 -44h-90q13 63 67.5 102.5t136.5 39.5q95 0 150.5 -49t55.5 -153v-324h-84v77q-27 -46 -73 -68.5t-95 -22.5zM233 64q33 0 66 15t55 44.5t22 74.5
v38h-115q-63 0 -98 -22t-35 -66q0 -41 29 -62.5t76 -21.5zM267 567q-34 0 -61 16t-43 43t-16 59t16 59t43 43t61 16t61 -16t43 -43t16 -59t-16 -59t-43 -43t-61 -16zM267 627q25 0 41 16.5t16 41.5t-16 41.5t-41 16.5t-41 -16.5t-16 -41.5t16 -41.5t41 -16.5zM305 834h-88
l88 147h99z" />
    <glyph glyph-name="AEacute" unicode="&#x1fc;" horiz-adv-x="1060" 
d="M113 0h-106l459 696h526v-85h-388v-211h377v-85h-377v-230h393v-85h-488v187h-276zM287 272h222v346zM764 770h-88l88 147h99z" />
    <glyph glyph-name="aeacute" unicode="&#x1fd;" horiz-adv-x="891" 
d="M219 -14q-82 0 -131.5 42.5t-49.5 115.5q0 77 55.5 119.5t158.5 42.5h124v25q0 62 -31.5 88.5t-86.5 26.5q-46 0 -76 -18t-37 -44h-90q13 63 67.5 102.5t136.5 39.5q63 0 108.5 -23.5t69.5 -76.5q31 53 80 76.5t105 23.5q72 0 122 -32.5t76 -90t26 -133.5v-36h-377
q5 -82 45 -125t110 -43q46 0 77.5 15.5t41.5 40.5h92q-18 -62 -75 -99t-136 -37q-72 0 -123.5 30t-81.5 86q-28 -57 -82.5 -86.5t-117.5 -29.5zM620 446q-62 0 -100 -37.5t-49 -102.5h285q-4 63 -38 101.5t-98 38.5zM233 64q36 0 68.5 14t53.5 43.5t21 75.5v37h-116
q-62 0 -97 -21t-35 -65q0 -41 29 -62.5t76 -21.5zM472 585h-86l76 155h96z" />
    <glyph glyph-name="Oslashacute" unicode="&#x1fe;" horiz-adv-x="786" 
d="M82 -48l80 119q-53 49 -83 120t-30 157q0 79 25.5 145t71.5 115t109 76t138 27q47 0 90 -11t80 -31l50 75h91l-80 -119q53 -49 83 -120t30 -157q0 -79 -25.5 -145t-71.5 -115t-109 -76t-138 -27q-47 0 -90 11t-80 31l-50 -75h-91zM146 348q0 -60 18 -110.5t51 -87.5
l297 444q-53 30 -119 30q-72 0 -127.5 -35t-87.5 -97.5t-32 -143.5zM393 72q72 0 127.5 35t87.5 97.5t32 143.5q0 60 -18 110.5t-51 87.5l-297 -444q53 -30 119 -30zM431 770h-88l88 147h99z" />
    <glyph glyph-name="oslashacute" unicode="&#x1ff;" horiz-adv-x="580" 
d="M55 -48l65 101q-37 36 -57 88t-20 115q0 80 31.5 141t87 95t128.5 34q62 0 114 -26l38 60h83l-65 -101q37 -36 57 -88t20 -115q0 -80 -31.5 -141t-87.5 -95t-128 -34q-62 0 -114 26l-38 -60h-83zM133 256q0 -75 35 -126l191 299q-32 16 -69 16q-69 0 -113 -51.5
t-44 -137.5zM290 67q69 0 113 51.5t44 137.5q0 75 -35 126l-191 -299q32 -16 69 -16zM327 585h-86l76 155h96z" />
    <glyph glyph-name="uni0218" unicode="&#x218;" horiz-adv-x="635" 
d="M324 -15q-112 0 -187.5 52t-98.5 146h97q17 -52 66 -81.5t122 -29.5q71 0 119 29.5t48 85.5q0 31 -13 54.5t-46 40t-95 25.5l-83 13q-101 16 -149 60t-48 128q0 62 34.5 107.5t93 70.5t130.5 25q66 0 121.5 -21t92.5 -62.5t49 -105.5h-97q-13 54 -56.5 78t-108.5 24
q-73 0 -117.5 -29.5t-44.5 -81.5q0 -45 31 -70t118 -38l78 -12q106 -17 156.5 -66t50.5 -134q0 -65 -34 -112t-93.5 -71.5t-135.5 -24.5zM261 -255q22 32 33.5 52.5t20.5 46.5q-24 2 -38 16t-14 35q0 23 16 38.5t43 15.5q30 0 47.5 -18.5t17.5 -46.5q0 -30 -13 -62.5
t-44 -76.5h-69z" />
    <glyph glyph-name="uni0219" unicode="&#x219;" horiz-adv-x="493" 
d="M256 -15q-90 0 -148 42.5t-70 107.5h90q8 -29 41.5 -50t84.5 -21q50 0 80 20.5t30 56.5q0 29 -21 47.5t-72 25.5l-78 10q-145 18 -145 142q0 46 25.5 82.5t70 57t101.5 20.5q83 0 135 -40t66 -102h-89q-10 31 -38.5 47t-71.5 16q-49 0 -78.5 -21.5t-29.5 -56.5
q0 -29 21 -44t69 -21l78 -10q73 -9 110.5 -50t37.5 -100q0 -48 -26 -84t-71.5 -55.5t-101.5 -19.5zM196 -255q22 32 33.5 52.5t20.5 46.5q-24 2 -38 16t-14 35q0 23 16 38.5t43 15.5q30 0 47.5 -18.5t17.5 -46.5q0 -30 -13 -62.5t-44 -76.5h-69z" />
    <glyph glyph-name="uni021A" unicode="&#x21a;" horiz-adv-x="669" 
d="M382 0h-95v611h-247v85h589v-85h-247v-611zM271 -255q22 32 33.5 52.5t20.5 46.5q-24 2 -38 16t-14 35q0 23 16 38.5t43 15.5q30 0 47.5 -18.5t17.5 -46.5q0 -30 -13 -62.5t-44 -76.5h-69z" />
    <glyph glyph-name="uni021B" unicode="&#x21b;" horiz-adv-x="342" 
d="M259 -4q-73 0 -112 40.5t-39 118.5v277h-91v80h91v163q44 3 89 17v-180h112v-80h-112v-269q0 -42 20.5 -64.5t57.5 -22.5h34v-80h-50zM146 -255q22 32 33.5 52.5t20.5 46.5q-24 2 -38 16t-14 35q0 23 16 38.5t43 15.5q30 0 47.5 -18.5t17.5 -46.5q0 -30 -13 -62.5
t-44 -76.5h-69z" />
    <glyph glyph-name="uni0232" unicode="&#x232;" horiz-adv-x="644" 
d="M275 0v268l-260 428h110l200 -337l197 337h106l-258 -426v-270h-95zM165 885h312v-76h-312v76z" />
    <glyph glyph-name="uni0233" unicode="&#x233;" horiz-adv-x="522" 
d="M131 -205l85 205l-203 512h101l150 -407l148 407h97l-283 -717h-95zM113 702h300v-75h-300v75z" />
    <glyph glyph-name="uni0237" unicode="&#x237;" horiz-adv-x="239" 
d="M-28 -205v80h27q38 0 57 25t19 68v544h89v-553q0 -78 -38 -121t-111 -43h-43z" />
    <glyph glyph-name="uni024C" unicode="&#x24c;" horiz-adv-x="701" 
d="M110 0v261h-80v85h80v350h262q133 0 201.5 -57t68.5 -158q0 -81 -43.5 -132.5t-110.5 -72.5l185 -276h-113l-173 261h-182v-261h-95zM205 611v-265h156q94 0 139 35.5t45 100.5q0 64 -45 96.5t-139 32.5h-156z" />
    <glyph glyph-name="uni024D" unicode="&#x24d;" horiz-adv-x="364" 
d="M85 0v183h-77v62h77v267h87v-91q24 45 63 69.5t87 24.5h16v-86h-18q-39 0 -72.5 -19t-53.5 -57t-20 -94v-14h163v-62h-163v-183h-89z" />
    <glyph glyph-name="uni0250" unicode="&#x250;" horiz-adv-x="535" 
d="M322 526q79 0 127 -42.5t48 -115.5q0 -78 -56.5 -121.5t-160.5 -43.5h-121v-22q0 -62 31.5 -88.5t86.5 -26.5q47 0 76.5 18t36.5 44h90q-13 -63 -67.5 -102.5t-136.5 -39.5q-95 0 -150.5 49t-55.5 153v324h84v-77q27 46 73 68.5t95 22.5zM159 314v-38h115q63 0 98 22
t35 66q0 41 -29.5 62.5t-75.5 21.5q-33 0 -66 -15t-55 -44.5t-22 -74.5z" />
    <glyph glyph-name="uni0251" unicode="&#x251;" horiz-adv-x="623" 
d="M260 -14q-65 0 -114 33.5t-76 94t-27 141.5t28.5 142t79.5 95t118 34q51 0 95 -26.5t72 -76.5q7 46 17 89h87q-12 -60 -19.5 -127t-7.5 -125v-34q0 -59 5.5 -91.5t21.5 -45t45 -12.5h11v-81h-25q-113 0 -133 96q-26 -50 -73 -78t-105 -28zM281 67q66 0 106.5 52t40.5 136
t-40.5 136.5t-106.5 52.5t-106.5 -52.5t-40.5 -136.5t40.5 -136t106.5 -52z" />
    <glyph glyph-name="uni0253" unicode="&#x253;" horiz-adv-x="604" 
d="M75 0v532q0 99 49.5 146t141.5 47h66v-74h-58q-53 0 -81.5 -30t-28.5 -93v-96q27 44 70 69t98 25q68 0 119.5 -34.5t80.5 -95t29 -140.5t-29 -140.5t-80.5 -95t-119.5 -34.5q-57 0 -100 26t-70 71v-83h-87zM316 68q68 0 111 51.5t43 136.5t-43 136.5t-111 51.5
q-69 0 -112.5 -52t-43.5 -136t43.5 -136t112.5 -52z" />
    <glyph glyph-name="uni0254" unicode="&#x254;" horiz-adv-x="536" 
d="M249 -14q-59 0 -103.5 22t-72 60t-35.5 86h92q7 -39 37.5 -62.5t82.5 -23.5q67 0 109.5 51t42.5 137q0 85 -42.5 136.5t-109.5 51.5q-52 0 -82 -25t-37 -62h-93q12 72 67 120.5t144 48.5q73 0 128 -34.5t85.5 -95.5t30.5 -140q0 -80 -30.5 -141t-85.5 -95t-128 -34z" />
    <glyph glyph-name="uni0257" unicode="&#x257;" horiz-adv-x="638" 
d="M272 -14q-68 0 -119.5 34.5t-80.5 95t-29 140.5t29 140.5t80.5 95t119.5 34.5q55 0 98 -25t70 -69v129q0 81 41.5 122.5t115.5 41.5h36v-74h-17q-41 0 -64 -21t-23 -79v-551h-87v83q-27 -45 -70 -71t-100 -26zM288 68q69 0 112.5 52t43.5 136t-43.5 136t-112.5 52
q-68 0 -111 -51.5t-43 -136.5t43 -136.5t111 -51.5z" />
    <glyph glyph-name="uni0258" unicode="&#x258;" horiz-adv-x="557" 
d="M267 -14q-79 0 -136 37t-75 99h92q10 -25 41.5 -40.5t76.5 -15.5q69 0 109 41.5t47 119.5h-377v42q0 77 26 134.5t76.5 90t122.5 32.5q76 0 130.5 -35t84 -96t29.5 -138q0 -83 -30 -144t-85 -94t-132 -33zM271 446q-66 0 -99.5 -40t-36.5 -105h285q-9 68 -47.5 106.5
t-101.5 38.5z" />
    <glyph glyph-name="uni0259" unicode="&#x259;" horiz-adv-x="557" 
d="M267 526q77 0 132 -33t85 -94t30 -144q0 -77 -29.5 -138t-84 -96t-130.5 -35q-72 0 -122.5 32.5t-76.5 90t-26 134.5v42h377q-7 78 -47 119.5t-109 41.5q-45 0 -76.5 -15.5t-41.5 -40.5h-92q18 62 75 99t136 37zM271 66q63 0 101.5 38.5t47.5 106.5h-285q3 -65 36.5 -105
t99.5 -40z" />
    <glyph glyph-name="uni025B" unicode="&#x25b;" horiz-adv-x="524" 
d="M261 -14q-97 0 -156.5 41t-59.5 109q0 47 31.5 79.5t85.5 46.5q-50 12 -77.5 42.5t-27.5 75.5q0 42 26 75t71.5 52t103.5 19q87 0 144.5 -38t77.5 -111h-92q-16 36 -48 52.5t-79 16.5q-53 0 -83.5 -20t-30.5 -54t29.5 -53.5t85.5 -19.5h103v-77h-101q-60 0 -94 -21
t-34 -59q0 -37 35 -56.5t92 -19.5q53 0 87 15.5t47 51.5h92q-21 -75 -80 -111t-148 -36z" />
    <glyph glyph-name="uni0261" unicode="&#x261;" horiz-adv-x="604" 
d="M272 -3q-68 0 -119.5 34t-80.5 93.5t-29 136.5t29 137t80.5 94t119.5 34q57 0 100 -25.5t70 -69.5v81h87v-497q0 -111 -61 -172.5t-170 -61.5q-93 0 -154 41t-79 105h96q16 -28 49 -46t86 -18q70 0 107 36t37 111v80q-27 -43 -70 -68t-98 -25zM288 79q46 0 81 23.5
t55 64.5t20 95t-20 95t-55 64t-81 23q-45 0 -80 -23t-54.5 -64t-19.5 -95t19.5 -95t54.5 -64.5t80 -23.5z" />
    <glyph glyph-name="uni0263" unicode="&#x263;" horiz-adv-x="565" 
d="M283 -219q-58 0 -90 34.5t-32 81.5q0 21 5 39.5t17 42.5t32 60l18 32l-220 441h100l170 -366l171 366h98l-218 -442l16 -29q20 -36 32 -59.5t17 -42t5 -38.5q0 -50 -32 -85t-89 -35zM239 -98q0 -22 11.5 -35.5t32.5 -13.5t32.5 13.5t11.5 35.5q0 18 -7 35.5t-22 43.5
l-16 29l-16 -29q-15 -26 -21 -43.5t-6 -35.5z" />
    <glyph glyph-name="uni026A" unicode="&#x26a;" horiz-adv-x="239" 
d="M75 0v512h89v-512h-89z" />
    <glyph glyph-name="uni0272" unicode="&#x272;" horiz-adv-x="575" 
d="M-28 -205v80h27q38 0 57 25t19 68v544h87v-69q27 40 69 61.5t92 21.5q57 0 97.5 -27t62.5 -74t22 -108v-317h-89v300q0 67 -30 105.5t-88 38.5q-36 0 -66.5 -16.5t-49 -48t-18.5 -76.5v-344q0 -78 -38 -121t-111 -43h-43z" />
    <glyph glyph-name="uni0275" unicode="&#x275;" horiz-adv-x="580" 
d="M290 -14q-73 0 -128.5 34.5t-87 95t-31.5 140.5t31.5 140.5t87 95t128.5 34.5t128.5 -34.5t87 -95t31.5 -140.5t-31.5 -140.5t-87 -95t-128.5 -34.5zM290 446q-62 0 -104.5 -41.5t-51.5 -110.5h312q-9 69 -51.5 110.5t-104.5 41.5zM290 66q62 0 104.5 41.5t51.5 110.5
h-312q9 -69 51.5 -110.5t104.5 -41.5z" />
    <glyph glyph-name="uni0283" unicode="&#x283;" horiz-adv-x="272" 
d="M275 725v-79h-24q-43 0 -65 -25.5t-22 -69.5v-588q0 -80 -42 -124t-119 -44h-40v79h25q43 0 65 25.5t22 69.5v588q0 80 42 124t119 44h39z" />
    <glyph glyph-name="uni028A" unicode="&#x28a;" horiz-adv-x="582" 
d="M291 65q115 0 115 138v166q0 143 133 143h23v-77h-9q-58 0 -58 -73v-159q0 -106 -55.5 -162t-148.5 -56t-148.5 56t-55.5 162v159q0 73 -58 73h-9v77h23q133 0 133 -143v-166q0 -138 115 -138z" />
    <glyph glyph-name="uni02BB" unicode="&#x2bb;" horiz-adv-x="573" 
d="M279 460q-32 0 -50.5 20.5t-18.5 54.5q0 41 17 84t58 105h79q-35 -53 -52 -85t-24 -61q25 -3 40 -18.5t15 -38.5q0 -24 -17.5 -42.5t-46.5 -18.5z" />
    <glyph glyph-name="circumflex" unicode="&#x2c6;" horiz-adv-x="573" 
d="M117 585l120 155h100l120 -155h-90l-80 96l-80 -96h-90z" />
    <glyph glyph-name="caron" unicode="&#x2c7;" horiz-adv-x="573" 
d="M237 585l-120 155h90l80 -96l80 96h90l-120 -155h-100z" />
    <glyph glyph-name="uni02C9" unicode="&#x2c9;" horiz-adv-x="573" 
d="M138 702h300v-75h-300v75z" />
    <glyph glyph-name="uni02CA" unicode="&#x2ca;" horiz-adv-x="573" 
d="M287 585h-86l76 155h96z" />
    <glyph glyph-name="uni02CB" unicode="&#x2cb;" horiz-adv-x="573" 
d="M287 585l-86 155h96l76 -155h-86z" />
    <glyph glyph-name="breve" unicode="&#x2d8;" horiz-adv-x="573" 
d="M287 582q-68 0 -113 41.5t-50 114.5h80q4 -40 26 -63t57 -23t57 23t26 63h80q-5 -73 -50 -114.5t-113 -41.5z" />
    <glyph glyph-name="dotaccent" unicode="&#x2d9;" horiz-adv-x="573" 
d="M287 600q-26 0 -43.5 18t-17.5 43t17.5 43t43.5 18t43.5 -18t17.5 -43t-17.5 -43t-43.5 -18z" />
    <glyph glyph-name="ring" unicode="&#x2da;" horiz-adv-x="573" 
d="M287 567q-34 0 -61 16t-43 43t-16 59t16 59t43 43t61 16t61 -16t43 -43t16 -59t-16 -59t-43 -43t-61 -16zM287 627q25 0 41 16.5t16 41.5t-16 41.5t-41 16.5t-41 -16.5t-16 -41.5t16 -41.5t41 -16.5z" />
    <glyph glyph-name="ogonek" unicode="&#x2db;" horiz-adv-x="573" 
d="M315 -240q-61 0 -96.5 30t-35.5 78q0 95 127 155l40 -23q-50 -32 -68.5 -60t-18.5 -56t19.5 -43t49.5 -15h32v-66h-49z" />
    <glyph glyph-name="tilde" unicode="&#x2dc;" horiz-adv-x="573" 
d="M362 587q-21 0 -42 7.5t-50 26.5q-19 13 -29.5 17.5t-20.5 4.5q-31 0 -31 -34v-20h-70v33q0 44 25.5 70t66.5 26q21 0 42.5 -7t49.5 -27q20 -14 30 -18t20 -4q31 0 31 34v20h70v-33q0 -43 -25.5 -69.5t-66.5 -26.5z" />
    <glyph glyph-name="hungarumlaut" unicode="&#x2dd;" horiz-adv-x="573" 
d="M286 585l85 155h92l-95 -155h-82zM121 585l75 155h92l-85 -155h-82z" />
    <glyph glyph-name="gravecomb" unicode="&#x300;" horiz-adv-x="0" 
d="M-37 585l-86 155h96l76 -155h-86z" />
    <glyph glyph-name="acutecomb" unicode="&#x301;" horiz-adv-x="0" 
d="M37 585h-86l76 155h96z" />
    <glyph glyph-name="uni0302" unicode="&#x302;" horiz-adv-x="0" 
d="M-170 585l120 155h100l120 -155h-90l-80 96l-80 -96h-90z" />
    <glyph glyph-name="tildecomb" unicode="&#x303;" horiz-adv-x="0" 
d="M75 587q-21 0 -42 7.5t-50 26.5q-19 13 -29.5 17.5t-20.5 4.5q-31 0 -31 -34v-20h-70v33q0 44 25.5 70t66.5 26q21 0 42.5 -7t49.5 -27q20 -14 30 -18t20 -4q31 0 31 34v20h70v-33q0 -43 -25.5 -69.5t-66.5 -26.5z" />
    <glyph glyph-name="uni0304" unicode="&#x304;" horiz-adv-x="0" 
d="M-150 702h300v-75h-300v75z" />
    <glyph glyph-name="uni0306" unicode="&#x306;" horiz-adv-x="0" 
d="M0 582q-68 0 -113 41.5t-50 114.5h80q4 -40 26 -63t57 -23t57 23t26 63h80q-5 -73 -50 -114.5t-113 -41.5z" />
    <glyph glyph-name="uni0307" unicode="&#x307;" horiz-adv-x="0" 
d="M0 600q-26 0 -43.5 18t-17.5 43t17.5 43t43.5 18t43.5 -18t17.5 -43t-17.5 -43t-43.5 -18z" />
    <glyph glyph-name="uni0308" unicode="&#x308;" horiz-adv-x="0" 
d="M92 603q-25 0 -41.5 16.5t-16.5 40.5t16.5 40.5t41.5 16.5q24 0 41 -16.5t17 -40.5t-17 -40.5t-41 -16.5zM-92 603q-24 0 -41 16.5t-17 40.5t17 40.5t41 16.5q25 0 41.5 -16.5t16.5 -40.5t-16.5 -40.5t-41.5 -16.5z" />
    <glyph glyph-name="hookabovecomb" unicode="&#x309;" horiz-adv-x="0" 
d="M-55 567l-17 61l42 12q31 9 47.5 18.5t16.5 26.5q0 30 -49 30h-84v63h90q57 0 87.5 -24t30.5 -68q0 -46 -32.5 -68t-87.5 -38z" />
    <glyph glyph-name="uni030A" unicode="&#x30a;" horiz-adv-x="0" 
d="M0 567q-34 0 -61 16t-43 43t-16 59t16 59t43 43t61 16t61 -16t43 -43t16 -59t-16 -59t-43 -43t-61 -16zM0 627q25 0 41 16.5t16 41.5t-16 41.5t-41 16.5t-41 -16.5t-16 -41.5t16 -41.5t41 -16.5z" />
    <glyph glyph-name="uni030B" unicode="&#x30b;" horiz-adv-x="0" 
d="M42 585l85 155h92l-95 -155h-82zM-123 585l75 155h92l-85 -155h-82z" />
    <glyph glyph-name="uni030C" unicode="&#x30c;" horiz-adv-x="0" 
d="M-50 585l-120 155h90l80 -96l80 96h90l-120 -155h-100z" />
    <glyph glyph-name="uni0312" unicode="&#x312;" horiz-adv-x="0" 
d="M2 571q-31 0 -48 18t-17 46q0 31 14.5 68t47.5 83h70q-24 -33 -37 -57.5t-23 -52.5q24 -2 38 -16t14 -36t-16 -37.5t-43 -15.5z" />
    <glyph glyph-name="uni0315" unicode="&#x315;" horiz-adv-x="0" 
d="M-2 500l6 225h87l-23 -225h-70z" />
    <glyph glyph-name="uni031B" unicode="&#x31b;" horiz-adv-x="0" 
d="M-95 512q72 0 72 80v38h80v-45q0 -69 -36.5 -105.5t-107.5 -36.5h-48v69h40z" />
    <glyph glyph-name="dotbelowcomb" unicode="&#x323;" horiz-adv-x="0" 
d="M0 -189q-26 0 -43.5 17.5t-17.5 43.5t17.5 43.5t43.5 17.5t43.5 -17.5t17.5 -43.5t-17.5 -43.5t-43.5 -17.5z" />
    <glyph glyph-name="uni0326" unicode="&#x326;" horiz-adv-x="0" 
d="M-63 -255q22 32 33.5 52.5t20.5 46.5q-24 2 -38 16t-14 35q0 23 16 38.5t43 15.5q30 0 47.5 -18.5t17.5 -46.5q0 -30 -13 -62.5t-44 -76.5h-69z" />
    <glyph glyph-name="uni0327" unicode="&#x327;" horiz-adv-x="0" 
d="M-82 -240v62h48q28 0 43.5 8.5t15.5 27.5q0 35 -54 35h-40l44 134h63l-30 -79q41 -1 67.5 -26t26.5 -66q0 -45 -31.5 -70.5t-85.5 -25.5h-67z" />
    <glyph glyph-name="uni0328" unicode="&#x328;" horiz-adv-x="0" 
d="M9 -240q-61 0 -96.5 30t-35.5 78q0 95 127 155l40 -23q-50 -32 -68.5 -60t-18.5 -56t19.5 -43t49.5 -15h32v-66h-49z" />
    <glyph glyph-name="uni0329" unicode="&#x329;" horiz-adv-x="0" 
d="M-42 -251v195h83v-195h-83z" />
    <glyph glyph-name="uni0338" unicode="&#x338;" horiz-adv-x="0" 
d="M-204 -146l355 966h52l-354 -966h-53z" />
    <glyph glyph-name="uni0344" unicode="&#x344;" horiz-adv-x="0" 
d="M-40 764l76 168h89l-86 -168h-79zM-93 602q-24 0 -40.5 16.5t-16.5 40.5q0 23 16.5 39.5t40.5 16.5t40.5 -16.5t16.5 -39.5q0 -24 -16.5 -40.5t-40.5 -16.5zM93 602q-24 0 -40.5 16.5t-16.5 40.5q0 23 16.5 39.5t40.5 16.5t40.5 -16.5t16.5 -39.5q0 -24 -16.5 -40.5
t-40.5 -16.5z" />
    <glyph glyph-name="uni0374" unicode="&#x374;" horiz-adv-x="251" 
d="M40 450l88 246h83l-99 -246h-72z" />
    <glyph glyph-name="uni0375" unicode="&#x375;" horiz-adv-x="251" 
d="M40 -236l88 236h83l-99 -236h-72z" />
    <glyph glyph-name="uni037E" unicode="&#x37e;" horiz-adv-x="272" 
d="M31 -171q38 57 60 96t30 71q-25 3 -39.5 19t-14.5 38q0 25 17.5 43t47.5 18q31 0 50 -20t19 -54q0 -44 -22.5 -95.5t-66.5 -115.5h-81zM136 395q-27 0 -46.5 19t-19.5 47t19.5 47t46.5 19t46.5 -19t19.5 -47t-19.5 -47t-46.5 -19z" />
    <glyph glyph-name="tonos" unicode="&#x384;" horiz-adv-x="575" 
d="M204 585l77 168h90l-84 -168h-83z" />
    <glyph glyph-name="dieresistonos" unicode="&#x385;" horiz-adv-x="575" 
d="M247 764l76 168h89l-86 -168h-79zM194 602q-24 0 -40.5 16.5t-16.5 40.5q0 23 16.5 39.5t40.5 16.5t40.5 -16.5t16.5 -39.5q0 -24 -16.5 -40.5t-40.5 -16.5zM380 602q-24 0 -40.5 16.5t-16.5 40.5q0 23 16.5 39.5t40.5 16.5t40.5 -16.5t16.5 -39.5q0 -24 -16.5 -40.5
t-40.5 -16.5z" />
    <glyph glyph-name="Alphatonos" unicode="&#x386;" horiz-adv-x="693" 
d="M574 0l-73 187h-309l-72 -187h-98l278 696h96l279 -696h-101zM224 272h244l-122 316zM15 528l66 168h89l-76 -168h-79z" />
    <glyph glyph-name="anoteleia" unicode="&#x387;" horiz-adv-x="272" 
d="M136 395q-27 0 -46.5 19t-19.5 47t19.5 47t46.5 19t46.5 -19t19.5 -47t-19.5 -47t-46.5 -19z" />
    <glyph glyph-name="Epsilontonos" unicode="&#x388;" horiz-adv-x="807" 
d="M256 0v696h483v-85h-388v-211h377v-85h-377v-230h393v-85h-488zM15 528l66 168h89l-76 -168h-79z" />
    <glyph glyph-name="Etatonos" unicode="&#x389;" horiz-adv-x="933" 
d="M256 0v696h95v-288h397v288h95v-696h-95v323h-397v-323h-95zM15 528l66 168h89l-76 -168h-79z" />
    <glyph glyph-name="Iotatonos" unicode="&#x38a;" horiz-adv-x="441" 
d="M351 0h-95v696h95v-696zM15 528l66 168h89l-76 -168h-79z" />
    <glyph glyph-name="Omicrontonos" unicode="&#x38c;" horiz-adv-x="911" 
d="M518 -15q-75 0 -138 27t-109 76t-71.5 115t-25.5 145t25.5 145t71.5 115t109 76t138 27t138 -27t109 -76t71.5 -115t25.5 -145t-25.5 -145t-71.5 -115t-109 -76t-138 -27zM518 72q72 0 127.5 35t87.5 97.5t32 143.5t-32 143.5t-87.5 97.5t-127.5 35t-127.5 -35
t-87.5 -97.5t-32 -143.5t32 -143.5t87.5 -97.5t127.5 -35zM15 528l66 168h89l-76 -168h-79z" />
    <glyph glyph-name="Upsilontonos" unicode="&#x38e;" horiz-adv-x="860" 
d="M491 0v268l-260 428h110l200 -337l197 337h106l-258 -426v-270h-95zM15 528l66 168h89l-76 -168h-79z" />
    <glyph glyph-name="Omegatonos" unicode="&#x38f;" horiz-adv-x="915" 
d="M177 0v85h142q-66 48 -105 124.5t-39 163.5q0 72 25 133.5t70.5 107.5t108 71.5t136.5 25.5t136.5 -25.5t108 -71.5t70.5 -107.5t25 -133.5q0 -87 -39 -163.5t-105 -124.5h142v-85h-270v81q52 27 91 70.5t61.5 98t22.5 114.5q0 73 -31 132t-85.5 93.5t-126.5 34.5
t-126.5 -34.5t-85.5 -93.5t-31 -132q0 -60 22.5 -114.5t61.5 -98t91 -70.5v-81h-270zM15 528l66 168h89l-76 -168h-79z" />
    <glyph glyph-name="iotadieresistonos" unicode="&#x390;" horiz-adv-x="291" 
d="M70 154v358h89v-351q0 -85 79 -85h33v-80h-50q-73 0 -112 40.5t-39 117.5zM75 764l76 168h89l-86 -168h-79zM22 602q-24 0 -40.5 16.5t-16.5 40.5q0 23 16.5 39.5t40.5 16.5t40.5 -16.5t16.5 -39.5q0 -24 -16.5 -40.5t-40.5 -16.5zM208 602q-24 0 -40.5 16.5t-16.5 40.5
q0 23 16.5 39.5t40.5 16.5t40.5 -16.5t16.5 -39.5q0 -24 -16.5 -40.5t-40.5 -16.5z" />
    <glyph glyph-name="Alpha" unicode="&#x391;" horiz-adv-x="689" 
d="M570 0l-73 187h-309l-72 -187h-98l278 696h96l279 -696h-101zM220 272h244l-122 316z" />
    <glyph glyph-name="Beta" unicode="&#x392;" horiz-adv-x="688" 
d="M90 0v696h283q115 0 177 -49t62 -135q0 -53 -30 -91t-83 -58q70 -19 104 -62.5t34 -104.5q0 -90 -66 -143t-185 -53h-296zM362 611h-177v-210h177q72 0 113 27t41 78q0 105 -154 105zM378 316h-193v-231h193q162 0 162 116q0 55 -42 85t-120 30z" />
    <glyph glyph-name="Gamma" unicode="&#x393;" horiz-adv-x="589" 
d="M90 0v696h459v-85h-364v-611h-95z" />
    <glyph glyph-name="uni0394" unicode="&#x394;" horiz-adv-x="711" 
d="M404 696l267 -614v-82h-631v82l266 614h98zM137 85h431l-215 511z" />
    <glyph glyph-name="Epsilon" unicode="&#x395;" horiz-adv-x="641" 
d="M90 0v696h483v-85h-388v-211h377v-85h-377v-230h393v-85h-488z" />
    <glyph glyph-name="Zeta" unicode="&#x396;" horiz-adv-x="621" 
d="M45 696h525v-81l-409 -530h416v-85h-532v81l409 530h-409v85z" />
    <glyph glyph-name="Eta" unicode="&#x397;" horiz-adv-x="767" 
d="M90 0v696h95v-288h397v288h95v-696h-95v323h-397v-323h-95z" />
    <glyph glyph-name="Theta" unicode="&#x398;" horiz-adv-x="786" 
d="M393 -15q-75 0 -138 27t-109 76t-71.5 115t-25.5 145t25.5 145t71.5 115t109 76t138 27t138 -27t109 -76t71.5 -115t25.5 -145t-25.5 -145t-71.5 -115t-109 -76t-138 -27zM393 72q72 0 127.5 35t87.5 97.5t32 143.5t-32 143.5t-87.5 97.5t-127.5 35t-127.5 -35
t-87.5 -97.5t-32 -143.5t32 -143.5t87.5 -97.5t127.5 -35zM263 304v87h260v-87h-260z" />
    <glyph glyph-name="Iota" unicode="&#x399;" horiz-adv-x="275" 
d="M185 0h-95v696h95v-696z" />
    <glyph glyph-name="Kappa" unicode="&#x39a;" horiz-adv-x="660" 
d="M90 0v696h95v-299l325 299h122l-367 -335l384 -361h-130l-334 314v-314h-95z" />
    <glyph glyph-name="Lambda" unicode="&#x39b;" horiz-adv-x="680" 
d="M560 0l-221 583l-223 -583h-98l275 696h96l273 -696h-102z" />
    <glyph glyph-name="Mu" unicode="&#x39c;" horiz-adv-x="888" 
d="M183 0h-93v696h104l252 -405l248 405h104v-696h-94v553l-260 -423l-261 421v-551z" />
    <glyph glyph-name="Nu" unicode="&#x39d;" horiz-adv-x="765" 
d="M90 0v696h94l397 -546v546h94v-696h-94l-397 546v-546h-94z" />
    <glyph glyph-name="Xi" unicode="&#x39e;" 
d="M65 611v85h482v-85h-482zM144 315v85h324v-85h-324zM58 0v85h496v-85h-496z" />
    <glyph glyph-name="Omicron" unicode="&#x39f;" horiz-adv-x="786" 
d="M393 -15q-75 0 -138 27t-109 76t-71.5 115t-25.5 145t25.5 145t71.5 115t109 76t138 27t138 -27t109 -76t71.5 -115t25.5 -145t-25.5 -145t-71.5 -115t-109 -76t-138 -27zM393 72q72 0 127.5 35t87.5 97.5t32 143.5t-32 143.5t-87.5 97.5t-127.5 35t-127.5 -35
t-87.5 -97.5t-32 -143.5t32 -143.5t87.5 -97.5t127.5 -35z" />
    <glyph glyph-name="Pi" unicode="&#x3a0;" horiz-adv-x="754" 
d="M90 0v696h574v-696h-95v611h-384v-611h-95z" />
    <glyph glyph-name="Rho" unicode="&#x3a1;" horiz-adv-x="659" 
d="M90 0v696h256q134 0 203 -61t69 -161q0 -101 -69 -162t-203 -61h-161v-251h-95zM185 336h148q95 0 141.5 36t46.5 102q0 65 -46.5 101t-141.5 36h-148v-275z" />
    <glyph glyph-name="Sigma" unicode="&#x3a3;" horiz-adv-x="602" 
d="M559 85v-85h-514v82l256 266l-256 266v82h509v-85h-387l254 -263l-255 -263h393z" />
    <glyph glyph-name="Tau" unicode="&#x3a4;" horiz-adv-x="669" 
d="M382 0h-95v611h-247v85h589v-85h-247v-611z" />
    <glyph glyph-name="Upsilon" unicode="&#x3a5;" horiz-adv-x="644" 
d="M275 0v268l-260 428h110l200 -337l197 337h106l-258 -426v-270h-95z" />
    <glyph glyph-name="Phi" unicode="&#x3a6;" horiz-adv-x="815" 
d="M361 0v82q-94 4 -166 41.5t-113 100t-41 141.5t41 141.5t113 99.5t166 41v82h93v-82q94 -4 166 -41t113 -99.5t41 -141.5t-41 -141.5t-113 -100t-166 -41.5v-82h-93zM137 365q0 -55 28.5 -98.5t79 -70t116.5 -30.5v398q-66 -4 -116.5 -30.5t-79 -70t-28.5 -98.5zM678 365
q0 55 -28.5 98.5t-79 70t-116.5 30.5v-398q66 4 116.5 30.5t79 70t28.5 98.5z" />
    <glyph glyph-name="Chi" unicode="&#x3a7;" horiz-adv-x="693" 
d="M20 0l265 363l-239 333h117l185 -262l184 262h113l-240 -333l266 -363h-117l-212 293l-209 -293h-113z" />
    <glyph glyph-name="Psi" unicode="&#x3a8;" horiz-adv-x="778" 
d="M343 0v186q-136 11 -212 87t-76 213v210h93v-210q0 -194 195 -213v423h93v-423q194 20 194 213v210h93v-210q0 -136 -75.5 -212.5t-211.5 -87.5v-186h-93z" />
    <glyph glyph-name="uni03A9" unicode="&#x3a9;" horiz-adv-x="800" 
d="M62 0v85h142q-66 48 -105 124.5t-39 163.5q0 72 25 133.5t70.5 107.5t108 71.5t136.5 25.5t136.5 -25.5t108 -71.5t70.5 -107.5t25 -133.5q0 -87 -39 -163.5t-105 -124.5h142v-85h-270v81q52 27 91 70.5t61.5 98t22.5 114.5q0 73 -31 132t-85.5 93.5t-126.5 34.5
t-126.5 -34.5t-85.5 -93.5t-31 -132q0 -60 22.5 -114.5t61.5 -98t91 -70.5v-81h-270z" />
    <glyph glyph-name="Iotadieresis" unicode="&#x3aa;" horiz-adv-x="275" 
d="M185 0h-95v696h95v-696zM241 787q-25 0 -41.5 16.5t-16.5 40.5t16.5 40.5t41.5 16.5q24 0 41 -16.5t17 -40.5t-17 -40.5t-41 -16.5zM33 787q-24 0 -41 16.5t-17 40.5t17 40.5t41 16.5q25 0 41.5 -16.5t16.5 -40.5t-16.5 -40.5t-41.5 -16.5z" />
    <glyph glyph-name="Upsilondieresis" unicode="&#x3ab;" horiz-adv-x="644" 
d="M275 0v268l-260 428h110l200 -337l197 337h106l-258 -426v-270h-95zM425 787q-25 0 -41.5 16.5t-16.5 40.5t16.5 40.5t41.5 16.5q24 0 41 -16.5t17 -40.5t-17 -40.5t-41 -16.5zM217 787q-24 0 -41 16.5t-17 40.5t17 40.5t41 16.5q25 0 41.5 -16.5t16.5 -40.5t-16.5 -40.5
t-41.5 -16.5z" />
    <glyph glyph-name="alphatonos" unicode="&#x3ac;" horiz-adv-x="623" 
d="M260 -14q-65 0 -114 33.5t-76 94t-27 141.5t28.5 142t79.5 95t118 34q51 0 95 -26.5t72 -76.5q7 46 17 89h87q-12 -60 -19.5 -127t-7.5 -125v-34q0 -59 5.5 -91.5t21.5 -45t45 -12.5h11v-81h-25q-113 0 -133 96q-26 -50 -73 -78t-105 -28zM281 67q66 0 106.5 52t40.5 136
t-40.5 136.5t-106.5 52.5t-106.5 -52.5t-40.5 -136.5t40.5 -136t106.5 -52zM259 585l77 168h90l-84 -168h-83z" />
    <glyph glyph-name="epsilontonos" unicode="&#x3ad;" horiz-adv-x="524" 
d="M261 -14q-97 0 -156.5 41t-59.5 109q0 47 31.5 79.5t85.5 46.5q-50 12 -77.5 42.5t-27.5 75.5q0 42 26 75t71.5 52t103.5 19q87 0 144.5 -38t77.5 -111h-92q-16 36 -48 52.5t-79 16.5q-53 0 -83.5 -20t-30.5 -54t29.5 -53.5t85.5 -19.5h103v-77h-101q-60 0 -94 -21
t-34 -59q0 -37 35 -56.5t92 -19.5q53 0 87 15.5t47 51.5h92q-21 -75 -80 -111t-148 -36zM220 585l77 168h90l-84 -168h-83z" />
    <glyph glyph-name="etatonos" unicode="&#x3ae;" horiz-adv-x="600" 
d="M440 -205v505q0 67 -30 105.5t-88 38.5q-36 0 -66.5 -16.5t-49 -48t-18.5 -77.5v-302h-89v362q0 70 -58 70h-10v80h24q96 0 116 -81q25 44 68.5 69.5t97.5 25.5q91 0 141.5 -58.5t50.5 -150.5v-522h-89zM259 585l77 168h90l-84 -168h-83z" />
    <glyph glyph-name="iotatonos" unicode="&#x3af;" horiz-adv-x="291" 
d="M70 154v358h89v-351q0 -85 79 -85h33v-80h-50q-73 0 -112 40.5t-39 117.5zM69 585l77 168h90l-84 -168h-83z" />
    <glyph glyph-name="upsilondieresistonos" unicode="&#x3b0;" horiz-adv-x="569" 
d="M304 -14q-104 0 -159.5 62t-55.5 180v134q0 70 -57 70h-9v80h23q132 0 132 -143v-141q0 -162 126 -162q64 0 96.5 53.5t32.5 146.5q0 37 -6.5 80.5t-17.5 86.5t-26 79h91q24 -56 36.5 -120t12.5 -125q0 -131 -57.5 -206t-161.5 -75zM226 764l76 168h89l-86 -168h-79z
M173 602q-24 0 -40.5 16.5t-16.5 40.5q0 23 16.5 39.5t40.5 16.5t40.5 -16.5t16.5 -39.5q0 -24 -16.5 -40.5t-40.5 -16.5zM359 602q-24 0 -40.5 16.5t-16.5 40.5q0 23 16.5 39.5t40.5 16.5t40.5 -16.5t16.5 -39.5q0 -24 -16.5 -40.5t-40.5 -16.5z" />
    <glyph glyph-name="alpha" unicode="&#x3b1;" horiz-adv-x="623" 
d="M260 -14q-65 0 -114 33.5t-76 94t-27 141.5t28.5 142t79.5 95t118 34q51 0 95 -26.5t72 -76.5q7 46 17 89h87q-12 -60 -19.5 -127t-7.5 -125v-34q0 -59 5.5 -91.5t21.5 -45t45 -12.5h11v-81h-25q-113 0 -133 96q-26 -50 -73 -78t-105 -28zM281 67q66 0 106.5 52t40.5 136
t-40.5 136.5t-106.5 52.5t-106.5 -52.5t-40.5 -136.5t40.5 -136t106.5 -52z" />
    <glyph glyph-name="beta" unicode="&#x3b2;" horiz-adv-x="578" 
d="M336 -14q-115 0 -172 86v-277h-89v687q0 78 27 136t76 89.5t115 31.5q57 0 101.5 -24t70 -66.5t25.5 -97.5q0 -56 -31.5 -100.5t-80.5 -60.5q71 -17 114 -69.5t43 -132.5q0 -58 -24.5 -104t-69.5 -72t-105 -26zM164 239q0 -79 42.5 -125.5t111.5 -46.5q58 0 92 36.5
t34 94.5q0 70 -44 108.5t-117 38.5h-38v78h36q51 0 84.5 34t33.5 86t-29 83t-80 31q-57 0 -91.5 -43.5t-34.5 -123.5v-251z" />
    <glyph glyph-name="gamma" unicode="&#x3b3;" horiz-adv-x="543" 
d="M227 -205v205l-121 328q-16 44 -28 66t-24.5 30t-31.5 8h-6v80h7q44 0 72 -11t47.5 -41t38.5 -85l99 -290q39 68 69.5 143t49 148.5t23.5 135.5h91q-7 -78 -34 -169t-69 -180t-94 -163v-205h-89z" />
    <glyph glyph-name="delta" unicode="&#x3b4;" horiz-adv-x="568" 
d="M284 -14q-72 0 -126 28.5t-84.5 79t-30.5 117.5q0 78 44.5 139t122.5 96q-52 29 -82 63t-30 81q0 42 26 76t74.5 53.5t114.5 19.5q43 0 80.5 -6.5t67.5 -21.5v-78q-27 11 -64.5 17.5t-80.5 6.5q-62 0 -94.5 -17.5t-32.5 -49.5q0 -26 21.5 -44t64.5 -41l62 -32
q89 -47 138.5 -109t49.5 -147q0 -69 -30.5 -121t-84.5 -81t-126 -29zM133 218q0 -68 42.5 -109t108.5 -41t108 42.5t42 110.5q0 39 -19.5 73.5t-51 61.5t-68.5 46l-21 11q-66 -29 -103.5 -79t-37.5 -116z" />
    <glyph glyph-name="epsilon" unicode="&#x3b5;" horiz-adv-x="524" 
d="M261 -14q-97 0 -156.5 41t-59.5 109q0 47 31.5 79.5t85.5 46.5q-50 12 -77.5 42.5t-27.5 75.5q0 42 26 75t71.5 52t103.5 19q87 0 144.5 -38t77.5 -111h-92q-16 36 -48 52.5t-79 16.5q-53 0 -83.5 -20t-30.5 -54t29.5 -53.5t85.5 -19.5h103v-77h-101q-60 0 -94 -21
t-34 -59q0 -37 35 -56.5t92 -19.5q53 0 87 15.5t47 51.5h92q-21 -75 -80 -111t-148 -36z" />
    <glyph glyph-name="zeta" unicode="&#x3b6;" horiz-adv-x="437" 
d="M372 -155v39q0 54 -20.5 83t-69.5 38l-48 9q-93 18 -142 67t-49 139q0 101 67.5 205.5t209.5 219.5h-248v80h363v-71q-301 -247 -301 -425q0 -63 33 -94.5t99 -44.5l47 -9q72 -13 105 -57.5t33 -134.5v-44h-79z" />
    <glyph glyph-name="eta" unicode="&#x3b7;" horiz-adv-x="600" 
d="M440 -205v505q0 67 -30 105.5t-88 38.5q-36 0 -66.5 -16.5t-49 -48t-18.5 -77.5v-302h-89v362q0 70 -58 70h-10v80h24q96 0 116 -81q25 44 68.5 69.5t97.5 25.5q91 0 141.5 -58.5t50.5 -150.5v-522h-89z" />
    <glyph glyph-name="theta" unicode="&#x3b8;" horiz-adv-x="575" 
d="M288 -14q-76 0 -129.5 45.5t-82 130t-28.5 201.5t28.5 201.5t82 129.5t129.5 45t129.5 -45.5t82 -129.5t28.5 -202q0 -117 -28.5 -201.5t-82 -129.5t-129.5 -45zM288 657q-67 0 -107.5 -64.5t-45.5 -188.5h306q-5 124 -45.5 188.5t-107.5 64.5zM288 68q68 0 108.5 66.5
t44.5 192.5h-306q4 -126 44.5 -192.5t108.5 -66.5z" />
    <glyph glyph-name="iota" unicode="&#x3b9;" horiz-adv-x="291" 
d="M70 154v358h89v-351q0 -85 79 -85h33v-80h-50q-73 0 -112 40.5t-39 117.5z" />
    <glyph glyph-name="kappa" unicode="&#x3ba;" horiz-adv-x="541" 
d="M75 0v512h89v-234l159 154q45 44 81 62t77 18h12v-80h-12q-52 0 -109 -54l-99 -96l258 -282h-112l-205 226l-50 -48v-178h-89z" />
    <glyph glyph-name="lambda" unicode="&#x3bb;" horiz-adv-x="534" 
d="M27 0l184 495l-25 62q-20 49 -43 69.5t-58 20.5h-21v78h22q69 0 110.5 -33t69.5 -108l171 -446q13 -34 30 -48t40 -14h11v-80h-13q-59 0 -91 25t-55 87l-106 281l-133 -389h-93z" />
    <glyph glyph-name="uni03BC" unicode="&#x3bc;" horiz-adv-x="597" 
d="M75 -205v717h89v-305q0 -62 32.5 -100.5t88.5 -38.5q53 0 90 37t37 102v305h89v-365q0 -71 59 -71h11v-80h-27q-94 0 -114 82q-19 -41 -55 -66.5t-88 -25.5q-44 0 -77 19t-51 52v-262h-84z" />
    <glyph glyph-name="nu" unicode="&#x3bd;" horiz-adv-x="539" 
d="M226 0l-120 327q-16 43 -28 65.5t-24.5 30.5t-31.5 8h-6v80h7q45 0 72.5 -11.5t47 -41t38.5 -84.5l99 -287q36 63 65.5 137t48.5 148t25 139h90q-5 -53 -21 -118t-41.5 -133.5t-58.5 -135.5t-71 -124h-91z" />
    <glyph glyph-name="xi" unicode="&#x3be;" horiz-adv-x="457" 
d="M384 -155v39q0 54 -20.5 83t-69.5 38l-48 9q-95 18 -147.5 64.5t-52.5 126.5q0 68 41.5 118.5t107.5 64.5q-48 11 -80 49.5t-32 89.5q0 39 21 70t58 48h-113v80h370v-80h-74q-81 0 -126 -28.5t-45 -82.5q0 -51 35.5 -80t96.5 -29h84v-80h-84q-79 0 -124.5 -33.5
t-45.5 -94.5q0 -55 35.5 -84t106.5 -43l47 -9q72 -13 105 -57.5t33 -134.5v-44h-79z" />
    <glyph glyph-name="omicron" unicode="&#x3bf;" horiz-adv-x="570" 
d="M285 -14q-71 0 -126 34.5t-85.5 95t-30.5 140.5t30.5 140.5t85.5 95t126 34.5t126 -34.5t85.5 -95t30.5 -140.5t-30.5 -140.5t-85.5 -95t-126 -34.5zM285 68q68 0 109.5 52.5t41.5 135.5t-41.5 135.5t-109.5 52.5t-109.5 -52.5t-41.5 -135.5t41.5 -135.5t109.5 -52.5z
" />
    <glyph glyph-name="pi" unicode="&#x3c0;" horiz-adv-x="617" 
d="M116 0v432h-95v80h561v-80h-95v-271q0 -85 76 -85h10v-80h-27q-148 0 -148 158v278h-193v-432h-89z" />
    <glyph glyph-name="rho" unicode="&#x3c1;" horiz-adv-x="589" 
d="M68 -205v440q0 137 64.5 214t173.5 77q71 0 125 -34.5t84.5 -95t30.5 -140.5t-29 -141t-80 -95t-117 -34q-53 0 -97 25.5t-66 67.5v-284h-89zM306 68q67 0 108 52t41 136t-41 136t-108 52t-108 -52t-41 -136t41 -136t108 -52z" />
    <glyph glyph-name="sigma1" unicode="&#x3c2;" horiz-adv-x="528" 
d="M396 -155v39q0 54 -19 83t-65 38l-48 9q-105 20 -163 84.5t-58 166.5q0 76 29.5 135t83.5 92.5t125 33.5q85 0 141.5 -47t68.5 -123h-93q-7 39 -37 63.5t-79 24.5q-68 0 -108 -49.5t-40 -127.5q0 -74 43 -118t119 -59l47 -9q70 -13 101 -57.5t31 -134.5v-44h-79z" />
    <glyph glyph-name="sigma" unicode="&#x3c3;" horiz-adv-x="603" 
d="M283 -14q-72 0 -126 32.5t-84 91t-30 134.5q0 84 34.5 144t96.5 92t146 32h256v-80h-146q48 -38 72 -90t24 -104q0 -73 -30 -130t-85 -89.5t-128 -32.5zM285 68q67 0 108.5 50t41.5 128q0 58 -24.5 106t-71.5 80h-25q-80 0 -130 -49t-50 -138q0 -51 19 -91t53 -63t79 -23
z" />
    <glyph glyph-name="tau" unicode="&#x3c4;" horiz-adv-x="475" 
d="M318 -4q-74 0 -112.5 40.5t-38.5 117.5v278h-148v80h423v-80h-186v-271q0 -85 78 -85h50v-80h-66z" />
    <glyph glyph-name="upsilon" unicode="&#x3c5;" horiz-adv-x="569" 
d="M304 -14q-104 0 -159.5 62t-55.5 180v134q0 70 -57 70h-9v80h23q132 0 132 -143v-141q0 -162 126 -162q64 0 96.5 53.5t32.5 146.5q0 37 -6.5 80.5t-17.5 86.5t-26 79h91q24 -56 36.5 -120t12.5 -125q0 -131 -57.5 -206t-161.5 -75z" />
    <glyph glyph-name="phi" unicode="&#x3c6;" horiz-adv-x="743" 
d="M327 -205v206q-84 5 -148.5 38.5t-101.5 89t-37 127.5t37 127.5t101.5 89t148.5 38.5v144q44 3 89 17v-161q84 -5 148.5 -38.5t101.5 -89t37 -127.5t-37 -127.5t-101.5 -89t-148.5 -38.5v-206h-89zM613 256q0 75 -55 123.5t-142 55.5v-358q87 7 142 55.5t55 123.5z
M130 256q0 -75 55 -123.5t142 -55.5v358q-87 -7 -142 -55.5t-55 -123.5z" />
    <glyph glyph-name="chi" unicode="&#x3c7;" horiz-adv-x="509" 
d="M18 -205l186 362l-98 196q-21 42 -36.5 60.5t-38.5 18.5h-15v80h14q38 0 63.5 -11t46 -37t42.5 -72l73 -150l137 270h92l-181 -354l102 -205q23 -47 39.5 -64.5t37.5 -17.5h15v-80h-17q-35 0 -58.5 9.5t-44 36t-46.5 78.5l-79 157l-142 -277h-92z" />
    <glyph glyph-name="psi" unicode="&#x3c8;" horiz-adv-x="728" 
d="M324 -205v193q-127 11 -198 86t-71 199v239h89v-239q0 -87 47 -139.5t133 -62.5v584q44 3 89 17v-602q179 20 179 220q0 49 -8.5 108.5t-24.5 113.5h90q16 -53 24.5 -112.5t8.5 -108.5q0 -136 -71.5 -213.5t-197.5 -89.5v-193h-89z" />
    <glyph glyph-name="omega" unicode="&#x3c9;" horiz-adv-x="780" 
d="M236 -14q-90 0 -140.5 72t-50.5 195q0 143 75 259h91q-76 -130 -76 -260q0 -86 29.5 -135t84.5 -49q47 0 72.5 41.5t25.5 116.5v143h86v-143q0 -75 25.5 -116.5t72.5 -41.5q55 0 84.5 49t29.5 135q0 130 -76 260h91q75 -116 75 -259q0 -123 -50.5 -195t-140.5 -72
q-57 0 -98 31t-56 82q-15 -52 -56 -82.5t-98 -30.5z" />
    <glyph glyph-name="iotadieresis" unicode="&#x3ca;" horiz-adv-x="291" 
d="M70 154v358h89v-351q0 -85 79 -85h33v-80h-50q-73 0 -112 40.5t-39 117.5zM207 603q-25 0 -41.5 16.5t-16.5 40.5t16.5 40.5t41.5 16.5q24 0 41 -16.5t17 -40.5t-17 -40.5t-41 -16.5zM23 603q-24 0 -41 16.5t-17 40.5t17 40.5t41 16.5q25 0 41.5 -16.5t16.5 -40.5
t-16.5 -40.5t-41.5 -16.5z" />
    <glyph glyph-name="upsilondieresis" unicode="&#x3cb;" horiz-adv-x="569" 
d="M304 -14q-104 0 -159.5 62t-55.5 180v134q0 70 -57 70h-9v80h23q132 0 132 -143v-141q0 -162 126 -162q64 0 96.5 53.5t32.5 146.5q0 37 -6.5 80.5t-17.5 86.5t-26 79h91q24 -56 36.5 -120t12.5 -125q0 -131 -57.5 -206t-161.5 -75zM358 603q-25 0 -41.5 16.5t-16.5 40.5
t16.5 40.5t41.5 16.5q24 0 41 -16.5t17 -40.5t-17 -40.5t-41 -16.5zM174 603q-24 0 -41 16.5t-17 40.5t17 40.5t41 16.5q25 0 41.5 -16.5t16.5 -40.5t-16.5 -40.5t-41.5 -16.5z" />
    <glyph glyph-name="omicrontonos" unicode="&#x3cc;" horiz-adv-x="570" 
d="M285 -14q-71 0 -126 34.5t-85.5 95t-30.5 140.5t30.5 140.5t85.5 95t126 34.5t126 -34.5t85.5 -95t30.5 -140.5t-30.5 -140.5t-85.5 -95t-126 -34.5zM285 68q68 0 109.5 52.5t41.5 135.5t-41.5 135.5t-109.5 52.5t-109.5 -52.5t-41.5 -135.5t41.5 -135.5t109.5 -52.5z
M239 585l77 168h90l-84 -168h-83z" />
    <glyph glyph-name="upsilontonos" unicode="&#x3cd;" horiz-adv-x="569" 
d="M304 -14q-104 0 -159.5 62t-55.5 180v134q0 70 -57 70h-9v80h23q132 0 132 -143v-141q0 -162 126 -162q64 0 96.5 53.5t32.5 146.5q0 37 -6.5 80.5t-17.5 86.5t-26 79h91q24 -56 36.5 -120t12.5 -125q0 -131 -57.5 -206t-161.5 -75zM220 585l77 168h90l-84 -168h-83z" />
    <glyph glyph-name="omegatonos" unicode="&#x3ce;" horiz-adv-x="780" 
d="M236 -14q-90 0 -140.5 72t-50.5 195q0 143 75 259h91q-76 -130 -76 -260q0 -86 29.5 -135t84.5 -49q47 0 72.5 41.5t25.5 116.5v143h86v-143q0 -75 25.5 -116.5t72.5 -41.5q55 0 84.5 49t29.5 135q0 130 -76 260h91q75 -116 75 -259q0 -123 -50.5 -195t-140.5 -72
q-57 0 -98 31t-56 82q-15 -52 -56 -82.5t-98 -30.5zM344 585l77 168h90l-84 -168h-83z" />
    <glyph glyph-name="uni0400" unicode="&#x400;" horiz-adv-x="641" 
d="M90 0v696h483v-85h-388v-211h377v-85h-377v-230h393v-85h-488zM293 770l-99 147h99l88 -147h-88z" />
    <glyph glyph-name="uni0401" unicode="&#x401;" horiz-adv-x="641" 
d="M90 0v696h483v-85h-388v-211h377v-85h-377v-230h393v-85h-488zM435 787q-25 0 -41.5 16.5t-16.5 40.5t16.5 40.5t41.5 16.5q24 0 41 -16.5t17 -40.5t-17 -40.5t-41 -16.5zM227 787q-24 0 -41 16.5t-17 40.5t17 40.5t41 16.5q25 0 41.5 -16.5t16.5 -40.5t-16.5 -40.5
t-41.5 -16.5z" />
    <glyph glyph-name="uni0402" unicode="&#x402;" horiz-adv-x="820" 
d="M236 0v611h-196v85h527v-85h-236v-211q43 22 92.5 34.5t99.5 12.5q77 0 134 -28t88.5 -79t31.5 -119q0 -69 -33 -120t-93.5 -78.5t-141.5 -27.5h-24v81h24q77 0 124 40t47 105q0 64 -45 101t-122 37q-50 0 -98.5 -15t-83.5 -40v-304h-95z" />
    <glyph glyph-name="uni0403" unicode="&#x403;" horiz-adv-x="589" 
d="M90 0v696h459v-85h-364v-611h-95zM361 770h-88l88 147h99z" />
    <glyph glyph-name="uni0404" unicode="&#x404;" horiz-adv-x="714" 
d="M375 -15q-97 0 -170.5 45.5t-114.5 127.5t-41 190t41 190t114.5 127.5t170.5 45.5q115 0 191.5 -59t103.5 -168h-100q-18 67 -69 103.5t-127 36.5q-94 0 -155 -62t-73 -168h346v-85h-346q10 -108 71 -172.5t157 -64.5q76 0 128 35.5t68 98.5h100q-26 -105 -103.5 -163
t-191.5 -58z" />
    <glyph glyph-name="uni0405" unicode="&#x405;" horiz-adv-x="635" 
d="M324 -15q-112 0 -187.5 52t-98.5 146h97q17 -52 66 -81.5t122 -29.5q71 0 119 29.5t48 85.5q0 31 -13 54.5t-46 40t-95 25.5l-83 13q-101 16 -149 60t-48 128q0 62 34.5 107.5t93 70.5t130.5 25q66 0 121.5 -21t92.5 -62.5t49 -105.5h-97q-13 54 -56.5 78t-108.5 24
q-73 0 -117.5 -29.5t-44.5 -81.5q0 -45 31 -70t118 -38l78 -12q106 -17 156.5 -66t50.5 -134q0 -65 -34 -112t-93.5 -71.5t-135.5 -24.5z" />
    <glyph glyph-name="uni0406" unicode="&#x406;" horiz-adv-x="275" 
d="M185 0h-95v696h95v-696z" />
    <glyph glyph-name="uni0407" unicode="&#x407;" horiz-adv-x="275" 
d="M185 0h-95v696h95v-696zM241 787q-25 0 -41.5 16.5t-16.5 40.5t16.5 40.5t41.5 16.5q24 0 41 -16.5t17 -40.5t-17 -40.5t-41 -16.5zM33 787q-24 0 -41 16.5t-17 40.5t17 40.5t41 16.5q25 0 41.5 -16.5t16.5 -40.5t-16.5 -40.5t-41.5 -16.5z" />
    <glyph glyph-name="uni0408" unicode="&#x408;" horiz-adv-x="605" 
d="M430 217v479h95v-480q0 -68 -29 -120t-82.5 -81.5t-128.5 -29.5q-109 0 -177 60t-79 158h95q8 -61 51 -96t110 -35q65 0 105 40t40 105z" />
    <glyph glyph-name="uni0409" unicode="&#x409;" horiz-adv-x="1124" 
d="M27 -6v84h20q56 0 88.5 51t32.5 139v428h493v-276h170q119 0 185.5 -55.5t66.5 -154.5t-66.5 -154.5t-185.5 -55.5h-265v611h-308v-343q0 -84 -24 -145.5t-68.5 -95t-104.5 -33.5h-34zM823 335h-162v-250h162q77 0 120 33t43 92t-43 92t-120 33z" />
    <glyph glyph-name="uni040A" unicode="&#x40a;" horiz-adv-x="1128" 
d="M90 0v696h95v-281h382v281h95v-281h173q119 0 185.5 -54.5t66.5 -152.5t-66.5 -153t-185.5 -55h-268v330h-382v-330h-95zM827 330h-165v-245h165q77 0 120 32.5t43 90.5t-43 90t-120 32z" />
    <glyph glyph-name="uni040B" unicode="&#x40b;" horiz-adv-x="838" 
d="M236 0v611h-196v85h527v-85h-236v-212q79 47 184 47q129 0 197.5 -70t68.5 -203v-173h-95v165q0 194 -186 194q-50 0 -94.5 -14t-74.5 -38v-307h-95z" />
    <glyph glyph-name="uni040C" unicode="&#x40c;" horiz-adv-x="676" 
d="M90 0v696h94v-296h141l226 296h109l-262 -340l267 -356h-114l-236 315h-131v-315h-94zM393 770h-88l88 147h99z" />
    <glyph glyph-name="uni040D" unicode="&#x40d;" horiz-adv-x="781" 
d="M90 0v696h95v-549l418 549h88v-696h-95v549l-419 -549h-87zM353 770l-99 147h99l88 -147h-88z" />
    <glyph glyph-name="uni040E" unicode="&#x40e;" horiz-adv-x="680" 
d="M131 -4v85h36q48 0 81 16.5t58 56.5l-291 542h107l234 -439l203 439h105l-266 -550q-40 -82 -92 -116t-138 -34h-37zM337 766q-81 0 -125 41t-50 112h81q5 -39 28 -61t66 -22t66 22t28 61h81q-6 -71 -50 -112t-125 -41z" />
    <glyph glyph-name="uni040F" unicode="&#x40f;" horiz-adv-x="749" 
d="M90 0v696h95v-611h379v611h95v-696h-239v-165h-90v165h-240z" />
    <glyph glyph-name="uni0410" unicode="&#x410;" horiz-adv-x="689" 
d="M570 0l-73 187h-309l-72 -187h-98l278 696h96l279 -696h-101zM220 272h244l-122 316z" />
    <glyph glyph-name="uni0411" unicode="&#x411;" horiz-adv-x="663" 
d="M90 0v696h489v-85h-394v-197h181q121 0 187.5 -54.5t66.5 -152.5t-66.5 -152.5t-187.5 -54.5h-276zM361 329h-176v-244h176q77 0 119.5 32t42.5 90t-42.5 90t-119.5 32z" />
    <glyph glyph-name="uni0412" unicode="&#x412;" horiz-adv-x="693" 
d="M90 0v696h294q113 0 176 -48.5t63 -135.5q0 -53 -30.5 -92t-84.5 -58q65 -18 99.5 -60.5t34.5 -105.5q0 -92 -67 -144t-184 -52h-301zM373 611h-188v-210h188q73 0 113.5 27.5t40.5 77.5q0 105 -154 105zM383 316h-198v-231h198q162 0 162 116q0 55 -42.5 85t-119.5 30z
" />
    <glyph glyph-name="uni0413" unicode="&#x413;" horiz-adv-x="589" 
d="M90 0v696h459v-85h-364v-611h-95z" />
    <glyph glyph-name="uni0414" unicode="&#x414;" horiz-adv-x="818" 
d="M34 -165v250h65q39 22 61.5 81t22.5 141v389h492v-611h109v-250h-90v165h-570v-165h-90zM273 307q0 -71 -19 -127.5t-53 -94.5h379v526h-307v-304z" />
    <glyph glyph-name="uni0415" unicode="&#x415;" horiz-adv-x="641" 
d="M90 0v696h483v-85h-388v-211h377v-85h-377v-230h393v-85h-488z" />
    <glyph glyph-name="uni0416" unicode="&#x416;" horiz-adv-x="1058" 
d="M11 0l264 356l-259 340h109l223 -296h134v296h94v-296h134l223 296h109l-259 -340l264 -356h-114l-234 316h-123v-316h-94v316h-123l-234 -316h-114z" />
    <glyph glyph-name="uni0417" unicode="&#x417;" horiz-adv-x="641" 
d="M325 -15q-113 0 -185 53t-94 153h99q14 -59 61 -90t120 -31q76 0 121.5 33.5t45.5 89.5t-45 88.5t-123 32.5h-72v83h69q73 0 115.5 30t42.5 81q0 53 -42.5 85.5t-112.5 32.5q-69 0 -115 -31.5t-60 -88.5h-97q25 99 95.5 152t179.5 53q72 0 127.5 -25t87.5 -69.5
t32 -100.5q0 -59 -31.5 -99.5t-90.5 -57.5q65 -19 101 -63t36 -108q0 -60 -34 -105.5t-93.5 -71.5t-137.5 -26z" />
    <glyph glyph-name="uni0418" unicode="&#x418;" horiz-adv-x="781" 
d="M90 0v696h95v-549l418 549h88v-696h-95v549l-419 -549h-87z" />
    <glyph glyph-name="uni0419" unicode="&#x419;" horiz-adv-x="781" 
d="M90 0v696h95v-549l418 549h88v-696h-95v549l-419 -549h-87zM391 766q-81 0 -125 41t-50 112h81q5 -39 28 -61t66 -22t66 22t28 61h81q-6 -71 -50 -112t-125 -41z" />
    <glyph glyph-name="uni041A" unicode="&#x41a;" horiz-adv-x="676" 
d="M90 0v696h94v-296h141l226 296h109l-262 -340l267 -356h-114l-236 315h-131v-315h-94z" />
    <glyph glyph-name="uni041B" unicode="&#x41b;" horiz-adv-x="758" 
d="M27 -6v84h20q56 0 88.5 51t32.5 139v428h500v-696h-95v611h-315v-343q0 -84 -24 -145.5t-68.5 -95t-104.5 -33.5h-34z" />
    <glyph glyph-name="uni041C" unicode="&#x41c;" horiz-adv-x="888" 
d="M183 0h-93v696h104l252 -405l248 405h104v-696h-94v553l-260 -423l-261 421v-551z" />
    <glyph glyph-name="uni041D" unicode="&#x41d;" horiz-adv-x="767" 
d="M90 0v696h95v-288h397v288h95v-696h-95v323h-397v-323h-95z" />
    <glyph glyph-name="uni041E" unicode="&#x41e;" horiz-adv-x="786" 
d="M393 -15q-75 0 -138 27t-109 76t-71.5 115t-25.5 145t25.5 145t71.5 115t109 76t138 27t138 -27t109 -76t71.5 -115t25.5 -145t-25.5 -145t-71.5 -115t-109 -76t-138 -27zM393 72q72 0 127.5 35t87.5 97.5t32 143.5t-32 143.5t-87.5 97.5t-127.5 35t-127.5 -35
t-87.5 -97.5t-32 -143.5t32 -143.5t87.5 -97.5t127.5 -35z" />
    <glyph glyph-name="uni041F" unicode="&#x41f;" horiz-adv-x="754" 
d="M90 0v696h574v-696h-95v611h-384v-611h-95z" />
    <glyph glyph-name="uni0420" unicode="&#x420;" horiz-adv-x="659" 
d="M90 0v696h256q134 0 203 -61t69 -161q0 -101 -69 -162t-203 -61h-161v-251h-95zM185 336h148q95 0 141.5 36t46.5 102q0 65 -46.5 101t-141.5 36h-148v-275z" />
    <glyph glyph-name="uni0421" unicode="&#x421;" horiz-adv-x="714" 
d="M49 348q0 106 41.5 188t115.5 128.5t169 46.5q123 0 196.5 -61.5t98.5 -166.5h-99q-17 65 -67 103t-129 38q-67 0 -119 -33.5t-81 -95.5t-29 -147q0 -84 29 -146t81 -96t119 -34q79 0 130 37t67 99h98q-24 -101 -98 -162t-197 -61q-95 0 -169 46.5t-115.5 128.5
t-41.5 188z" />
    <glyph glyph-name="uni0422" unicode="&#x422;" horiz-adv-x="669" 
d="M382 0h-95v611h-247v85h589v-85h-247v-611z" />
    <glyph glyph-name="uni0423" unicode="&#x423;" horiz-adv-x="680" 
d="M131 -4v85h36q48 0 81 16.5t58 56.5l-291 542h107l234 -439l203 439h105l-266 -550q-40 -82 -92 -116t-138 -34h-37z" />
    <glyph glyph-name="uni0424" unicode="&#x424;" horiz-adv-x="870" 
d="M387 -33v96q-103 4 -179 39.5t-117.5 98.5t-41.5 147t41.5 147t117.5 98.5t179 39.5v96h96v-96q103 -4 179 -39.5t117.5 -98.5t41.5 -147t-41.5 -147t-117.5 -98.5t-179 -39.5v-96h-96zM145 348q0 -90 66.5 -144.5t179.5 -58.5v406q-113 -4 -179.5 -58.5t-66.5 -144.5z
M725 348q0 90 -66.5 144.5t-179.5 58.5v-406q113 4 179.5 58.5t66.5 144.5z" />
    <glyph glyph-name="uni0425" unicode="&#x425;" horiz-adv-x="693" 
d="M20 0l265 363l-239 333h117l185 -262l184 262h113l-240 -333l266 -363h-117l-212 293l-209 -293h-113z" />
    <glyph glyph-name="uni0426" unicode="&#x426;" horiz-adv-x="786" 
d="M662 -165v165h-572v696h95v-611h363v611h95v-611h109v-250h-90z" />
    <glyph glyph-name="uni0427" unicode="&#x427;" horiz-adv-x="691" 
d="M323 250q-129 0 -197.5 70t-68.5 203v173h95v-165q0 -194 186 -194q50 0 94 13.5t74 37.5v308h95v-696h-95v296q-80 -46 -183 -46z" />
    <glyph glyph-name="uni0428" unicode="&#x428;" horiz-adv-x="1029" 
d="M90 0v696h95v-611h282v611h95v-611h282v611h95v-696h-849z" />
    <glyph glyph-name="uni0429" unicode="&#x429;" horiz-adv-x="1084" 
d="M960 -165v165h-870v696h95v-611h283v611h95v-611h283v611h95v-611h109v-250h-90z" />
    <glyph glyph-name="uni042A" unicode="&#x42a;" horiz-adv-x="805" 
d="M234 0v611h-194v85h289v-276h183q118 0 185 -55.5t67 -154.5t-67 -154.5t-185 -55.5h-278zM504 335h-175v-250h175q77 0 120 33t43 92t-43 92t-120 33z" />
    <glyph glyph-name="uni042B" unicode="&#x42b;" horiz-adv-x="874" 
d="M784 0h-95v696h95v-696zM90 0v696h95v-276h173q118 0 185 -55.5t67 -154.5t-67 -154.5t-185 -55.5h-268zM350 335h-165v-250h165q77 0 120 33t43 92t-43 92t-120 33z" />
    <glyph glyph-name="uni042C" unicode="&#x42c;" horiz-adv-x="661" 
d="M90 0v696h95v-276h183q118 0 185 -55.5t67 -154.5t-67 -154.5t-185 -55.5h-278zM360 335h-175v-250h175q77 0 120 33t43 92t-43 92t-120 33z" />
    <glyph glyph-name="uni042D" unicode="&#x42d;" horiz-adv-x="714" 
d="M339 -15q-114 0 -191.5 58t-103.5 163h100q16 -63 68 -98.5t128 -35.5q96 0 157 64.5t71 172.5h-346v85h346q-12 106 -73 168t-155 62q-76 0 -127 -36.5t-69 -103.5h-100q27 109 103.5 168t191.5 59q97 0 170.5 -45.5t114.5 -127.5t41 -190t-41 -190t-114.5 -127.5
t-170.5 -45.5z" />
    <glyph glyph-name="uni042E" unicode="&#x42e;" horiz-adv-x="1048" 
d="M90 0v696h94v-288h144q12 90 57.5 158t116.5 106.5t159 38.5q73 0 135 -27t107.5 -75.5t70.5 -115t25 -145.5t-25 -145.5t-70.5 -115t-107.5 -75.5t-135 -27q-94 0 -168 43.5t-118.5 119.5t-49.5 175h-141v-323h-94zM661 72q71 0 125 35t85 97.5t31 143.5t-31 143.5
t-85 97.5t-125 35q-70 0 -124 -35t-85 -97.5t-31 -143.5q0 -80 31 -142.5t85 -98t124 -35.5z" />
    <glyph glyph-name="uni042F" unicode="&#x42f;" horiz-adv-x="676" 
d="M28 0l191 279q-76 22 -117 74t-41 128q0 103 71 159t203 56h251v-696h-94v264h-157h-19l-178 -264h-110zM342 348h150v263h-150q-184 0 -184 -130q0 -67 47 -100t137 -33z" />
    <glyph glyph-name="uni0430" unicode="&#x430;" horiz-adv-x="535" 
d="M213 -14q-79 0 -127 42.5t-48 115.5q0 78 56.5 121.5t160.5 43.5h121v22q0 62 -31.5 88.5t-86.5 26.5q-46 0 -76 -18t-37 -44h-90q13 63 67.5 102.5t136.5 39.5q95 0 150.5 -49t55.5 -153v-324h-84v77q-27 -46 -73 -68.5t-95 -22.5zM233 64q33 0 66 15t55 44.5t22 74.5
v38h-115q-63 0 -98 -22t-35 -66q0 -41 29 -62.5t76 -21.5z" />
    <glyph glyph-name="uni0431" unicode="&#x431;" horiz-adv-x="574" 
d="M297 -15q-120 0 -184.5 82t-64.5 233q0 190 62 285t194 105l91 7q37 3 37 40h86q0 -114 -114 -123l-91 -7q-84 -6 -125 -54.5t-52 -155.5q29 45 74 70.5t98 25.5q68 0 120 -32.5t81.5 -90t29.5 -132.5t-31 -132t-85.5 -89t-125.5 -32zM296 67q68 0 110 48t42 125
q0 76 -42 124t-110 48q-45 0 -79 -22t-53.5 -61t-19.5 -89q0 -78 42 -125.5t110 -47.5z" />
    <glyph glyph-name="uni0432" unicode="&#x432;" horiz-adv-x="563" 
d="M79 0v512h243q86 0 132 -35.5t46 -100.5q0 -39 -22 -68t-61 -44q99 -27 99 -119q0 -68 -50 -106.5t-139 -38.5h-248zM304 437h-137v-138h137q50 0 78 18.5t28 52.5q0 32 -27.5 49.5t-78.5 17.5zM313 224h-146v-149h146q55 0 84 19.5t29 55.5q0 35 -29.5 54.5t-83.5 19.5z
" />
    <glyph glyph-name="uni0433" unicode="&#x433;" horiz-adv-x="463" 
d="M79 0v512h360v-80h-271v-432h-89z" />
    <glyph glyph-name="uni0434" unicode="&#x434;" horiz-adv-x="629" 
d="M18 -150v230h60q66 38 66 160v272h381v-432h87v-230h-86v150h-422v-150h-86zM225 240q0 -109 -50 -160h261v352h-211v-192z" />
    <glyph glyph-name="uni0435" unicode="&#x435;" horiz-adv-x="557" 
d="M290 -14q-76 0 -131.5 33t-85.5 94t-30 144q0 77 29.5 138t84 96t130.5 35q73 0 123 -32.5t76 -90t26 -134.5v-42h-377q7 -78 47 -119.5t109 -41.5q45 0 76.5 15.5t41.5 40.5h92q-18 -62 -75 -99t-136 -37zM286 446q-63 0 -101.5 -38.5t-47.5 -106.5h285q-3 65 -36.5 105
t-99.5 40z" />
    <glyph glyph-name="uni0436" unicode="&#x436;" horiz-adv-x="811" 
d="M8 0l207 261l-205 251h104l168 -212h79v212h89v-212h79l168 212h104l-205 -251l207 -261h-107l-174 222h-72v-222h-89v222h-72l-174 -222h-107z" />
    <glyph glyph-name="uni0437" unicode="&#x437;" horiz-adv-x="508" 
d="M252 -15q-88 0 -145 40.5t-73 115.5h97q10 -37 41 -57t79 -20q54 0 85.5 22t31.5 59t-32.5 58t-88.5 21h-61v76h63q51 0 80 18.5t29 51.5q0 36 -29 57t-79 21q-46 0 -76 -19.5t-39 -54.5h-94q13 71 70 112t142 41q89 0 142.5 -40t53.5 -106q0 -44 -26 -74.5t-73 -43.5
q52 -13 80.5 -45.5t28.5 -80.5q0 -68 -57 -110t-150 -42z" />
    <glyph glyph-name="uni0438" unicode="&#x438;" horiz-adv-x="618" 
d="M79 0v512h89v-380l287 380h84v-512h-89v380l-286 -380h-85z" />
    <glyph glyph-name="uni0439" unicode="&#x439;" horiz-adv-x="618" 
d="M79 0v512h89v-380l287 380h84v-512h-89v380l-286 -380h-85zM310 582q-80 0 -122 41.5t-47 113.5h80q5 -40 26.5 -62.5t62.5 -22.5t62.5 22.5t26.5 62.5h80q-5 -72 -47 -113.5t-122 -41.5z" />
    <glyph glyph-name="uni043A" unicode="&#x43a;" horiz-adv-x="534" 
d="M79 0v512h89v-211h82l170 211h104l-205 -250l207 -262h-107l-173 221h-78v-221h-89z" />
    <glyph glyph-name="uni043B" unicode="&#x43b;" horiz-adv-x="609" 
d="M18 -4v80h22q49 0 74 40t25 124v272h391v-512h-90v432h-216v-198q0 -117 -45 -177.5t-124 -60.5h-37z" />
    <glyph glyph-name="uni043C" unicode="&#x43c;" horiz-adv-x="714" 
d="M164 0h-85v512h95l185 -282l181 282h95v-512h-86v383l-192 -295l-193 296v-384z" />
    <glyph glyph-name="uni043D" unicode="&#x43d;" horiz-adv-x="603" 
d="M79 0v512h89v-205h267v205h89v-512h-89v227h-267v-227h-89z" />
    <glyph glyph-name="uni043E" unicode="&#x43e;" horiz-adv-x="580" 
d="M290 -14q-72 0 -128 34t-87.5 95t-31.5 141t31.5 141t87.5 95t128 34t128 -34t87.5 -95t31.5 -141t-31.5 -141t-87.5 -95t-128 -34zM290 68q69 0 112.5 51t43.5 137t-43.5 137t-112.5 51t-112.5 -51t-43.5 -137t43.5 -137t112.5 -51z" />
    <glyph glyph-name="uni043F" unicode="&#x43f;" horiz-adv-x="588" 
d="M79 0v512h430v-512h-89v432h-252v-432h-89z" />
    <glyph glyph-name="uni0440" unicode="&#x440;" horiz-adv-x="608" 
d="M79 -205v717h87v-83q27 45 70 71t100 26q68 0 119.5 -34.5t80.5 -95t29 -140.5t-29 -140.5t-80.5 -95t-119.5 -34.5q-55 0 -98 25t-70 69v-285h-89zM320 68q68 0 111 51.5t43 136.5t-43 136.5t-111 51.5q-69 0 -112.5 -52t-43.5 -136t43.5 -136t112.5 -52z" />
    <glyph glyph-name="uni0441" unicode="&#x441;" horiz-adv-x="536" 
d="M287 -14q-73 0 -128 34t-85.5 95t-30.5 141q0 79 30.5 140t85.5 95.5t128 34.5q89 0 144 -48.5t67 -120.5h-93q-7 37 -37 62t-82 25q-67 0 -109.5 -51.5t-42.5 -136.5q0 -86 42.5 -137t109.5 -51q52 0 82.5 23.5t37.5 62.5h92q-8 -48 -35.5 -86t-72 -60t-103.5 -22z" />
    <glyph glyph-name="uni0442" unicode="&#x442;" horiz-adv-x="507" 
d="M298 0h-89v432h-185v80h459v-80h-185v-432z" />
    <glyph glyph-name="uni0443" unicode="&#x443;" horiz-adv-x="522" 
d="M131 -205l85 205l-203 512h101l150 -407l148 407h97l-283 -717h-95z" />
    <glyph glyph-name="uni0444" unicode="&#x444;" horiz-adv-x="744" 
d="M329 -205v192q-84 5 -149.5 40t-102.5 94t-37 135t37 135t102.5 94t149.5 40v200h85v-200q84 -5 149.5 -40t103 -93.5t37.5 -135.5t-37.5 -135.5t-103 -93.5t-149.5 -40v-192h-85zM613 256q0 82 -55.5 131.5t-145.5 55.5v-374q90 6 145.5 55.5t55.5 131.5zM131 256
q0 -82 55 -131.5t145 -55.5v374q-90 -6 -145 -55.5t-55 -131.5z" />
    <glyph glyph-name="uni0445" unicode="&#x445;" horiz-adv-x="525" 
d="M11 0l194 268l-175 244h110l127 -183l124 183h104l-175 -247l194 -265h-110l-145 203l-144 -203h-104z" />
    <glyph glyph-name="uni0446" unicode="&#x446;" horiz-adv-x="613" 
d="M510 -150v150h-431v512h89v-432h252v432h89v-432h87v-230h-86z" />
    <glyph glyph-name="uni0447" unicode="&#x447;" horiz-adv-x="550" 
d="M245 173q-94 0 -149.5 52t-55.5 143v144h89v-135q0 -61 34 -91.5t94 -30.5q77 0 125 38v219h89v-512h-89v206q-57 -33 -137 -33z" />
    <glyph glyph-name="uni0448" unicode="&#x448;" horiz-adv-x="829" 
d="M79 0v512h89v-432h202v432h89v-432h202v432h89v-512h-671z" />
    <glyph glyph-name="uni0449" unicode="&#x449;" horiz-adv-x="854" 
d="M751 -150v150h-672v512h89v-432h202v432h89v-432h202v432h89v-432h87v-230h-86z" />
    <glyph glyph-name="uni044A" unicode="&#x44a;" horiz-adv-x="625" 
d="M174 0v432h-150v80h239v-174h133q94 0 147 -45t53 -124t-53 -124t-147 -45h-222zM388 260h-125v-182h125q56 0 87 24t31 67t-31 67t-87 24z" />
    <glyph glyph-name="uni044B" unicode="&#x44b;" horiz-adv-x="730" 
d="M79 0v512h89v-174h130q94 0 147 -45t53 -124t-53 -124t-147 -45h-219zM562 0v512h89v-512h-89zM290 260h-122v-182h122q56 0 87 24t31 67t-31 67t-87 24z" />
    <glyph glyph-name="uni044C" unicode="&#x44c;" horiz-adv-x="530" 
d="M79 0v512h89v-174h133q95 0 147.5 -45t52.5 -124t-52.5 -124t-147.5 -45h-222zM293 260h-125v-182h125q55 0 86.5 24t31.5 67t-31.5 67t-86.5 24z" />
    <glyph glyph-name="uni044D" unicode="&#x44d;" horiz-adv-x="538" 
d="M257 -14q-83 0 -143 46t-76 123h91q13 -41 47.5 -64t81.5 -23q60 0 98 40t46 111h-220v80h219q-9 68 -46.5 106.5t-96.5 38.5q-47 0 -81.5 -23t-47.5 -64h-91q16 77 76 123t143 46q71 0 125 -34t83.5 -94.5t29.5 -141.5t-29.5 -141.5t-83.5 -94.5t-125 -34z" />
    <glyph glyph-name="uni044E" unicode="&#x44e;" horiz-adv-x="813" 
d="M79 0v512h89v-205h112q9 66 42 115t84.5 76.5t116.5 27.5q73 0 128.5 -34.5t87 -95t31.5 -140.5t-31.5 -140.5t-87 -95t-128.5 -34.5q-69 0 -122 30.5t-85.5 85t-38.5 126.5h-109v-228h-89zM523 68q70 0 113 52t43 136t-43 136t-113 52t-113 -52t-43 -136t43 -136
t113 -52z" />
    <glyph glyph-name="uni044F" unicode="&#x44f;" horiz-adv-x="551" 
d="M26 0l152 193q-59 17 -93 57.5t-34 98.5q0 77 57.5 120t162.5 43h201v-512h-86v182h-118l-141 -182h-101zM277 258h109v178h-109q-139 0 -139 -89t139 -89z" />
    <glyph glyph-name="uni0450" unicode="&#x450;" horiz-adv-x="557" 
d="M290 -14q-76 0 -131.5 33t-85.5 94t-30 144q0 77 29.5 138t84 96t130.5 35q73 0 123 -32.5t76 -90t26 -134.5v-42h-377q7 -78 47 -119.5t109 -41.5q45 0 76.5 15.5t41.5 40.5h92q-18 -62 -75 -99t-136 -37zM286 446q-63 0 -101.5 -38.5t-47.5 -106.5h285q-3 65 -36.5 105
t-99.5 40zM241 585l-86 155h96l76 -155h-86z" />
    <glyph glyph-name="uni0451" unicode="&#x451;" horiz-adv-x="557" 
d="M290 -14q-76 0 -131.5 33t-85.5 94t-30 144q0 77 29.5 138t84 96t130.5 35q73 0 123 -32.5t76 -90t26 -134.5v-42h-377q7 -78 47 -119.5t109 -41.5q45 0 76.5 15.5t41.5 40.5h92q-18 -62 -75 -99t-136 -37zM286 446q-63 0 -101.5 -38.5t-47.5 -106.5h285q-3 65 -36.5 105
t-99.5 40zM370 603q-25 0 -41.5 16.5t-16.5 40.5t16.5 40.5t41.5 16.5q24 0 41 -16.5t17 -40.5t-17 -40.5t-41 -16.5zM186 603q-24 0 -41 16.5t-17 40.5t17 40.5t41 16.5q25 0 41.5 -16.5t16.5 -40.5t-16.5 -40.5t-41.5 -16.5z" />
    <glyph glyph-name="uni0452" unicode="&#x452;" horiz-adv-x="577" 
d="M289 -157v80h23q61 0 96.5 80t35.5 216q0 95 -34.5 145.5t-99.5 50.5q-59 0 -97.5 -40t-38.5 -102v-273h-89v564h-77v71h77v90h89v-90h153v-71h-153v-149q57 82 158 82q95 0 148.5 -73.5t53.5 -204.5q0 -118 -26 -202t-74 -129t-115 -45h-30z" />
    <glyph glyph-name="uni0453" unicode="&#x453;" horiz-adv-x="463" 
d="M79 0v512h360v-80h-271v-432h-89zM295 585h-86l76 155h96z" />
    <glyph glyph-name="uni0454" unicode="&#x454;" horiz-adv-x="536" 
d="M287 -14q-73 0 -127.5 34t-85.5 95t-31 141t31 141t86 95t127 34q83 0 140.5 -46t70.5 -123h-93q-7 41 -39 64t-80 23q-58 0 -98 -39.5t-51 -105.5h219v-80h-220q9 -69 49.5 -110t100.5 -41q50 0 81.5 23t38.5 63h92q-12 -76 -70 -122t-141 -46z" />
    <glyph glyph-name="uni0455" unicode="&#x455;" horiz-adv-x="493" 
d="M256 -15q-90 0 -148 42.5t-70 107.5h90q8 -29 41.5 -50t84.5 -21q50 0 80 20.5t30 56.5q0 29 -21 47.5t-72 25.5l-78 10q-145 18 -145 142q0 46 25.5 82.5t70 57t101.5 20.5q83 0 135 -40t66 -102h-89q-10 31 -38.5 47t-71.5 16q-49 0 -78.5 -21.5t-29.5 -56.5
q0 -29 21 -44t69 -21l78 -10q73 -9 110.5 -50t37.5 -100q0 -48 -26 -84t-71.5 -55.5t-101.5 -19.5z" />
    <glyph glyph-name="uni0456" unicode="&#x456;" horiz-adv-x="239" 
d="M120 586q-26 0 -44 18t-18 44t18 44t44 18t44 -18t18 -44t-18 -44t-44 -18zM75 0v512h89v-512h-89z" />
    <glyph glyph-name="uni0457" unicode="&#x457;" horiz-adv-x="240" 
d="M98 648q0 -24 -16.5 -41t-40.5 -17t-40.5 17t-16.5 41t16.5 40.5t40.5 16.5t40.5 -16.5t16.5 -40.5zM257 648q0 -24 -16 -41t-41 -17q-24 0 -40.5 17t-16.5 41t16.5 40.5t40.5 16.5t40.5 -16.5t16.5 -40.5zM75 0v512h89v-512h-89z" />
    <glyph glyph-name="uni0458" unicode="&#x458;" horiz-adv-x="239" 
d="M120 586q-26 0 -44 18t-18 44t18 44t44 18t44 -18t18 -44t-18 -44t-44 -18zM-28 -205v80h27q38 0 57 25t19 68v544h89v-553q0 -78 -38 -121t-111 -43h-43z" />
    <glyph glyph-name="uni0459" unicode="&#x459;" horiz-adv-x="882" 
d="M18 -4v80h22q49 0 74 40t25 124v272h386v-174h128q95 0 147.5 -45t52.5 -124t-52.5 -124t-147.5 -45h-217v432h-212v-198q0 -117 -45 -177.5t-124 -60.5h-37zM645 260h-120v-182h120q55 0 86.5 24t31.5 67t-31.5 67t-86.5 24z" />
    <glyph glyph-name="uni045A" unicode="&#x45a;" horiz-adv-x="882" 
d="M79 0v512h89v-198h263v198h89v-190h133q95 0 147.5 -42.5t52.5 -118.5t-52.5 -118.5t-147.5 -42.5h-222v234h-263v-234h-89zM645 244h-125v-166h125q55 0 86.5 22t31.5 61q0 40 -31.5 61.5t-86.5 21.5z" />
    <glyph glyph-name="uni045B" unicode="&#x45b;" horiz-adv-x="585" 
d="M85 0v564h-77v71h77v90h89v-90h153v-71h-153v-150q27 39 67.5 61t90.5 22q83 0 133 -57.5t50 -153.5v-286h-89v270q0 69 -31.5 107t-87.5 38q-59 0 -96 -40t-37 -102v-273h-89z" />
    <glyph glyph-name="uni045C" unicode="&#x45c;" horiz-adv-x="534" 
d="M79 0v512h89v-211h82l170 211h104l-205 -250l207 -262h-107l-173 221h-78v-221h-89zM326 585h-86l76 155h96z" />
    <glyph glyph-name="uni045D" unicode="&#x45d;" horiz-adv-x="618" 
d="M79 0v512h89v-380l287 380h84v-512h-89v380l-286 -380h-85zM273 585l-86 155h96l76 -155h-86z" />
    <glyph glyph-name="uni045E" unicode="&#x45e;" horiz-adv-x="522" 
d="M131 -205l85 205l-203 512h101l150 -407l148 407h97l-283 -717h-95zM263 582q-80 0 -122 41.5t-47 113.5h80q5 -40 26.5 -62.5t62.5 -22.5t62.5 22.5t26.5 62.5h80q-5 -72 -47 -113.5t-122 -41.5z" />
    <glyph glyph-name="uni045F" unicode="&#x45f;" horiz-adv-x="593" 
d="M79 0v512h89v-432h257v432h89v-512h-174v-150h-86v150h-175z" />
    <glyph glyph-name="uni0490" unicode="&#x490;" horiz-adv-x="590" 
d="M90 0v696h370v152h90v-237h-365v-611h-95z" />
    <glyph glyph-name="uni0491" unicode="&#x491;" horiz-adv-x="466" 
d="M355 624h87v-192h-274v-432h-89v512h276v112z" />
    <glyph glyph-name="uni0492" unicode="&#x492;" horiz-adv-x="647" 
d="M148 0v298h-110v85h110v313h459v-85h-364v-228h224v-85h-224v-298h-95z" />
    <glyph glyph-name="uni0493" unicode="&#x493;" horiz-adv-x="502" 
d="M118 0v203h-94v80h94v229h360v-80h-271v-149h174v-80h-174v-203h-89z" />
    <glyph glyph-name="uni0496" unicode="&#x496;" horiz-adv-x="1106" 
d="M11 0l267 356l-262 340h109l226 -296h136v296h94v-296h136l226 296h109l-262 -340l204 -272h92v-249h-88v165h-55l-237 316h-125v-316h-94v316h-125l-237 -316h-114z" />
    <glyph glyph-name="uni0497" unicode="&#x497;" horiz-adv-x="841" 
d="M8 0l207 261l-205 251h104l168 -212h79v212h89v-212h79l168 212h104l-205 -251l145 -183h83v-233h-86v155h-42l-174 222h-72v-222h-89v222h-72l-174 -222h-107z" />
    <glyph glyph-name="uni049A" unicode="&#x49a;" horiz-adv-x="712" 
d="M90 0v696h94v-296h141l226 296h109l-262 -340l203 -271h84v-250h-87v165h-47l-236 315h-131v-315h-94z" />
    <glyph glyph-name="uni049B" unicode="&#x49b;" horiz-adv-x="568" 
d="M79 0v512h89v-211h82l170 211h104l-205 -250l145 -184h83v-228h-86v150h-42l-173 221h-78v-221h-89z" />
    <glyph glyph-name="uni04A2" unicode="&#x4a2;" horiz-adv-x="820" 
d="M90 0v696h95v-288h397v288h95v-611h109v-250h-87v165h-117v323h-397v-323h-95z" />
    <glyph glyph-name="uni04A3" unicode="&#x4a3;" horiz-adv-x="628" 
d="M79 0v512h89v-205h267v205h89v-434h87v-228h-86v150h-90v227h-267v-227h-89z" />
    <glyph glyph-name="uni04AE" unicode="&#x4ae;" horiz-adv-x="644" 
d="M275 0v268l-260 428h110l200 -337l197 337h106l-258 -426v-270h-95z" />
    <glyph glyph-name="uni04AF" unicode="&#x4af;" horiz-adv-x="522" 
d="M217 -205v199l-204 518h101l149 -411l149 411h97l-203 -515v-202h-89z" />
    <glyph glyph-name="uni04B0" unicode="&#x4b0;" horiz-adv-x="644" 
d="M99 223v80h155l-239 393h110l200 -337l197 337h106l-238 -393h155v-80h-175v-223h-95v223h-176z" />
    <glyph glyph-name="uni04B1" unicode="&#x4b1;" horiz-adv-x="522" 
d="M75 -31v80h120l-182 463h101l149 -411l149 411h97l-182 -463h121v-80h-142v-174h-89v174h-142z" />
    <glyph glyph-name="uni04B2" unicode="&#x4b2;" horiz-adv-x="719" 
d="M20 0l265 363l-239 333h117l185 -262l184 262h113l-240 -333l204 -278h83v-250h-87v165h-51l-212 293l-209 -293h-113z" />
    <glyph glyph-name="uni04B3" unicode="&#x4b3;" horiz-adv-x="560" 
d="M11 0l194 268l-175 244h110l127 -183l124 183h104l-175 -247l137 -187h82v-228h-86v150h-49l-145 203l-144 -203h-104z" />
    <glyph glyph-name="uni04B6" unicode="&#x4b6;" horiz-adv-x="744" 
d="M323 250q-129 0 -197.5 70t-68.5 203v173h95v-165q0 -194 186 -194q50 0 94 13.5t74 37.5v308h95v-611h109v-250h-87v165h-117v296q-80 -46 -183 -46z" />
    <glyph glyph-name="uni04B7" unicode="&#x4b7;" horiz-adv-x="575" 
d="M245 173q-94 0 -149.5 52t-55.5 143v144h89v-135q0 -61 34 -91.5t94 -30.5q77 0 125 38v219h89v-434h87v-228h-86v150h-90v206q-57 -33 -137 -33z" />
    <glyph glyph-name="uni04BA" unicode="&#x4ba;" horiz-adv-x="691" 
d="M90 0v696h95v-283q79 44 183 44q129 0 197.5 -70t68.5 -202v-185h-95v177q0 194 -189 194q-103 0 -165 -51v-320h-95z" />
    <glyph glyph-name="uni04BB" unicode="&#x4bb;" horiz-adv-x="579" 
d="M79 0v725h89v-280q27 39 68.5 60t90.5 21q57 0 97.5 -27t62.5 -74t22 -108v-317h-89v300q0 67 -30 105.5t-88 38.5q-36 0 -66.5 -16.5t-49 -48t-18.5 -76.5v-303h-89z" />
    <glyph glyph-name="uni04C0" unicode="&#x4c0;" horiz-adv-x="275" 
d="M185 0h-95v696h95v-696z" />
    <glyph glyph-name="uni04CF" unicode="&#x4cf;" horiz-adv-x="239" 
d="M75 0v725h89v-725h-89z" />
    <glyph glyph-name="uni04D4" unicode="&#x4d4;" horiz-adv-x="1060" 
d="M113 0h-106l459 696h526v-85h-388v-211h377v-85h-377v-230h393v-85h-488v187h-276zM287 272h222v346z" />
    <glyph glyph-name="uni04D5" unicode="&#x4d5;" horiz-adv-x="891" 
d="M219 -14q-82 0 -131.5 42.5t-49.5 115.5q0 77 55.5 119.5t158.5 42.5h124v25q0 62 -31.5 88.5t-86.5 26.5q-46 0 -76 -18t-37 -44h-90q13 63 67.5 102.5t136.5 39.5q63 0 108.5 -23.5t69.5 -76.5q31 53 80 76.5t105 23.5q72 0 122 -32.5t76 -90t26 -133.5v-36h-377
q5 -82 45 -125t110 -43q46 0 77.5 15.5t41.5 40.5h92q-18 -62 -75 -99t-136 -37q-72 0 -123.5 30t-81.5 86q-28 -57 -82.5 -86.5t-117.5 -29.5zM620 446q-62 0 -100 -37.5t-49 -102.5h285q-4 63 -38 101.5t-98 38.5zM233 64q36 0 68.5 14t53.5 43.5t21 75.5v37h-116
q-62 0 -97 -21t-35 -65q0 -41 29 -62.5t76 -21.5z" />
    <glyph glyph-name="uni04D8" unicode="&#x4d8;" horiz-adv-x="728" 
d="M679 346q0 -110 -38.5 -191t-110.5 -125.5t-172 -44.5q-94 0 -163 44t-106.5 123t-37.5 184v47h531q-9 117 -70 179t-155 62q-71 0 -120 -29.5t-71 -72.5h-99q21 54 61.5 97t99 67.5t130.5 24.5q96 0 168 -44t112.5 -125.5t40.5 -195.5zM357 72q96 0 154 60t70 166h-434
q2 -66 28.5 -117t72.5 -80t109 -29z" />
    <glyph glyph-name="uni04D9" unicode="&#x4d9;" horiz-adv-x="557" 
d="M267 526q77 0 132 -33t85 -94t30 -144q0 -77 -29.5 -138t-84 -96t-130.5 -35q-72 0 -122.5 32.5t-76.5 90t-26 134.5v42h377q-7 78 -47 119.5t-109 41.5q-45 0 -76.5 -15.5t-41.5 -40.5h-92q18 62 75 99t136 37zM271 66q63 0 101.5 38.5t47.5 106.5h-285q3 -65 36.5 -105
t99.5 -40z" />
    <glyph glyph-name="uni04E2" unicode="&#x4e2;" horiz-adv-x="781" 
d="M90 0v696h95v-549l418 549h88v-696h-95v549l-419 -549h-87zM235 885h312v-76h-312v76z" />
    <glyph glyph-name="uni04E3" unicode="&#x4e3;" horiz-adv-x="618" 
d="M79 0v512h89v-380l287 380h84v-512h-89v380l-286 -380h-85zM160 702h300v-75h-300v75z" />
    <glyph glyph-name="uni04E8" unicode="&#x4e8;" horiz-adv-x="786" 
d="M393 -15q-75 0 -138 27t-109 76t-71.5 115t-25.5 145t25.5 145t71.5 115t109 76t138 27t138 -27t109 -76t71.5 -115t25.5 -145t-25.5 -145t-71.5 -115t-109 -76t-138 -27zM393 624q-66 0 -118 -29.5t-85 -82t-42 -122.5h490q-9 70 -42 122.5t-85 82t-118 29.5zM393 72
q65 0 117.5 29.5t85.5 82t41 121.5h-488q8 -69 41 -121.5t85.5 -82t117.5 -29.5z" />
    <glyph glyph-name="uni04E9" unicode="&#x4e9;" horiz-adv-x="580" 
d="M290 -14q-73 0 -128.5 34.5t-87 95t-31.5 140.5t31.5 140.5t87 95t128.5 34.5t128.5 -34.5t87 -95t31.5 -140.5t-31.5 -140.5t-87 -95t-128.5 -34.5zM290 446q-62 0 -104.5 -41.5t-51.5 -110.5h312q-9 69 -51.5 110.5t-104.5 41.5zM290 66q62 0 104.5 41.5t51.5 110.5
h-312q9 -69 51.5 -110.5t104.5 -41.5z" />
    <glyph glyph-name="uni04EE" unicode="&#x4ee;" horiz-adv-x="680" 
d="M131 -4v85h36q48 0 81 16.5t58 56.5l-291 542h107l234 -439l203 439h105l-266 -550q-40 -82 -92 -116t-138 -34h-37zM181 885h312v-76h-312v76z" />
    <glyph glyph-name="uni04EF" unicode="&#x4ef;" horiz-adv-x="522" 
d="M131 -205l85 205l-203 512h101l150 -407l148 407h97l-283 -717h-95zM113 702h300v-75h-300v75z" />
    <glyph glyph-name="uni058F" unicode="&#x58f;" 
d="M270 153v81h143v69h-143v81h143v91q0 70 -36.5 110.5t-101.5 40.5t-102 -40.5t-37 -110.5v-34h-92v40q0 69 29 120.5t81 80.5t122 29t122 -29t81 -80.5t29 -120.5v-97h73v-81h-73v-69h73v-81h-73v-153h-95v153h-143z" />
    <glyph glyph-name="uni060B" unicode="&#x60b;" 
d="M317 610l-73 74l74 73l73 -74zM226 -8q-52 0 -91 3t-71 9v85q35 -5 78 -8t94 -3q54 0 104 6t70 23q21 19 23 86h-100q-117 0 -165 40.5t-48 106.5q0 50 27 93t69 69t88 26q50 0 88.5 -26.5t65 -71.5t40.5 -101.5t14 -117.5q0 -92 -29 -139.5t-92 -63.5t-165 -16zM333 270
h96q-7 44 -23 83.5t-42.5 64t-64.5 24.5q-27 0 -49.5 -14t-36 -36.5t-13.5 -48.5q0 -23 9.5 -39.5t38 -25t85.5 -8.5zM279 -284l-7 164l72 13l-7 -177h-58z" />
    <glyph glyph-name="uni0E3F" unicode="&#xe3f;" 
d="M61 2v692h208v117h70v-118q101 -7 156 -51.5t55 -125.5q0 -54 -30.5 -93t-85.5 -59q71 -18 106 -62t35 -106q0 -87 -62.5 -138t-173.5 -56v-110h-70v110h-208zM151 616v-218h118v218h-118zM458 511q0 90 -119 103v-213q56 8 87.5 37t31.5 73zM151 320v-240h118v240h-118z
M482 200q0 50 -37 82t-106 37v-238q143 9 143 119z" />
    <glyph glyph-name="uni1E24" unicode="&#x1e24;" horiz-adv-x="767" 
d="M90 0v696h95v-288h397v288h95v-696h-95v323h-397v-323h-95zM384 -189q-26 0 -43.5 17.5t-17.5 43.5t17.5 43.5t43.5 17.5t43.5 -17.5t17.5 -43.5t-17.5 -43.5t-43.5 -17.5z" />
    <glyph glyph-name="uni1E25" unicode="&#x1e25;" horiz-adv-x="575" 
d="M75 0v725h89v-280q27 39 68.5 60t90.5 21q57 0 97.5 -27t62.5 -74t22 -108v-317h-89v300q0 67 -30 105.5t-88 38.5q-36 0 -66.5 -16.5t-49 -48t-18.5 -76.5v-303h-89zM291 -189q-26 0 -43.5 17.5t-17.5 43.5t17.5 43.5t43.5 17.5t43.5 -17.5t17.5 -43.5t-17.5 -43.5
t-43.5 -17.5z" />
    <glyph glyph-name="uni1E36" unicode="&#x1e36;" horiz-adv-x="602" 
d="M562 85v-85h-472v696h95v-611h377zM329 -189q-26 0 -43.5 17.5t-17.5 43.5t17.5 43.5t43.5 17.5t43.5 -17.5t17.5 -43.5t-17.5 -43.5t-43.5 -17.5z" />
    <glyph glyph-name="uni1E37" unicode="&#x1e37;" horiz-adv-x="239" 
d="M75 0v725h89v-725h-89zM120 -189q-26 0 -43.5 17.5t-17.5 43.5t17.5 43.5t43.5 17.5t43.5 -17.5t17.5 -43.5t-17.5 -43.5t-43.5 -17.5z" />
    <glyph glyph-name="uni1E3E" unicode="&#x1e3e;" horiz-adv-x="888" 
d="M183 0h-93v696h104l252 -405l248 405h104v-696h-94v553l-260 -423l-261 421v-551zM482 770h-88l88 147h99z" />
    <glyph glyph-name="uni1E3F" unicode="&#x1e3f;" horiz-adv-x="861" 
d="M75 0v512h87v-63q51 77 146 77q50 0 87.5 -24.5t58.5 -69.5q27 46 70.5 70t94.5 24q78 0 125 -55t47 -150v-321h-89v309q0 63 -28 99t-77 36t-84 -36t-35 -99v-309h-89v309q0 63 -28.5 99t-76.5 36q-50 0 -85 -36t-35 -99v-309h-89zM490 585h-86l76 155h96z" />
    <glyph glyph-name="uni1E62" unicode="&#x1e62;" horiz-adv-x="635" 
d="M324 -15q-112 0 -187.5 52t-98.5 146h97q17 -52 66 -81.5t122 -29.5q71 0 119 29.5t48 85.5q0 31 -13 54.5t-46 40t-95 25.5l-83 13q-101 16 -149 60t-48 128q0 62 34.5 107.5t93 70.5t130.5 25q66 0 121.5 -21t92.5 -62.5t49 -105.5h-97q-13 54 -56.5 78t-108.5 24
q-73 0 -117.5 -29.5t-44.5 -81.5q0 -45 31 -70t118 -38l78 -12q106 -17 156.5 -66t50.5 -134q0 -65 -34 -112t-93.5 -71.5t-135.5 -24.5zM324 -189q-26 0 -43.5 17.5t-17.5 43.5t17.5 43.5t43.5 17.5t43.5 -17.5t17.5 -43.5t-17.5 -43.5t-43.5 -17.5z" />
    <glyph glyph-name="uni1E63" unicode="&#x1e63;" horiz-adv-x="493" 
d="M256 -15q-90 0 -148 42.5t-70 107.5h90q8 -29 41.5 -50t84.5 -21q50 0 80 20.5t30 56.5q0 29 -21 47.5t-72 25.5l-78 10q-145 18 -145 142q0 46 25.5 82.5t70 57t101.5 20.5q83 0 135 -40t66 -102h-89q-10 31 -38.5 47t-71.5 16q-49 0 -78.5 -21.5t-29.5 -56.5
q0 -29 21 -44t69 -21l78 -10q73 -9 110.5 -50t37.5 -100q0 -48 -26 -84t-71.5 -55.5t-101.5 -19.5zM259 -189q-26 0 -43.5 17.5t-17.5 43.5t17.5 43.5t43.5 17.5t43.5 -17.5t17.5 -43.5t-17.5 -43.5t-43.5 -17.5z" />
    <glyph glyph-name="Wgrave" unicode="&#x1e80;" horiz-adv-x="979" 
d="M239 0l-211 696h99l162 -559l156 557h88l162 -559l159 561h97l-210 -696h-91l-161 549l-159 -549h-91zM452 770l-99 147h99l88 -147h-88z" />
    <glyph glyph-name="wgrave" unicode="&#x1e81;" horiz-adv-x="760" 
d="M183 0l-165 512h92l118 -388l111 386h81l115 -387l116 389h91l-166 -512h-82l-114 383l-115 -383h-82zM342 585l-86 155h96l76 -155h-86z" />
    <glyph glyph-name="Wacute" unicode="&#x1e82;" horiz-adv-x="979" 
d="M239 0l-211 696h99l162 -559l156 557h88l162 -559l159 561h97l-210 -696h-91l-161 549l-159 -549h-91zM528 770h-88l88 147h99z" />
    <glyph glyph-name="wacute" unicode="&#x1e83;" horiz-adv-x="760" 
d="M183 0l-165 512h92l118 -388l111 386h81l115 -387l116 389h91l-166 -512h-82l-114 383l-115 -383h-82zM416 585h-86l76 155h96z" />
    <glyph glyph-name="Wdieresis" unicode="&#x1e84;" horiz-adv-x="979" 
d="M239 0l-211 696h99l162 -559l156 557h88l162 -559l159 561h97l-210 -696h-91l-161 549l-159 -549h-91zM594 787q-25 0 -41.5 16.5t-16.5 40.5t16.5 40.5t41.5 16.5q24 0 41 -16.5t17 -40.5t-17 -40.5t-41 -16.5zM386 787q-24 0 -41 16.5t-17 40.5t17 40.5t41 16.5
q25 0 41.5 -16.5t16.5 -40.5t-16.5 -40.5t-41.5 -16.5z" />
    <glyph glyph-name="wdieresis" unicode="&#x1e85;" horiz-adv-x="760" 
d="M183 0l-165 512h92l118 -388l111 386h81l115 -387l116 389h91l-166 -512h-82l-114 383l-115 -383h-82zM471 603q-25 0 -41.5 16.5t-16.5 40.5t16.5 40.5t41.5 16.5q24 0 41 -16.5t17 -40.5t-17 -40.5t-41 -16.5zM287 603q-24 0 -41 16.5t-17 40.5t17 40.5t41 16.5
q25 0 41.5 -16.5t16.5 -40.5t-16.5 -40.5t-41.5 -16.5z" />
    <glyph glyph-name="uni1E9E" unicode="&#x1e9e;" horiz-adv-x="714" 
d="M80 0v448q0 125 66.5 186.5t178.5 61.5h303v-83l-183 -203q68 -2 117 -29t75.5 -72.5t26.5 -101.5q0 -96 -67 -151.5t-182 -55.5h-104v85h100q73 0 114.5 31.5t41.5 90.5t-41.5 90t-114.5 31h-71v78l185 205h-193q-76 0 -116.5 -39.5t-40.5 -124.5v-447h-95z" />
    <glyph glyph-name="uni1EA0" unicode="&#x1ea0;" horiz-adv-x="689" 
d="M570 0l-73 187h-309l-72 -187h-98l278 696h96l279 -696h-101zM220 272h244l-122 316zM345 -189q-26 0 -43.5 17.5t-17.5 43.5t17.5 43.5t43.5 17.5t43.5 -17.5t17.5 -43.5t-17.5 -43.5t-43.5 -17.5z" />
    <glyph glyph-name="uni1EA1" unicode="&#x1ea1;" horiz-adv-x="535" 
d="M213 -14q-79 0 -127 42.5t-48 115.5q0 78 56.5 121.5t160.5 43.5h121v22q0 62 -31.5 88.5t-86.5 26.5q-46 0 -76 -18t-37 -44h-90q13 63 67.5 102.5t136.5 39.5q95 0 150.5 -49t55.5 -153v-324h-84v77q-27 -46 -73 -68.5t-95 -22.5zM233 64q33 0 66 15t55 44.5t22 74.5
v38h-115q-63 0 -98 -22t-35 -66q0 -41 29 -62.5t76 -21.5zM267 -189q-26 0 -43.5 17.5t-17.5 43.5t17.5 43.5t43.5 17.5t43.5 -17.5t17.5 -43.5t-17.5 -43.5t-43.5 -17.5z" />
    <glyph glyph-name="uni1EA2" unicode="&#x1ea2;" horiz-adv-x="689" 
d="M570 0l-73 187h-309l-72 -187h-98l278 696h96l279 -696h-101zM220 272h244l-122 316zM272 808l42 12q31 9 47.5 18.5t16.5 26.5q0 30 -49 30h-84v63h90q57 0 87.5 -24t30.5 -68q0 -46 -32.5 -68t-87.5 -38l-44 -13z" />
    <glyph glyph-name="uni1EA3" unicode="&#x1ea3;" horiz-adv-x="535" 
d="M213 -14q-79 0 -127 42.5t-48 115.5q0 78 56.5 121.5t160.5 43.5h121v22q0 62 -31.5 88.5t-86.5 26.5q-46 0 -76 -18t-37 -44h-90q13 63 67.5 102.5t136.5 39.5q95 0 150.5 -49t55.5 -153v-324h-84v77q-27 -46 -73 -68.5t-95 -22.5zM233 64q33 0 66 15t55 44.5t22 74.5
v38h-115q-63 0 -98 -22t-35 -66q0 -41 29 -62.5t76 -21.5zM212 567l-17 61l42 12q31 9 47.5 18.5t16.5 26.5q0 30 -49 30h-84v63h90q57 0 87.5 -24t30.5 -68q0 -46 -32.5 -68t-87.5 -38z" />
    <glyph glyph-name="uni1EA4" unicode="&#x1ea4;" horiz-adv-x="689" 
d="M570 0l-73 187h-309l-72 -187h-98l278 696h96l279 -696h-101zM220 272h244l-122 316zM174 750l120 128h100l120 -128h-88l-82 80l-82 -80h-88zM559 833h-81l80 136h92z" />
    <glyph glyph-name="uni1EA5" unicode="&#x1ea5;" horiz-adv-x="535" 
d="M213 -14q-79 0 -127 42.5t-48 115.5q0 78 56.5 121.5t160.5 43.5h121v22q0 62 -31.5 88.5t-86.5 26.5q-46 0 -76 -18t-37 -44h-90q13 63 67.5 102.5t136.5 39.5q95 0 150.5 -49t55.5 -153v-324h-84v77q-27 -46 -73 -68.5t-95 -22.5zM233 64q33 0 66 15t55 44.5t22 74.5
v38h-115q-63 0 -98 -22t-35 -66q0 -41 29 -62.5t76 -21.5zM104 585l114 145h98l114 -145h-84l-79 95l-79 -95h-84zM462 703h-79l75 154h90z" />
    <glyph glyph-name="uni1EA6" unicode="&#x1ea6;" horiz-adv-x="689" 
d="M570 0l-73 187h-309l-72 -187h-98l278 696h96l279 -696h-101zM220 272h244l-122 316zM174 750l120 128h100l120 -128h-88l-82 80l-82 -80h-88zM493 833l-90 136h92l80 -136h-82z" />
    <glyph glyph-name="uni1EA7" unicode="&#x1ea7;" horiz-adv-x="535" 
d="M213 -14q-79 0 -127 42.5t-48 115.5q0 78 56.5 121.5t160.5 43.5h121v22q0 62 -31.5 88.5t-86.5 26.5q-46 0 -76 -18t-37 -44h-90q13 63 67.5 102.5t136.5 39.5q95 0 150.5 -49t55.5 -153v-324h-84v77q-27 -46 -73 -68.5t-95 -22.5zM233 64q33 0 66 15t55 44.5t22 74.5
v38h-115q-63 0 -98 -22t-35 -66q0 -41 29 -62.5t76 -21.5zM104 585l114 145h98l114 -145h-84l-79 95l-79 -95h-84zM404 703l-86 154h90l75 -154h-79z" />
    <glyph glyph-name="uni1EA8" unicode="&#x1ea8;" horiz-adv-x="689" 
d="M570 0l-73 187h-309l-72 -187h-98l278 696h96l279 -696h-101zM220 272h244l-122 316zM174 750l120 128h100l120 -128h-88l-82 80l-82 -80h-88zM498 825l-45 46l46 15q30 10 47 20t17 27q0 14 -12.5 23t-39.5 9h-85v58h91q58 0 87.5 -23t29.5 -64q0 -39 -27.5 -61.5
t-79.5 -39.5z" />
    <glyph glyph-name="uni1EA9" unicode="&#x1ea9;" horiz-adv-x="535" 
d="M213 -14q-79 0 -127 42.5t-48 115.5q0 78 56.5 121.5t160.5 43.5h121v22q0 62 -31.5 88.5t-86.5 26.5q-46 0 -76 -18t-37 -44h-90q13 63 67.5 102.5t136.5 39.5q95 0 150.5 -49t55.5 -153v-324h-84v77q-27 -46 -73 -68.5t-95 -22.5zM233 64q33 0 66 15t55 44.5t22 74.5
v38h-115q-63 0 -98 -22t-35 -66q0 -41 29 -62.5t76 -21.5zM104 585l114 145h98l114 -145h-84l-79 95l-79 -95h-84zM410 678l-39 50l48 15q22 7 42 16.5t20 30.5q0 30 -52 30h-83v60h90q57 0 87.5 -22.5t30.5 -66.5q0 -46 -33 -68t-84 -37z" />
    <glyph glyph-name="uni1EAA" unicode="&#x1eaa;" horiz-adv-x="689" 
d="M570 0l-73 187h-309l-72 -187h-98l278 696h96l279 -696h-101zM220 272h244l-122 316zM174 750l120 128h100l120 -128h-88l-82 80l-82 -80h-88zM418 907q-43 0 -89 28q-21 13 -33 17.5t-23 4.5q-32 0 -32 -33v-16h-67v26q0 40 26 64t70 24q43 0 89 -28q21 -13 33 -17.5
t23 -4.5q32 0 32 33v16h67v-26q0 -40 -26 -64t-70 -24z" />
    <glyph glyph-name="uni1EAB" unicode="&#x1eab;" horiz-adv-x="535" 
d="M213 -14q-79 0 -127 42.5t-48 115.5q0 78 56.5 121.5t160.5 43.5h121v22q0 62 -31.5 88.5t-86.5 26.5q-46 0 -76 -18t-37 -44h-90q13 63 67.5 102.5t136.5 39.5q95 0 150.5 -49t55.5 -153v-324h-84v77q-27 -46 -73 -68.5t-95 -22.5zM233 64q33 0 66 15t55 44.5t22 74.5
v38h-115q-63 0 -98 -22t-35 -66q0 -41 29 -62.5t76 -21.5zM104 585l114 145h98l114 -145h-84l-79 95l-79 -95h-84zM339 768q-21 0 -39.5 7t-47.5 23q-20 12 -31.5 17.5t-22.5 5.5q-29 0 -29 -35v-17h-67v28q0 41 24.5 66t68.5 25q21 0 39.5 -7t47.5 -23q20 -12 31.5 -17.5
t22.5 -5.5q29 0 29 35v17h67v-28q0 -41 -24.5 -66t-68.5 -25z" />
    <glyph glyph-name="uni1EAC" unicode="&#x1eac;" horiz-adv-x="689" 
d="M570 0l-73 187h-309l-72 -187h-98l278 696h96l279 -696h-101zM220 272h244l-122 316zM168 770l124 147h104l124 -147h-94l-82 89l-82 -89h-94zM345 -189q-26 0 -43.5 17.5t-17.5 43.5t17.5 43.5t43.5 17.5t43.5 -17.5t17.5 -43.5t-17.5 -43.5t-43.5 -17.5z" />
    <glyph glyph-name="uni1EAD" unicode="&#x1ead;" horiz-adv-x="535" 
d="M213 -14q-79 0 -127 42.5t-48 115.5q0 78 56.5 121.5t160.5 43.5h121v22q0 62 -31.5 88.5t-86.5 26.5q-46 0 -76 -18t-37 -44h-90q13 63 67.5 102.5t136.5 39.5q95 0 150.5 -49t55.5 -153v-324h-84v77q-27 -46 -73 -68.5t-95 -22.5zM233 64q33 0 66 15t55 44.5t22 74.5
v38h-115q-63 0 -98 -22t-35 -66q0 -41 29 -62.5t76 -21.5zM97 585l120 155h100l120 -155h-90l-80 96l-80 -96h-90zM267 -189q-26 0 -43.5 17.5t-17.5 43.5t17.5 43.5t43.5 17.5t43.5 -17.5t17.5 -43.5t-17.5 -43.5t-43.5 -17.5z" />
    <glyph glyph-name="uni1EAE" unicode="&#x1eae;" horiz-adv-x="689" 
d="M570 0l-73 187h-309l-72 -187h-98l278 696h96l279 -696h-101zM220 272h244l-122 316zM510 856q-4 -53 -51 -83t-115 -30q-69 0 -115.5 30t-50.5 83h75q5 -25 29.5 -37t61.5 -12t61.5 12t29.5 37h75zM380 871h-82l79 129h93z" />
    <glyph glyph-name="uni1EAF" unicode="&#x1eaf;" horiz-adv-x="535" 
d="M213 -14q-79 0 -127 42.5t-48 115.5q0 78 56.5 121.5t160.5 43.5h121v22q0 62 -31.5 88.5t-86.5 26.5q-46 0 -76 -18t-37 -44h-90q13 63 67.5 102.5t136.5 39.5q95 0 150.5 -49t55.5 -153v-324h-84v77q-27 -46 -73 -68.5t-95 -22.5zM233 64q33 0 66 15t55 44.5t22 74.5
v38h-115q-63 0 -98 -22t-35 -66q0 -41 29 -62.5t76 -21.5zM427 713q-9 -63 -52.5 -97t-107.5 -34t-107.5 34t-52.5 97h75q7 -33 30 -50t55 -17t55 17t30 50h75zM302 740h-79l75 154h90z" />
    <glyph glyph-name="uni1EB0" unicode="&#x1eb0;" horiz-adv-x="689" 
d="M570 0l-73 187h-309l-72 -187h-98l278 696h96l279 -696h-101zM220 272h244l-122 316zM510 856q-4 -53 -51 -83t-115 -30q-69 0 -115.5 30t-50.5 83h75q5 -25 29.5 -37t61.5 -12t61.5 12t29.5 37h75zM305 871l-90 129h93l79 -129h-82z" />
    <glyph glyph-name="uni1EB1" unicode="&#x1eb1;" horiz-adv-x="535" 
d="M213 -14q-79 0 -127 42.5t-48 115.5q0 78 56.5 121.5t160.5 43.5h121v22q0 62 -31.5 88.5t-86.5 26.5q-46 0 -76 -18t-37 -44h-90q13 63 67.5 102.5t136.5 39.5q95 0 150.5 -49t55.5 -153v-324h-84v77q-27 -46 -73 -68.5t-95 -22.5zM233 64q33 0 66 15t55 44.5t22 74.5
v38h-115q-63 0 -98 -22t-35 -66q0 -41 29 -62.5t76 -21.5zM427 713q-9 -63 -52.5 -97t-107.5 -34t-107.5 34t-52.5 97h75q7 -33 30 -50t55 -17t55 17t30 50h75zM231 740l-85 154h90l75 -154h-80z" />
    <glyph glyph-name="uni1EB2" unicode="&#x1eb2;" horiz-adv-x="689" 
d="M570 0l-73 187h-309l-72 -187h-98l278 696h96l279 -696h-101zM220 272h244l-122 316zM304 898l33 12q23 8 34.5 15t11.5 20q0 7 -6 13.5t-27 6.5h-92v58h86q52 0 80 -19.5t28 -54.5t-25.5 -55.5t-66.5 -35.5l-36 -13zM344 743q-70 0 -117 29.5t-51 82.5h75
q5 -19 30 -33.5t63 -14.5t61.5 14.5t28.5 33.5h75q-4 -53 -50.5 -82.5t-114.5 -29.5z" />
    <glyph glyph-name="uni1EB3" unicode="&#x1eb3;" horiz-adv-x="535" 
d="M213 -14q-79 0 -127 42.5t-48 115.5q0 78 56.5 121.5t160.5 43.5h121v22q0 62 -31.5 88.5t-86.5 26.5q-46 0 -76 -18t-37 -44h-90q13 63 67.5 102.5t136.5 39.5q95 0 150.5 -49t55.5 -153v-324h-84v77q-27 -46 -73 -68.5t-95 -22.5zM233 64q33 0 66 15t55 44.5t22 74.5
v38h-115q-63 0 -98 -22t-35 -66q0 -41 29 -62.5t76 -21.5zM225 766l35 12q23 8 37.5 15t14.5 23q0 10 -8.5 17t-33.5 7h-91v58h90q56 0 83.5 -22t27.5 -57q0 -64 -101 -96l-34 -11zM267 582q-64 0 -107.5 34t-52.5 97h75q7 -33 30 -50t55 -17t55 17t30 50h75
q-9 -63 -52.5 -97t-107.5 -34z" />
    <glyph glyph-name="uni1EB4" unicode="&#x1eb4;" horiz-adv-x="689" 
d="M570 0l-73 187h-309l-72 -187h-98l278 696h96l279 -696h-101zM220 272h244l-122 316zM510 856q-4 -53 -51 -83t-115 -30q-69 0 -115.5 30t-50.5 83h75q5 -25 29.5 -37t61.5 -12t61.5 12t29.5 37h75zM418 886q-43 0 -89 28q-21 13 -33 17.5t-23 4.5q-32 0 -32 -33v-16h-67
v26q0 40 26 64t70 24q43 0 89 -28q21 -13 33 -17.5t23 -4.5q32 0 32 33v16h67v-26q0 -40 -26 -64t-70 -24z" />
    <glyph glyph-name="uni1EB5" unicode="&#x1eb5;" horiz-adv-x="535" 
d="M213 -14q-79 0 -127 42.5t-48 115.5q0 78 56.5 121.5t160.5 43.5h121v22q0 62 -31.5 88.5t-86.5 26.5q-46 0 -76 -18t-37 -44h-90q13 63 67.5 102.5t136.5 39.5q95 0 150.5 -49t55.5 -153v-324h-84v77q-27 -46 -73 -68.5t-95 -22.5zM233 64q33 0 66 15t55 44.5t22 74.5
v38h-115q-63 0 -98 -22t-35 -66q0 -41 29 -62.5t76 -21.5zM427 713q-9 -63 -52.5 -97t-107.5 -34t-107.5 34t-52.5 97h75q7 -33 30 -50t55 -17t55 17t30 50h75zM339 768q-21 0 -39.5 7t-47.5 23q-20 12 -31.5 17.5t-22.5 5.5q-29 0 -29 -35v-17h-67v28q0 41 24.5 66t68.5 25
q21 0 39.5 -7t47.5 -23q20 -12 31.5 -17.5t22.5 -5.5q29 0 29 35v17h67v-28q0 -41 -24.5 -66t-68.5 -25z" />
    <glyph glyph-name="uni1EB6" unicode="&#x1eb6;" horiz-adv-x="689" 
d="M570 0l-73 187h-309l-72 -187h-98l278 696h96l279 -696h-101zM220 272h244l-122 316zM344 766q-69 0 -116.5 40.5t-51.5 108.5h81q4 -35 27.5 -56.5t59.5 -21.5t59.5 21.5t27.5 56.5h81q-4 -68 -51.5 -108.5t-116.5 -40.5zM345 -189q-26 0 -43.5 17.5t-17.5 43.5
t17.5 43.5t43.5 17.5t43.5 -17.5t17.5 -43.5t-17.5 -43.5t-43.5 -17.5z" />
    <glyph glyph-name="uni1EB7" unicode="&#x1eb7;" horiz-adv-x="535" 
d="M213 -14q-79 0 -127 42.5t-48 115.5q0 78 56.5 121.5t160.5 43.5h121v22q0 62 -31.5 88.5t-86.5 26.5q-46 0 -76 -18t-37 -44h-90q13 63 67.5 102.5t136.5 39.5q95 0 150.5 -49t55.5 -153v-324h-84v77q-27 -46 -73 -68.5t-95 -22.5zM233 64q33 0 66 15t55 44.5t22 74.5
v38h-115q-63 0 -98 -22t-35 -66q0 -41 29 -62.5t76 -21.5zM267 582q-68 0 -113 41.5t-50 114.5h80q4 -40 26 -63t57 -23t57 23t26 63h80q-5 -73 -50 -114.5t-113 -41.5zM267 -189q-26 0 -43.5 17.5t-17.5 43.5t17.5 43.5t43.5 17.5t43.5 -17.5t17.5 -43.5t-17.5 -43.5
t-43.5 -17.5z" />
    <glyph glyph-name="uni1EB8" unicode="&#x1eb8;" horiz-adv-x="641" 
d="M90 0v696h483v-85h-388v-211h377v-85h-377v-230h393v-85h-488zM334 -189q-26 0 -43.5 17.5t-17.5 43.5t17.5 43.5t43.5 17.5t43.5 -17.5t17.5 -43.5t-17.5 -43.5t-43.5 -17.5z" />
    <glyph glyph-name="uni1EB9" unicode="&#x1eb9;" horiz-adv-x="557" 
d="M290 -14q-76 0 -131.5 33t-85.5 94t-30 144q0 77 29.5 138t84 96t130.5 35q73 0 123 -32.5t76 -90t26 -134.5v-42h-377q7 -78 47 -119.5t109 -41.5q45 0 76.5 15.5t41.5 40.5h92q-18 -62 -75 -99t-136 -37zM286 446q-63 0 -101.5 -38.5t-47.5 -106.5h285q-3 65 -36.5 105
t-99.5 40zM278 -189q-26 0 -43.5 17.5t-17.5 43.5t17.5 43.5t43.5 17.5t43.5 -17.5t17.5 -43.5t-17.5 -43.5t-43.5 -17.5z" />
    <glyph glyph-name="uni1EBA" unicode="&#x1eba;" horiz-adv-x="641" 
d="M90 0v696h483v-85h-388v-211h377v-85h-377v-230h393v-85h-488zM259 808l42 12q31 9 47.5 18.5t16.5 26.5q0 30 -49 30h-84v63h90q57 0 87.5 -24t30.5 -68q0 -46 -32.5 -68t-87.5 -38l-44 -13z" />
    <glyph glyph-name="uni1EBB" unicode="&#x1ebb;" horiz-adv-x="557" 
d="M290 -14q-76 0 -131.5 33t-85.5 94t-30 144q0 77 29.5 138t84 96t130.5 35q73 0 123 -32.5t76 -90t26 -134.5v-42h-377q7 -78 47 -119.5t109 -41.5q45 0 76.5 15.5t41.5 40.5h92q-18 -62 -75 -99t-136 -37zM286 446q-63 0 -101.5 -38.5t-47.5 -106.5h285q-3 65 -36.5 105
t-99.5 40zM223 567l-17 61l42 12q31 9 47.5 18.5t16.5 26.5q0 30 -49 30h-84v63h90q57 0 87.5 -24t30.5 -68q0 -46 -32.5 -68t-87.5 -38z" />
    <glyph glyph-name="uni1EBC" unicode="&#x1ebc;" horiz-adv-x="641" 
d="M90 0v696h483v-85h-388v-211h377v-85h-377v-230h393v-85h-488zM408 769q-19 0 -40.5 6t-48.5 24q-20 13 -32 19t-24 6q-34 0 -34 -34v-19h-72v33q0 44 27 70.5t70 26.5q19 0 40.5 -6t48.5 -24q20 -13 32 -19t24 -6q34 0 34 33v20h72v-33q0 -44 -27 -70.5t-70 -26.5z" />
    <glyph glyph-name="uni1EBD" unicode="&#x1ebd;" horiz-adv-x="557" 
d="M290 -14q-76 0 -131.5 33t-85.5 94t-30 144q0 77 29.5 138t84 96t130.5 35q73 0 123 -32.5t76 -90t26 -134.5v-42h-377q7 -78 47 -119.5t109 -41.5q45 0 76.5 15.5t41.5 40.5h92q-18 -62 -75 -99t-136 -37zM286 446q-63 0 -101.5 -38.5t-47.5 -106.5h285q-3 65 -36.5 105
t-99.5 40zM353 587q-21 0 -42 7.5t-50 26.5q-19 13 -29.5 17.5t-20.5 4.5q-31 0 -31 -34v-20h-70v33q0 44 25.5 70t66.5 26q21 0 42.5 -7t49.5 -27q20 -14 30 -18t20 -4q31 0 31 34v20h70v-33q0 -43 -25.5 -69.5t-66.5 -26.5z" />
    <glyph glyph-name="uni1EBE" unicode="&#x1ebe;" horiz-adv-x="641" 
d="M90 0v696h483v-85h-388v-211h377v-85h-377v-230h393v-85h-488zM161 750l120 128h100l120 -128h-88l-82 80l-82 -80h-88zM546 833h-81l80 136h92z" />
    <glyph glyph-name="uni1EBF" unicode="&#x1ebf;" horiz-adv-x="557" 
d="M290 -14q-76 0 -131.5 33t-85.5 94t-30 144q0 77 29.5 138t84 96t130.5 35q73 0 123 -32.5t76 -90t26 -134.5v-42h-377q7 -78 47 -119.5t109 -41.5q45 0 76.5 15.5t41.5 40.5h92q-18 -62 -75 -99t-136 -37zM286 446q-63 0 -101.5 -38.5t-47.5 -106.5h285q-3 65 -36.5 105
t-99.5 40zM115 585l114 145h98l114 -145h-84l-79 95l-79 -95h-84zM473 703h-79l75 154h90z" />
    <glyph glyph-name="uni1EC0" unicode="&#x1ec0;" horiz-adv-x="641" 
d="M90 0v696h483v-85h-388v-211h377v-85h-377v-230h393v-85h-488zM161 750l120 128h100l120 -128h-88l-82 80l-82 -80h-88zM480 833l-90 136h92l80 -136h-82z" />
    <glyph glyph-name="uni1EC1" unicode="&#x1ec1;" horiz-adv-x="557" 
d="M290 -14q-76 0 -131.5 33t-85.5 94t-30 144q0 77 29.5 138t84 96t130.5 35q73 0 123 -32.5t76 -90t26 -134.5v-42h-377q7 -78 47 -119.5t109 -41.5q45 0 76.5 15.5t41.5 40.5h92q-18 -62 -75 -99t-136 -37zM286 446q-63 0 -101.5 -38.5t-47.5 -106.5h285q-3 65 -36.5 105
t-99.5 40zM115 585l114 145h98l114 -145h-84l-79 95l-79 -95h-84zM415 703l-86 154h90l75 -154h-79z" />
    <glyph glyph-name="uni1EC2" unicode="&#x1ec2;" horiz-adv-x="641" 
d="M90 0v696h483v-85h-388v-211h377v-85h-377v-230h393v-85h-488zM161 750l120 128h100l120 -128h-88l-82 80l-82 -80h-88zM485 825l-45 46l46 15q30 10 47 20t17 27q0 14 -12.5 23t-39.5 9h-85v58h91q58 0 87.5 -23t29.5 -64q0 -39 -27.5 -61.5t-79.5 -39.5z" />
    <glyph glyph-name="uni1EC3" unicode="&#x1ec3;" horiz-adv-x="557" 
d="M290 -14q-76 0 -131.5 33t-85.5 94t-30 144q0 77 29.5 138t84 96t130.5 35q73 0 123 -32.5t76 -90t26 -134.5v-42h-377q7 -78 47 -119.5t109 -41.5q45 0 76.5 15.5t41.5 40.5h92q-18 -62 -75 -99t-136 -37zM286 446q-63 0 -101.5 -38.5t-47.5 -106.5h285q-3 65 -36.5 105
t-99.5 40zM115 585l114 145h98l114 -145h-84l-79 95l-79 -95h-84zM421 678l-39 50l48 15q22 7 42 16.5t20 30.5q0 30 -52 30h-83v60h90q57 0 87.5 -22.5t30.5 -66.5q0 -46 -33 -68t-84 -37z" />
    <glyph glyph-name="uni1EC4" unicode="&#x1ec4;" horiz-adv-x="641" 
d="M90 0v696h483v-85h-388v-211h377v-85h-377v-230h393v-85h-488zM161 750l120 128h100l120 -128h-88l-82 80l-82 -80h-88zM405 907q-43 0 -89 28q-21 13 -33 17.5t-23 4.5q-32 0 -32 -33v-16h-67v26q0 40 26 64t70 24q43 0 89 -28q21 -13 33 -17.5t23 -4.5q32 0 32 33v16
h67v-26q0 -40 -26 -64t-70 -24z" />
    <glyph glyph-name="uni1EC5" unicode="&#x1ec5;" horiz-adv-x="557" 
d="M290 -14q-76 0 -131.5 33t-85.5 94t-30 144q0 77 29.5 138t84 96t130.5 35q73 0 123 -32.5t76 -90t26 -134.5v-42h-377q7 -78 47 -119.5t109 -41.5q45 0 76.5 15.5t41.5 40.5h92q-18 -62 -75 -99t-136 -37zM286 446q-63 0 -101.5 -38.5t-47.5 -106.5h285q-3 65 -36.5 105
t-99.5 40zM115 585l114 145h98l114 -145h-84l-79 95l-79 -95h-84zM350 768q-21 0 -39.5 7t-47.5 23q-20 12 -31.5 17.5t-22.5 5.5q-29 0 -29 -35v-17h-67v28q0 41 24.5 66t68.5 25q21 0 39.5 -7t47.5 -23q20 -12 31.5 -17.5t22.5 -5.5q29 0 29 35v17h67v-28q0 -41 -24.5 -66
t-68.5 -25z" />
    <glyph glyph-name="uni1EC6" unicode="&#x1ec6;" horiz-adv-x="641" 
d="M90 0v696h483v-85h-388v-211h377v-85h-377v-230h393v-85h-488zM155 770l124 147h104l124 -147h-94l-82 89l-82 -89h-94zM334 -189q-26 0 -43.5 17.5t-17.5 43.5t17.5 43.5t43.5 17.5t43.5 -17.5t17.5 -43.5t-17.5 -43.5t-43.5 -17.5z" />
    <glyph glyph-name="uni1EC7" unicode="&#x1ec7;" horiz-adv-x="557" 
d="M290 -14q-76 0 -131.5 33t-85.5 94t-30 144q0 77 29.5 138t84 96t130.5 35q73 0 123 -32.5t76 -90t26 -134.5v-42h-377q7 -78 47 -119.5t109 -41.5q45 0 76.5 15.5t41.5 40.5h92q-18 -62 -75 -99t-136 -37zM286 446q-63 0 -101.5 -38.5t-47.5 -106.5h285q-3 65 -36.5 105
t-99.5 40zM108 585l120 155h100l120 -155h-90l-80 96l-80 -96h-90zM278 -189q-26 0 -43.5 17.5t-17.5 43.5t17.5 43.5t43.5 17.5t43.5 -17.5t17.5 -43.5t-17.5 -43.5t-43.5 -17.5z" />
    <glyph glyph-name="uni1EC8" unicode="&#x1ec8;" horiz-adv-x="275" 
d="M185 0h-95v696h95v-696zM65 808l42 12q31 9 47.5 18.5t16.5 26.5q0 30 -49 30h-84v63h90q57 0 87.5 -24t30.5 -68q0 -46 -32.5 -68t-87.5 -38l-44 -13z" />
    <glyph glyph-name="uni1EC9" unicode="&#x1ec9;" horiz-adv-x="239" 
d="M75 0v512h89v-512h-89zM65 567l-17 61l42 12q31 9 47.5 18.5t16.5 26.5q0 30 -49 30h-84v63h90q57 0 87.5 -24t30.5 -68q0 -46 -32.5 -68t-87.5 -38z" />
    <glyph glyph-name="uni1ECA" unicode="&#x1eca;" horiz-adv-x="275" 
d="M185 0h-95v696h95v-696zM137 -189q-26 0 -43.5 17.5t-17.5 43.5t17.5 43.5t43.5 17.5t43.5 -17.5t17.5 -43.5t-17.5 -43.5t-43.5 -17.5z" />
    <glyph glyph-name="uni1ECB" unicode="&#x1ecb;" horiz-adv-x="239" 
d="M120 586q-26 0 -44 18t-18 44t18 44t44 18t44 -18t18 -44t-18 -44t-44 -18zM75 0v512h89v-512h-89zM120 -189q-26 0 -43.5 17.5t-17.5 43.5t17.5 43.5t43.5 17.5t43.5 -17.5t17.5 -43.5t-17.5 -43.5t-43.5 -17.5z" />
    <glyph glyph-name="uni1ECC" unicode="&#x1ecc;" horiz-adv-x="786" 
d="M393 -15q-75 0 -138 27t-109 76t-71.5 115t-25.5 145t25.5 145t71.5 115t109 76t138 27t138 -27t109 -76t71.5 -115t25.5 -145t-25.5 -145t-71.5 -115t-109 -76t-138 -27zM393 72q72 0 127.5 35t87.5 97.5t32 143.5t-32 143.5t-87.5 97.5t-127.5 35t-127.5 -35
t-87.5 -97.5t-32 -143.5t32 -143.5t87.5 -97.5t127.5 -35zM393 -189q-26 0 -43.5 17.5t-17.5 43.5t17.5 43.5t43.5 17.5t43.5 -17.5t17.5 -43.5t-17.5 -43.5t-43.5 -17.5z" />
    <glyph glyph-name="uni1ECD" unicode="&#x1ecd;" horiz-adv-x="580" 
d="M290 -14q-72 0 -128 34t-87.5 95t-31.5 141t31.5 141t87.5 95t128 34t128 -34t87.5 -95t31.5 -141t-31.5 -141t-87.5 -95t-128 -34zM290 68q69 0 112.5 51t43.5 137t-43.5 137t-112.5 51t-112.5 -51t-43.5 -137t43.5 -137t112.5 -51zM290 -189q-26 0 -43.5 17.5
t-17.5 43.5t17.5 43.5t43.5 17.5t43.5 -17.5t17.5 -43.5t-17.5 -43.5t-43.5 -17.5z" />
    <glyph glyph-name="uni1ECE" unicode="&#x1ece;" horiz-adv-x="786" 
d="M393 -15q-75 0 -138 27t-109 76t-71.5 115t-25.5 145t25.5 145t71.5 115t109 76t138 27t138 -27t109 -76t71.5 -115t25.5 -145t-25.5 -145t-71.5 -115t-109 -76t-138 -27zM393 72q72 0 127.5 35t87.5 97.5t32 143.5t-32 143.5t-87.5 97.5t-127.5 35t-127.5 -35
t-87.5 -97.5t-32 -143.5t32 -143.5t87.5 -97.5t127.5 -35zM321 808l42 12q31 9 47.5 18.5t16.5 26.5q0 30 -49 30h-84v63h90q57 0 87.5 -24t30.5 -68q0 -46 -32.5 -68t-87.5 -38l-44 -13z" />
    <glyph glyph-name="uni1ECF" unicode="&#x1ecf;" horiz-adv-x="580" 
d="M290 -14q-72 0 -128 34t-87.5 95t-31.5 141t31.5 141t87.5 95t128 34t128 -34t87.5 -95t31.5 -141t-31.5 -141t-87.5 -95t-128 -34zM290 68q69 0 112.5 51t43.5 137t-43.5 137t-112.5 51t-112.5 -51t-43.5 -137t43.5 -137t112.5 -51zM235 567l-17 61l42 12
q31 9 47.5 18.5t16.5 26.5q0 30 -49 30h-84v63h90q57 0 87.5 -24t30.5 -68q0 -46 -32.5 -68t-87.5 -38z" />
    <glyph glyph-name="uni1ED0" unicode="&#x1ed0;" horiz-adv-x="786" 
d="M393 -15q-75 0 -138 27t-109 76t-71.5 115t-25.5 145t25.5 145t71.5 115t109 76t138 27t138 -27t109 -76t71.5 -115t25.5 -145t-25.5 -145t-71.5 -115t-109 -76t-138 -27zM393 72q72 0 127.5 35t87.5 97.5t32 143.5t-32 143.5t-87.5 97.5t-127.5 35t-127.5 -35
t-87.5 -97.5t-32 -143.5t32 -143.5t87.5 -97.5t127.5 -35zM223 750l120 128h100l120 -128h-88l-82 80l-82 -80h-88zM608 833h-81l80 136h92z" />
    <glyph glyph-name="uni1ED1" unicode="&#x1ed1;" horiz-adv-x="580" 
d="M290 -14q-72 0 -128 34t-87.5 95t-31.5 141t31.5 141t87.5 95t128 34t128 -34t87.5 -95t31.5 -141t-31.5 -141t-87.5 -95t-128 -34zM290 68q69 0 112.5 51t43.5 137t-43.5 137t-112.5 51t-112.5 -51t-43.5 -137t43.5 -137t112.5 -51zM127 585l114 145h98l114 -145h-84
l-79 95l-79 -95h-84zM485 703h-79l75 154h90z" />
    <glyph glyph-name="uni1ED2" unicode="&#x1ed2;" horiz-adv-x="786" 
d="M393 -15q-75 0 -138 27t-109 76t-71.5 115t-25.5 145t25.5 145t71.5 115t109 76t138 27t138 -27t109 -76t71.5 -115t25.5 -145t-25.5 -145t-71.5 -115t-109 -76t-138 -27zM393 72q72 0 127.5 35t87.5 97.5t32 143.5t-32 143.5t-87.5 97.5t-127.5 35t-127.5 -35
t-87.5 -97.5t-32 -143.5t32 -143.5t87.5 -97.5t127.5 -35zM223 750l120 128h100l120 -128h-88l-82 80l-82 -80h-88zM542 833l-90 136h92l80 -136h-82z" />
    <glyph glyph-name="uni1ED3" unicode="&#x1ed3;" horiz-adv-x="580" 
d="M290 -14q-72 0 -128 34t-87.5 95t-31.5 141t31.5 141t87.5 95t128 34t128 -34t87.5 -95t31.5 -141t-31.5 -141t-87.5 -95t-128 -34zM290 68q69 0 112.5 51t43.5 137t-43.5 137t-112.5 51t-112.5 -51t-43.5 -137t43.5 -137t112.5 -51zM127 585l114 145h98l114 -145h-84
l-79 95l-79 -95h-84zM427 703l-86 154h90l75 -154h-79z" />
    <glyph glyph-name="uni1ED4" unicode="&#x1ed4;" horiz-adv-x="786" 
d="M393 -15q-75 0 -138 27t-109 76t-71.5 115t-25.5 145t25.5 145t71.5 115t109 76t138 27t138 -27t109 -76t71.5 -115t25.5 -145t-25.5 -145t-71.5 -115t-109 -76t-138 -27zM393 72q72 0 127.5 35t87.5 97.5t32 143.5t-32 143.5t-87.5 97.5t-127.5 35t-127.5 -35
t-87.5 -97.5t-32 -143.5t32 -143.5t87.5 -97.5t127.5 -35zM223 750l120 128h100l120 -128h-88l-82 80l-82 -80h-88zM547 825l-45 46l46 15q30 10 47 20t17 27q0 14 -12.5 23t-39.5 9h-85v58h91q58 0 87.5 -23t29.5 -64q0 -39 -27.5 -61.5t-79.5 -39.5z" />
    <glyph glyph-name="uni1ED5" unicode="&#x1ed5;" horiz-adv-x="580" 
d="M290 -14q-72 0 -128 34t-87.5 95t-31.5 141t31.5 141t87.5 95t128 34t128 -34t87.5 -95t31.5 -141t-31.5 -141t-87.5 -95t-128 -34zM290 68q69 0 112.5 51t43.5 137t-43.5 137t-112.5 51t-112.5 -51t-43.5 -137t43.5 -137t112.5 -51zM127 585l114 145h98l114 -145h-84
l-79 95l-79 -95h-84zM433 678l-39 50l48 15q22 7 42 16.5t20 30.5q0 30 -52 30h-83v60h90q57 0 87.5 -22.5t30.5 -66.5q0 -46 -33 -68t-84 -37z" />
    <glyph glyph-name="uni1ED6" unicode="&#x1ed6;" horiz-adv-x="786" 
d="M393 -15q-75 0 -138 27t-109 76t-71.5 115t-25.5 145t25.5 145t71.5 115t109 76t138 27t138 -27t109 -76t71.5 -115t25.5 -145t-25.5 -145t-71.5 -115t-109 -76t-138 -27zM393 72q72 0 127.5 35t87.5 97.5t32 143.5t-32 143.5t-87.5 97.5t-127.5 35t-127.5 -35
t-87.5 -97.5t-32 -143.5t32 -143.5t87.5 -97.5t127.5 -35zM223 750l120 128h100l120 -128h-88l-82 80l-82 -80h-88zM467 907q-43 0 -89 28q-21 13 -33 17.5t-23 4.5q-32 0 -32 -33v-16h-67v26q0 40 26 64t70 24q43 0 89 -28q21 -13 33 -17.5t23 -4.5q32 0 32 33v16h67v-26
q0 -40 -26 -64t-70 -24z" />
    <glyph glyph-name="uni1ED7" unicode="&#x1ed7;" horiz-adv-x="580" 
d="M290 -14q-72 0 -128 34t-87.5 95t-31.5 141t31.5 141t87.5 95t128 34t128 -34t87.5 -95t31.5 -141t-31.5 -141t-87.5 -95t-128 -34zM290 68q69 0 112.5 51t43.5 137t-43.5 137t-112.5 51t-112.5 -51t-43.5 -137t43.5 -137t112.5 -51zM127 585l114 145h98l114 -145h-84
l-79 95l-79 -95h-84zM362 768q-21 0 -39.5 7t-47.5 23q-20 12 -31.5 17.5t-22.5 5.5q-29 0 -29 -35v-17h-67v28q0 41 24.5 66t68.5 25q21 0 39.5 -7t47.5 -23q20 -12 31.5 -17.5t22.5 -5.5q29 0 29 35v17h67v-28q0 -41 -24.5 -66t-68.5 -25z" />
    <glyph glyph-name="uni1ED8" unicode="&#x1ed8;" horiz-adv-x="786" 
d="M393 -15q-75 0 -138 27t-109 76t-71.5 115t-25.5 145t25.5 145t71.5 115t109 76t138 27t138 -27t109 -76t71.5 -115t25.5 -145t-25.5 -145t-71.5 -115t-109 -76t-138 -27zM393 72q72 0 127.5 35t87.5 97.5t32 143.5t-32 143.5t-87.5 97.5t-127.5 35t-127.5 -35
t-87.5 -97.5t-32 -143.5t32 -143.5t87.5 -97.5t127.5 -35zM217 770l124 147h104l124 -147h-94l-82 89l-82 -89h-94zM393 -189q-26 0 -43.5 17.5t-17.5 43.5t17.5 43.5t43.5 17.5t43.5 -17.5t17.5 -43.5t-17.5 -43.5t-43.5 -17.5z" />
    <glyph glyph-name="uni1ED9" unicode="&#x1ed9;" horiz-adv-x="580" 
d="M290 -14q-72 0 -128 34t-87.5 95t-31.5 141t31.5 141t87.5 95t128 34t128 -34t87.5 -95t31.5 -141t-31.5 -141t-87.5 -95t-128 -34zM290 68q69 0 112.5 51t43.5 137t-43.5 137t-112.5 51t-112.5 -51t-43.5 -137t43.5 -137t112.5 -51zM120 585l120 155h100l120 -155h-90
l-80 96l-80 -96h-90zM290 -189q-26 0 -43.5 17.5t-17.5 43.5t17.5 43.5t43.5 17.5t43.5 -17.5t17.5 -43.5t-17.5 -43.5t-43.5 -17.5z" />
    <glyph glyph-name="uni1EDA" unicode="&#x1eda;" horiz-adv-x="795" 
d="M737 348q0 -79 -25.5 -145t-71.5 -115t-109 -76t-138 -27t-138 27t-109 76t-71.5 115t-25.5 145t25.5 145t71.5 115t109 76t138 27q30 0 58 -5t54 -12q13 -3 29 -5.5t29 -2.5h6q88 0 88 87v38h85v-45q0 -61 -28.5 -99t-84.5 -48q50 -48 79 -117.5t29 -153.5zM146 348
q0 -81 32 -143.5t87.5 -97.5t127.5 -35t127.5 35t87.5 97.5t32 143.5t-32 143.5t-87.5 97.5t-127.5 35t-127.5 -35t-87.5 -97.5t-32 -143.5zM431 770h-88l88 147h99z" />
    <glyph glyph-name="uni1EDB" unicode="&#x1edb;" horiz-adv-x="593" 
d="M537 256q0 -80 -31.5 -141t-87.5 -95t-128 -34t-128 34t-87.5 95t-31.5 141t31.5 141t87.5 95t128 34q25 0 48.5 -5t45.5 -12q9 -3 18 -5t19 -2q37 0 53.5 21.5t16.5 58.5v38h80v-45q0 -113 -94 -135q29 -35 44.5 -82t15.5 -102zM134 256q0 -86 43.5 -137t112.5 -51
t112.5 51t43.5 137t-43.5 137t-112.5 51t-112.5 -51t-43.5 -137zM322 585h-86l76 155h96z" />
    </font>
</defs>
</svg>
