<svg xmlns="http://www.w3.org/2000/svg" width="21" height="21" viewBox="0 0 21 21" fill="none">
    <g opacity="0.7" clip-path="url(#clip0_1_4157)">
        <path d="M13.2896 13.8624C13.238 13.1623 13.2236 12.4599 13.2463 11.7582L13.2454 11.789C13.8725 11.1389 14.2637 10.2974 14.3563 9.3989L14.358 9.3814C14.6405 9.35806 15.0863 9.08305 15.2163 7.99301C15.2556 7.80527 15.2408 7.61026 15.1737 7.4306C15.1065 7.25094 14.9899 7.09399 14.8372 6.97796L14.8347 6.9763C15.2947 5.5929 16.2497 1.31272 13.0671 0.871037C12.7396 0.296013 11.9012 0.0043335 10.8111 0.0043335C6.45013 0.0843369 5.92428 3.29697 6.87765 6.9763C6.72371 7.09339 6.6063 7.25189 6.53915 7.43327C6.472 7.61465 6.45789 7.8114 6.49847 8.00051L6.49763 7.99384C6.63097 9.08222 7.07349 9.3589 7.356 9.38223C7.4551 10.2907 7.85866 11.139 8.50105 11.789C8.52218 12.503 8.50604 13.2176 8.45272 13.9299L8.45688 13.8624C7.59185 16.1825 1.76826 15.5308 1.50159 20.0052H20.2174C19.949 15.5308 14.1521 16.1825 13.2888 13.8624H13.2896Z" fill="white"/>
    </g>
    <defs>
        <clipPath id="clip0_1_4157">
            <rect width="20.0008" height="20.0008" fill="white" transform="translate(0.501587 0.00439453)"/>
        </clipPath>
    </defs>
</svg>
